<?xml version="1.0" encoding="utf-8"?>
<!-- Generator: Adobe Illustrator 17.1.0, SVG Export Plug-In . SVG Version: 6.00 Build 0)  -->
<!DOCTYPE svg PUBLIC "-//W3C//DTD SVG 1.1//EN" "http://www.w3.org/Graphics/SVG/1.1/DTD/svg11.dtd">
<svg version="1.1" id="Layer_1" xmlns="http://www.w3.org/2000/svg" xmlns:xlink="http://www.w3.org/1999/xlink" x="0px" y="0px"
	 viewBox="0 0 446 78" enable-background="new 0 0 446 78" xml:space="preserve">
<g>
	<g>
		<path fill="#FFFFFF" d="M26.8,24.3L19.1,4.7h-0.5l-7.4,18.8c-0.6,1.7-2,5-3.3,5.2v0.7c1,0,2-0.2,3-0.2s2,0.2,3,0.2v-0.7
			c-0.8,0-1.3-0.6-1.3-1.5c0-0.4,0.1-1.2,0.3-1.7l0.9-3.1H22l1.2,3.2c0.3,0.7,0.5,1.3,0.5,1.8c0,0.8-0.5,1.3-1.2,1.3v0.7
			c1.2,0,2.3-0.2,3.5-0.2c1.2,0,2.3,0.2,3.5,0.2v-0.7C28.3,28.5,27.9,27.4,26.8,24.3z M14.5,20.7l3.3-9.2l3.5,9.2H14.5z M58.3,25.3
			L56.7,4.7h-1.1l-9.3,18.9L35.8,4.7h-1.2l-1.7,19.8c-0.3,2.7-0.6,3.9-2.3,4.1v0.7c1.1,0,2.1-0.2,3.2-0.2s2.1,0.2,3.2,0.2v-0.7
			c-1.4-0.3-2-1.3-2-3.1c0-0.7,0.1-1.8,0.2-2.3L35.8,13h0.1l9.8,16.5l7.8-16.1h0.1l0.9,10.5c0.1,0.5,0.2,1.3,0.2,2.3
			c0,1.2-0.5,2.3-1.5,2.4v0.7c1.2,0,2.4-0.2,3.6-0.2s2.4,0.2,3.6,0.2v-0.7C58.8,28.6,58.4,27.1,58.3,25.3z M77,29.4
			c0.5,0.1,1.1,0.3,1.6,0.5l1.2-4.3L78.7,25c-1.5,2.2-2.5,2.6-5.1,2.6h-6v-9.7H73c2,0,2.7,0.2,3.4,2.5h1.2c0-1-0.2-2-0.2-3.1
			c0-1,0.2-2,0.2-3.1h-1.1c-0.8,1.7-1.5,1.9-3.5,1.9h-5.2V7h6c1.9,0,2.7,1.3,3.3,3h1.4c0-0.9-0.2-1.7-0.2-2.6s0.3-1.7,0.3-2.6
			c-0.6,0.2-1.8,0.5-2.7,0.5H62V6c1.1,0.2,1.7,0.8,1.7,1.7c0,3.1,0.3,8.1,0.3,12.8v5.9c0,1.2-0.6,2-2,2.2v0.7h13.3
			C75.9,29.3,76.5,29.3,77,29.4z M82.4,28.7v0.7c1.3,0,2.4-0.2,3.7-0.2s2.4,0.2,3.7,0.2v-0.7c-1.8-0.4-2-1.4-2-2.9v-6.9
			c0.8,0,1.5,0.9,2.1,1.5l5.8,6.8c0.5,0.5,0.5,0.8,0.5,1.1s-0.2,0.4-0.4,0.5v0.7c1.2,0,2.3-0.2,3.4-0.2s2.3,0.2,3.5,0.2v-0.7
			c-0.9-0.2-2.2-1.4-2.6-2l-7-8.1c3.1-0.8,6.3-3.1,6.3-6.6c0-3.8-3.1-6.9-9.3-6.9c-2.6,0-3.6,0.2-4.7,0.2c-1.1,0-2.3-0.2-3.3-0.2
			v0.8c1.8,0.4,2,1.3,2,2.9c0,3,0.2,6,0.2,8.9v8.9C84.1,27.9,83.6,28.4,82.4,28.7z M88.1,7.3c0-0.9,1-1,1.9-1c3.8,0,5.2,2.9,5.2,6
			c0,3.3-2.7,5.5-6,5.5c-0.5,0-0.8-0.1-1.4-0.1L88.1,7.3z M105.9,8.7c0,2.2,0.3,8.3,0.3,12.5v5.1c0,1.5-0.6,2.4-1.7,2.5v0.7
			c1.2,0,2.3-0.2,3.6-0.2c1.2,0,2.4,0.2,3.6,0.2v-0.7c-1.4,0-1.7-1.4-1.7-2.5v-6.8c0-3.7,0.2-7.8,0.2-11.2c0-1.3,0.2-2.2,1.4-2.3
			V5.1c-1.2,0-2.4,0.2-3.6,0.2s-2.4-0.2-3.6-0.2V6C105.7,6,105.9,7.2,105.9,8.7z M129.6,29.9c2.3,0,4-0.3,6.8-0.8l1.1-3.9l-1.1-0.5
			c-1.5,2.4-4.1,3.7-6.9,3.7c-2.9,0-10-1.7-10-11.5c0-5.9,2.5-10.7,8.6-10.7c3,0,6.4,1.3,7.5,4.6h1.4l-0.3-4.6
			c-2.4-0.6-4.2-1.4-8.7-1.4c-7.8,0-13.3,5.3-13.3,12.4C114.7,23.5,119.2,29.9,129.6,29.9z M144.6,29.4v-0.7c-0.8,0-1.3-0.6-1.3-1.5
			c0-0.4,0.1-1.2,0.3-1.7l0.9-3.1h8.2l1.2,3.2c0.3,0.7,0.5,1.3,0.5,1.8c0,0.8-0.5,1.3-1.2,1.3v0.7c1.2,0,2.3-0.2,3.5-0.2
			s2.3,0.2,3.5,0.2v-0.7c-1.3-0.2-1.5-1.3-2.8-4.4l-7.6-19.6h-0.5L142,23.5c-0.6,1.7-2,5-3.3,5.2v0.7c1,0,2-0.2,3-0.2
			C142.6,29.3,143.6,29.4,144.6,29.4z M148.5,11.6l3.5,9.2h-6.9L148.5,11.6z M168.6,29.4v-0.7c-1.7-0.5-2.5-1.7-2.5-4.4L165.9,11
			l17.3,18.9h1.2l0.1-19.7c0-2.8,0.7-4.1,2.3-4.3V5.1c-1.2,0-2.3,0.2-3.5,0.2c-1.2,0-2.3-0.2-3.4-0.2V6c1.7,0.3,2.6,1.3,2.6,5.6v12
			l-17-18.9H164l-0.1,20.7c0,2-0.8,3-2.2,3.3v0.7c1.2,0,2.3-0.2,3.4-0.2C166.3,29.3,167.4,29.4,168.6,29.4z M202.6,27.2
			c0-0.4,0.1-1.2,0.3-1.7l0.9-3.1h8.2l1.2,3.2c0.3,0.7,0.5,1.3,0.5,1.8c0,0.8-0.5,1.3-1.2,1.3v0.7c1.2,0,2.3-0.2,3.5-0.2
			c1.2,0,2.3,0.2,3.5,0.2v-0.7c-1.3-0.2-1.5-1.3-2.8-4.4l-7.6-19.6h-0.5l-7.4,18.8c-0.6,1.7-2,5-3.3,5.2v0.7c1,0,2-0.2,3-0.2
			c1,0,2,0.2,3,0.2v-0.7C203,28.7,202.6,28.1,202.6,27.2z M207.8,11.6l3.5,9.2h-6.9L207.8,11.6z M236.9,22.8c0-9.5-11.8-5-11.8-12.3
			c0-2.4,2.2-4.3,4.5-4.3c2.6,0,4.8,1.1,5.7,3.7h1.4V6c-2.1-1.1-4.4-1.4-6.8-1.4c-4.4,0-8.1,3-8.1,7.6c0,9.1,11.8,5.5,11.8,11.6
			c0,2.7-2.1,4.4-4.7,4.4c-2.3,0-4.7-1.5-5.2-3.9h-1.4l0.4,3.7c1.2,0.8,4,1.6,6.2,1.6C233,29.9,236.9,27.2,236.9,22.8z M252.2,24
			c0,2.7-2.1,4.4-4.7,4.4c-2.3,0-4.7-1.5-5.2-3.9H241l0.4,3.7c1.2,0.8,4,1.6,6.2,1.6c4.1,0,8-2.6,8-7c0-9.5-11.8-5-11.8-12.3
			c0-2.4,2.2-4.3,4.5-4.3c2.6,0,4.8,1.1,5.7,3.7h1.4V6c-2.2-1.1-4.5-1.4-6.9-1.4c-4.4,0-8.1,3-8.1,7.6
			C240.4,21.4,252.2,17.9,252.2,24z M272.5,29.9c8,0,13.5-4.5,13.5-12.6c0-8-5.5-12.6-13.5-12.6S259,9.1,259,17.2
			S264.5,29.9,272.5,29.9z M272.5,6.1c6,0,8.7,5.4,8.7,11.1c0,5.8-2.7,11.1-8.7,11.1s-8.7-5.4-8.7-11.1S266.5,6.1,272.5,6.1z
			 M310.9,29.1l1.1-3.9l-1.1-0.5c-1.5,2.4-4.1,3.7-6.9,3.7c-2.9,0-10-1.7-10-11.5c0-5.9,2.5-10.7,8.6-10.7c3,0,6.4,1.3,7.5,4.6h1.4
			l-0.3-4.6c-2.4-0.6-4.2-1.4-8.7-1.4c-7.8,0-13.3,5.3-13.3,12.4c0,6.3,4.6,12.7,14.9,12.7C306.4,29.9,308.1,29.6,310.9,29.1z
			 M315.8,8.7c0,2.2,0.3,8.3,0.3,12.5v5.1c0,1.5-0.6,2.4-1.7,2.5v0.7c1.2,0,2.3-0.2,3.6-0.2c1.2,0,2.4,0.2,3.6,0.2v-0.7
			c-1.4,0-1.7-1.4-1.7-2.5v-6.8c0-3.7,0.2-7.8,0.2-11.2c0-1.3,0.2-2.2,1.4-2.3V5.1c-1.2,0-2.4,0.2-3.6,0.2c-1.2,0-2.4-0.2-3.6-0.2V6
			C315.6,6,315.8,7.2,315.8,8.7z M328.1,27.2c0-0.4,0.1-1.2,0.3-1.7l0.9-3.1h8.2l1.2,3.2c0.3,0.7,0.5,1.3,0.5,1.8
			c0,0.8-0.5,1.3-1.2,1.3v0.7c1.2,0,2.3-0.2,3.5-0.2c1.2,0,2.3,0.2,3.5,0.2v-0.7c-1.3-0.2-1.5-1.3-2.8-4.4l-7.6-19.6h-0.5l-7.4,18.8
			c-0.6,1.7-2,5-3.3,5.2v0.7c1,0,2-0.2,3-0.2c1,0,2,0.2,3,0.2v-0.7C328.6,28.7,328.1,28.1,328.1,27.2z M333.4,11.6l3.5,9.2H330
			L333.4,11.6z M356.3,25.4V18c0-4.1,0.2-8,0.2-11h4.4c2,0,3.1,0.6,3.3,2.7h1.4v-5c-0.8,0.4-2.3,0.5-3.3,0.5h-15.3
			c-0.6,0-1.4-0.1-2-0.2c-0.7-0.1-1.4-0.3-2-0.5v5h1.4c0.4-2.1,1.4-2.7,3.3-2.7h4.7c0.1,3,0.4,7.9,0.4,13v5.5c0,2-0.5,2.8-2.1,3.3
			v0.7c1.4,0,2.7-0.2,4-0.2c1.4,0,2.6,0.2,4,0.2v-0.7C357,28.1,356.3,27.5,356.3,25.4z M369.2,8.7c0,2.2,0.3,8.3,0.3,12.5v5.1
			c0,1.5-0.6,2.4-1.7,2.5v0.7c1.2,0,2.3-0.2,3.6-0.2c1.2,0,2.4,0.2,3.6,0.2v-0.7c-1.4,0-1.7-1.4-1.7-2.5v-6.8
			c0-3.7,0.2-7.8,0.2-11.2c0-1.3,0.2-2.2,1.4-2.3V5.1c-1.2,0-2.4,0.2-3.6,0.2s-2.4-0.2-3.6-0.2V6C369.1,6,369.2,7.2,369.2,8.7z
			 M391.5,29.9c8,0,13.5-4.5,13.5-12.6c0-8-5.5-12.6-13.5-12.6c-8,0-13.5,4.5-13.5,12.6S383.5,29.9,391.5,29.9z M391.5,6.1
			c6,0,8.7,5.4,8.7,11.1c0,5.8-2.7,11.1-8.7,11.1c-6,0-8.7-5.4-8.7-11.1S385.6,6.1,391.5,6.1z M414.6,29.4v-0.7
			c-1.7-0.5-2.5-1.7-2.5-4.4L411.8,11l17.3,18.9h1.2l0.1-19.7c0-2.8,0.7-4.1,2.3-4.3V5.1c-1.2,0-2.3,0.2-3.5,0.2
			c-1.2,0-2.3-0.2-3.4-0.2V6c1.7,0.3,2.6,1.3,2.6,5.6v12l-17-18.9H410l-0.1,20.7c0,2-0.8,3-2.2,3.3v0.7c1.2,0,2.3-0.2,3.4-0.2
			C412.2,29.3,413.4,29.4,414.6,29.4z M15.8,52.9c0-3.3-1.6-5.5-3.9-5.5c-4.1,0-6.9,5.1-6.9,8.9c0,3.3,1.6,5.5,3.9,5.5
			C12.9,61.7,15.8,56.7,15.8,52.9z M10.1,60.3c-2.2,0-3-2.5-3-4.5s1.2-7,3.5-7c2.2,0,3,2.5,3,4.5S12.4,60.3,10.1,60.3z M20.5,47.5
			h-1.8l-0.2,0.9h1.9c-0.5,4.9-0.6,8.7-1.3,14.4c-0.4,3.2-1.3,4.4-4.4,4.4c-0.7,0-1.4-0.3-2.1-0.3l1.1,1.8h0.7c6,0,7.5-6.6,7.8-11.5
			c0.3-3.9,0.5-6.8,0.7-8.9h2.5l0.2-0.9H23c0.8-9.8,1.2-10.3,2.9-10.3c1.4,0,1.9,0.8,2.4,1.5v-2.6c-0.6-0.3-1.3-0.4-1.7-0.4
			C21.2,35.8,21,43.7,20.5,47.5z M51.3,60.6c-2.9,0-10-1.7-10-11.5c0-5.9,2.5-10.7,8.6-10.7c3,0,6.4,1.3,7.5,4.6h1.4l-0.3-4.6
			c-2.4-0.6-4.2-1.4-8.7-1.4c-7.8,0-13.3,5.3-13.3,12.4c0,6.3,4.6,12.7,14.9,12.7c2.3,0,4-0.3,6.8-0.8l1.1-3.9l-1-0.5
			C56.6,59.4,54.1,60.6,51.3,60.6z M79.3,58.9l-7-8.1c3.1-0.8,6.3-3.1,6.3-6.6c0-3.8-3.1-6.9-9.3-6.9c-2.6,0-3.6,0.2-4.7,0.2
			c-1.1,0-2.3-0.2-3.3-0.2v0.8c1.8,0.4,2,1.3,2,2.9c0,3,0.2,6,0.2,8.9v8.9c0,1.2-0.5,1.7-1.7,2v0.8c1.3,0,2.4-0.2,3.7-0.2
			s2.4,0.2,3.7,0.2v-0.8c-1.8-0.4-2-1.4-2-2.9V51c0.8,0,1.5,0.9,2.1,1.5l5.8,6.8c0.5,0.5,0.5,0.8,0.5,1.1s-0.2,0.4-0.4,0.5v0.8
			c1.2,0,2.3-0.2,3.4-0.2s2.3,0.2,3.5,0.2v-0.8C81,60.7,79.8,59.5,79.3,58.9z M68.4,50.1c-0.5,0-0.8-0.1-1.4-0.1l0.2-10.5
			c0-0.9,1-1,1.9-1c3.8,0,5.2,2.9,5.2,6C74.3,47.9,71.5,50.1,68.4,50.1z M88.9,58.4v-6.8c0-3.7,0.2-7.8,0.2-11.2
			c0-1.3,0.2-2.2,1.4-2.3v-0.7c-1.2,0-2.4,0.2-3.6,0.2c-1.2,0-2.4-0.2-3.6-0.2v0.7c1.4,0.2,1.5,1.4,1.5,2.8c0,2.2,0.3,8.3,0.3,12.5
			v5.1c0,1.5-0.6,2.4-1.7,2.5v0.8c1.2,0,2.3-0.2,3.6-0.2c1.2,0,2.4,0.2,3.6,0.2V61C89.4,60.8,88.9,59.5,88.9,58.4z M96.8,37.4
			c-0.6,0-1.4-0.1-2-0.2c-0.7-0.1-1.4-0.3-2-0.5v4.9h1.4c0.4-2.1,1.4-2.7,3.3-2.7h4.7c0.1,3,0.4,7.9,0.4,13v5.5c0,2-0.5,2.8-2.1,3.3
			v0.8c1.4,0,2.7-0.2,4-0.2c1.4,0,2.6,0.2,4,0.2v-0.8c-1.5-0.5-2.2-1.2-2.2-3.3v-7.4c0-4.1,0.2-8,0.2-11h4.4c2,0,3.1,0.6,3.3,2.7
			h1.4v-4.9c-0.8,0.4-2.3,0.5-3.3,0.5C112.2,37.4,96.8,37.4,96.8,37.4z M123.1,58.4v-6.8c0-3.7,0.2-7.8,0.2-11.2
			c0-1.3,0.2-2.2,1.4-2.3v-0.7c-1.2,0-2.4,0.2-3.6,0.2c-1.2,0-2.4-0.2-3.6-0.2v0.7c1.4,0.2,1.5,1.4,1.5,2.8c0,2.2,0.3,8.3,0.3,12.5
			v5.1c0,1.5-0.6,2.4-1.7,2.5v0.8c1.2,0,2.3-0.2,3.6-0.2c1.2,0,2.4,0.2,3.6,0.2V61C123.5,60.8,123.1,59.5,123.1,58.4z M142.7,60.6
			c-2.9,0-10-1.7-10-11.5c0-5.9,2.5-10.7,8.6-10.7c3,0,6.4,1.3,7.5,4.6h1.4l-0.3-4.6c-2.4-0.6-4.2-1.4-8.7-1.4
			c-7.8,0-13.3,5.3-13.3,12.4c0,6.3,4.6,12.7,14.9,12.7c2.3,0,4-0.3,6.8-0.8l1.1-3.9l-1.1-0.5C148.1,59.4,145.6,60.6,142.7,60.6z
			 M170.6,56.5l-7.6-19.6h-0.5l-7.4,18.8c-0.6,1.7-2,5-3.3,5.2v0.8c1,0,2-0.2,3-0.2s2,0.2,3,0.2v-0.8c-0.8,0-1.3-0.6-1.3-1.5
			c0-0.4,0.1-1.2,0.3-1.7l0.9-3.1h8.2l1.2,3.2c0.3,0.7,0.5,1.3,0.5,1.8c0,0.8-0.5,1.3-1.2,1.3v0.8c1.2,0,2.3-0.2,3.5-0.2
			c1.2,0,2.3,0.2,3.5,0.2v-0.8C172.2,60.7,171.8,59.5,170.6,56.5z M158.4,52.9l3.3-9.2l3.5,9.2H158.4z M184.8,59.8
			c-2.3,0-2.9-0.1-3.7-0.2V47.5c0-3.2,0.1-5.4,0.1-6.4c0-1.8,0.5-2.7,1.9-3.1v-0.7c-1.4,0-2.6,0.2-4,0.2c-1.4,0-2.6-0.2-4-0.2v0.7
			c1.4,0.4,2.2,1.3,2.2,3v17.7c0,1.3-0.9,2.2-2.3,2.2v0.8c0.5,0,0.9,0,1.4-0.1c0.5,0,0.9-0.1,1.4-0.1h11.4c0.5,0,1.1,0,1.7,0.1
			c0.5,0.1,1.1,0.3,1.7,0.5l1.5-4.9l-1.3-0.6C191.8,58.7,190.8,59.8,184.8,59.8z M190.3,51.9h10.8v-2.1h-10.8V51.9z M220.3,60.6
			c-2.9,0-10-1.7-10-11.5c0-5.9,2.5-10.7,8.6-10.7c3,0,6.4,1.3,7.5,4.6h1.4l-0.3-4.6c-2.4-0.6-4.2-1.4-8.7-1.4
			c-7.8,0-13.3,5.3-13.3,12.4c0,6.3,4.6,12.7,14.9,12.7c2.3,0,4-0.3,6.8-0.8l1.1-3.9L227,57C225.7,59.4,223.1,60.6,220.3,60.6z
			 M248.2,56.5l-7.6-19.6h-0.5l-7.4,18.8c-0.6,1.7-2,5-3.3,5.2v0.8c1,0,2-0.2,3-0.2s2,0.2,3,0.2v-0.8c-0.8,0-1.3-0.6-1.3-1.5
			c0-0.4,0.1-1.2,0.3-1.7l0.9-3.1h8.2l1.2,3.2c0.3,0.7,0.5,1.3,0.5,1.8c0,0.8-0.5,1.3-1.2,1.3v0.8c1.2,0,2.3-0.2,3.5-0.2
			c1.2,0,2.3,0.2,3.5,0.2v-0.8C249.8,60.7,249.4,59.5,248.2,56.5z M236,52.9l3.3-9.2l3.5,9.2H236z M270.8,58.9l-7-8.1
			c3.1-0.8,6.3-3.1,6.3-6.6c0-3.8-3.1-6.9-9.3-6.9c-2.6,0-3.6,0.2-4.7,0.2c-1.1,0-2.3-0.2-3.3-0.2v0.8c1.8,0.4,2,1.3,2,2.9
			c0,3,0.2,6,0.2,8.9v8.9c0,1.2-0.5,1.7-1.7,2v0.8c1.3,0,2.4-0.2,3.7-0.2c1.3,0,2.4,0.2,3.7,0.2v-0.8c-1.8-0.4-2-1.4-2-2.9V51
			c0.8,0,1.5,0.9,2.1,1.5l5.8,6.8c0.5,0.5,0.5,0.8,0.5,1.1s-0.2,0.4-0.4,0.5v0.8c1.2,0,2.3-0.2,3.4-0.2c1.2,0,2.3,0.2,3.5,0.2v-0.8
			C272.5,60.7,271.3,59.5,270.8,58.9z M259.9,50.1c-0.5,0-0.8-0.1-1.4-0.1l0.2-10.5c0-0.9,1-1,1.9-1c3.8,0,5.2,2.9,5.2,6
			C265.8,47.9,263,50.1,259.9,50.1z M286.1,59.8h-6v-9.7h5.2c2,0,2.7,0.2,3.4,2.5h1.2c0-1-0.2-2-0.2-3.1c0-1,0.2-2,0.2-3.1h-1.1
			c-0.8,1.7-1.5,1.9-3.5,1.9h-5.2v-9.3h6c1.9,0,2.7,1.3,3.3,3h1.4c0-0.9-0.2-1.7-0.2-2.6c0-0.9,0.2-1.7,0.2-2.6
			c-0.6,0.2-1.8,0.5-2.7,0.5h-13.7v0.8c1.1,0.2,1.7,0.8,1.7,1.7c0,3.1,0.3,8.1,0.3,12.8v5.9c0,1.2-0.6,2-2,2.2v0.8h13.3
			c0.5,0,1.1,0,1.6,0.1c0.5,0.1,1.1,0.3,1.6,0.5l1.2-4.3l-1.1-0.5C289.6,59.4,288.7,59.8,286.1,59.8z M322.1,37.3v0.8
			c1.7,0.3,2.6,1.3,2.6,5.6v12l-17-18.8h-1.4l-0.1,20.7c0,2-0.8,3-2.2,3.3v0.8c1.2,0,2.3-0.2,3.4-0.2s2.3,0.2,3.4,0.2v-0.8
			c-1.7-0.5-2.5-1.7-2.5-4.4l-0.2-13.3l17.3,18.9h1.2l0.1-19.7c0-2.8,0.7-4.1,2.3-4.3v-0.7c-1.2,0-2.3,0.2-3.5,0.2
			C324.4,37.4,323.3,37.3,322.1,37.3z M354.6,57.8v-7.6c0-4.6,0.1-8.2,0.1-9.6c0-1.2,0.5-2.5,1.6-2.6v-0.7c-1.3,0-2.5,0.2-3.8,0.2
			c-1.3,0-2.5-0.2-3.8-0.2v0.7c0.8,0.1,1.8,0.8,1.8,1.7c0,1.7,0.3,5.9,0.3,10v4.1c0,4-3.6,5.6-6.4,5.6c-5.1,0-7.3-3.3-7.3-8
			c0-3.3,0-6.6,0-9.9c0-2.3,0.4-3.2,2-3.5v-0.7c-1.3,0-2.5,0.2-3.8,0.2c-1.3,0-2.5-0.2-3.8-0.2v0.7c1.4,0.2,1.7,1.4,1.7,2.7
			c0,2.2,0.2,4.6,0.2,7.3v5.9c0,5.2,4.1,8.2,9.2,8.2c3.5,0,5.7-1.4,8.2-3.7c-0.1,1.1-0.2,2.2-0.3,3.3c1,0,2-0.2,2.9-0.2
			c1,0,2,0.2,3,0.2V61C354.9,60.7,354.6,59.7,354.6,57.8z M377,58.9l-7-8.1c3.1-0.8,6.3-3.1,6.3-6.6c0-3.8-3.1-6.9-9.3-6.9
			c-2.6,0-3.6,0.2-4.7,0.2s-2.3-0.2-3.3-0.2v0.8c1.8,0.4,2,1.3,2,2.9c0,3,0.2,6,0.2,8.9v8.9c0,1.2-0.5,1.7-1.7,2v0.8
			c1.3,0,2.4-0.2,3.7-0.2c1.3,0,2.4,0.2,3.7,0.2v-0.8c-1.8-0.4-2-1.4-2-2.9V51c0.8,0,1.5,0.9,2.1,1.5l5.8,6.8
			c0.5,0.5,0.5,0.8,0.5,1.1s-0.2,0.4-0.4,0.5v0.8c1.2,0,2.3-0.2,3.4-0.2s2.3,0.2,3.5,0.2v-0.8C378.7,60.7,377.6,59.5,377,58.9z
			 M366.1,50.1c-0.5,0-0.8-0.1-1.4-0.1l0.2-10.5c0-0.9,1-1,1.9-1c3.8,0,5.2,2.9,5.2,6C372.1,47.9,369.3,50.1,366.1,50.1z
			 M384.7,42.7c0-2.4,2.2-4.3,4.5-4.3c2.6,0,4.8,1.1,5.7,3.7h1.4v-3.8c-2.1-1.1-4.4-1.4-6.8-1.4c-4.4,0-8.1,3-8.1,7.6
			c0,9.1,11.8,5.5,11.8,11.6c0,2.7-2.1,4.4-4.7,4.4c-2.3,0-4.7-1.5-5.2-3.9H382l0.4,3.7c1.2,0.8,4,1.6,6.2,1.6c4.1,0,8-2.6,8-7
			C396.6,45.6,384.7,50.1,384.7,42.7z M411,59.8h-6v-9.7h5.2c2,0,2.7,0.2,3.4,2.5h1.2c0-1-0.2-2-0.2-3.1c0-1,0.2-2,0.2-3.1h-1.1
			c-0.8,1.7-1.5,1.9-3.5,1.9h-5.2v-9.3h6c1.9,0,2.7,1.3,3.3,3h1.4c0-0.9-0.2-1.7-0.2-2.6c0-0.9,0.2-1.7,0.2-2.6
			c-0.6,0.2-1.8,0.5-2.7,0.5h-13.7v0.8c1.1,0.2,1.7,0.8,1.7,1.7c0,3.1,0.3,8.1,0.3,12.8v5.9c0,1.2-0.6,2-2,2.2v0.8h13.3
			c0.5,0,1.1,0,1.6,0.1c0.5,0.1,1.1,0.3,1.6,0.5l1.2-4.3l-1.1-0.5C414.6,59.4,413.6,59.8,411,59.8z M423.4,42.7
			c0-2.4,2.2-4.3,4.5-4.3c2.6,0,4.8,1.1,5.7,3.7h1.4v-3.8c-2.1-1.1-4.4-1.4-6.8-1.4c-4.4,0-8.1,3-8.1,7.6c0,9.1,11.8,5.5,11.8,11.6
			c0,2.7-2.1,4.4-4.7,4.4c-2.3,0-4.7-1.5-5.2-3.9h-1.3l0.4,3.7c1.2,0.8,4,1.6,6.2,1.6c4.1,0,8-2.6,8-7
			C435.2,45.6,423.4,50.1,423.4,42.7z"/>
	</g>
</g>
</svg>
