<?xml version="1.0" encoding="utf-8"?>
<!-- Generator: Adobe Illustrator 17.1.0, SVG Export Plug-In . SVG Version: 6.00 Build 0)  -->
<!DOCTYPE svg PUBLIC "-//W3C//DTD SVG 1.0//EN" "http://www.w3.org/TR/2001/REC-SVG-20010904/DTD/svg10.dtd">
<svg version="1.0" id="Layer_1" xmlns="http://www.w3.org/2000/svg" xmlns:xlink="http://www.w3.org/1999/xlink" x="0px" y="0px"
	 width="435px" height="483px" viewBox="0 0 435 483" enable-background="new 0 0 435 483" xml:space="preserve">
<g>
	<g>
		<path d="M182.9,426.6L148.6,341h-6.5l-30.6,81c-1.7,4.4-4,8.9-7.6,11.4c-1.8-1.5-3-3.5-4.2-6.9L65.3,341h-6.4l-30.6,81
			c-2.4,6.4-6.4,12.8-12.6,13.5v3.9c4.4,0,8.7-0.7,13.1-0.7c4.6,0,9.2,0.7,13.6,0.7v-3.9c-3.7-0.7-5.2-2.6-5.2-6.4
			c0-1.5,0.2-4.2,0.9-6.9l3.2-10.1h29.1l4.4,11.6c0.9,2.2,1.3,5.4,1.3,6.9c0,3.9-2.4,5-5.9,5v3.9c6.4,0,12.6-0.7,19.2-0.7
			c3,0,6.1,0.2,9.2,0.4v0.4c1.5,0,2.7-0.2,4.2-0.2c2.2,0.2,4.2,0.2,6.4,0.2v-0.7c0.7,0,1.7-0.2,2.6-0.2c4.6,0,9.2,0.7,13.6,0.7v-3.9
			c-3.7-0.7-5.2-2.6-5.2-6.4c0-1.5,0.2-4.2,0.9-6.9l3.2-10.1h29.1l4.4,11.6c0.9,2.2,1.3,5.4,1.3,6.9c0,3.9-2.4,5-5.9,5v3.9
			c6.4,0,12.6-0.7,19.2-0.7c6.4,0,13.1,0.7,19.7,0.7v-3.9C186.6,434.4,185.1,432.2,182.9,426.6z M44.1,404.4L55,370.3h0.4l12.6,34.1
			H44.1z M127.1,404.4l10.9-34.1h0.4l12.6,34.1H127.1z M241.4,435.5c-26.6,0-36.5-22.9-36.5-46.3c0-21,8.7-43,32.8-43
			c13.8,0,23.1,8.4,26,21.6l7.6-0.7l-1.5-21.2c-12.8-0.4-14.8-4.8-35.1-4.8c-25.3,0-55,15-55,47.4c0,34.8,25.4,52.3,58.3,52.3
			c9.8,0,20-0.9,29.4-4l4.8-17.3l-5.5-1.8C262.3,428.1,253.4,435.5,241.4,435.5z M356.2,343.2c-4.4,0-8.9-0.7-13.3-0.7v3.9
			c5.7,0.4,10.1,5.5,10.1,25.1v37.5l-64.9-67.8h-5.5v73.1c0,18.8-4.4,20.9-9.6,21.2v3.9c4.4,0,9.1-0.7,13.5-0.7
			c4.8,0,9.4,0.7,14.3,0.7v-3.9c-5.4-0.4-9.8-2.4-9.8-21.2v-39.2l64.4,65.6h6.1v-80.1c0-12,4.4-14,8.9-14.4v-3.9
			C365.6,342.2,361,343.2,356.2,343.2z"/>
	</g>
</g>
<g>
	<g>
		<path d="M35,239.5l-6.8-17.2h-0.4l-6.5,16.5c-0.5,1.5-1.8,4.4-2.9,4.6v0.6c0.9,0,1.8-0.2,2.6-0.2c0.9,0,1.8,0.2,2.6,0.2v-0.6
			c-0.7,0-1.1-0.5-1.1-1.3c0-0.4,0.1-1.1,0.3-1.5l0.8-2.7h7.2l1.1,2.8c0.3,0.6,0.4,1.1,0.4,1.6c0,0.7-0.4,1.1-1.1,1.1v0.6
			c1.1,0,2-0.2,3.1-0.2s2,0.2,3.1,0.2v-0.6C36.3,243.3,36,242.3,35,239.5z M24.2,236.4l2.9-8.1l3.1,8.1H24.2z M62.7,240.4l-1.4-18.1
			h-1l-8.2,16.6l-9.3-16.6h-1.1l-1.5,17.4c-0.3,2.4-0.5,3.4-2,3.6v0.6c1,0,1.8-0.2,2.8-0.2s1.8,0.2,2.8,0.2v-0.6
			c-1.2-0.3-1.8-1.1-1.8-2.7c0-0.6,0.1-1.6,0.2-2l0.5-9.2h0.1l8.6,14.5l6.9-14.2h0.1l0.8,9.2c0.1,0.4,0.2,1.1,0.2,2
			c0,1.1-0.4,2-1.3,2.1v0.6c1.1,0,2.1-0.2,3.2-0.2c1.1,0,2.1,0.2,3.2,0.2v-0.6C63.1,243.3,62.8,242,62.7,240.4z M79.2,244.1
			c0.4,0.1,1,0.3,1.4,0.4l1.1-3.8l-1-0.4c-1.3,1.9-2.2,2.3-4.5,2.3h-5.3v-8.7h4.6c1.8,0,2.4,0.2,3,2.2h1.1c0-0.9-0.2-1.8-0.2-2.7
			c0-0.9,0.2-1.8,0.2-2.7h-1c-0.7,1.5-1.3,1.7-3.1,1.7h-4.6v-8.1h5.3c1.7,0,2.4,1.1,2.9,2.6h1.2c0-0.8-0.2-1.5-0.2-2.3
			s0.3-1.5,0.3-2.3c-0.5,0.2-1.6,0.4-2.4,0.4H66v0.7c1,0.2,1.5,0.7,1.5,1.5c0,2.7,0.3,7.1,0.3,11.3v5.2c0,1.1-0.5,1.8-1.8,1.9v0.6
			h11.7C78.2,244,78.7,244,79.2,244.1z M83.9,243.4v0.6c1.1,0,2.1-0.2,3.3-0.2s2.1,0.2,3.3,0.2v-0.6c-1.6-0.4-1.8-1.2-1.8-2.6v-6.1
			c0.7,0,1.3,0.8,1.8,1.3l5.1,6c0.4,0.4,0.4,0.7,0.4,1c0,0.3-0.2,0.4-0.4,0.4v0.6c1.1,0,2-0.2,3-0.2c1.1,0,2,0.2,3.1,0.2v-0.6
			c-0.8-0.2-1.9-1.2-2.3-1.8l-6.2-7.1c2.7-0.7,5.5-2.7,5.5-5.8c0-3.3-2.7-6.1-8.2-6.1c-2.3,0-3.2,0.2-4.1,0.2c-1,0-2-0.2-2.9-0.2
			v0.7c1.6,0.4,1.8,1.1,1.8,2.6c0,2.6,0.2,5.3,0.2,7.8v7.8C85.4,242.7,85,243.2,83.9,243.4z M88.9,224.7c0-0.8,0.9-0.9,1.7-0.9
			c3.3,0,4.6,2.6,4.6,5.3c0,2.9-2.4,4.8-5.3,4.8c-0.4,0-0.7-0.1-1.2-0.1L88.9,224.7z M104.6,225.8c0,1.9,0.3,7.3,0.3,11v4.5
			c0,1.3-0.5,2.1-1.5,2.2v0.6c1.1,0,2-0.2,3.2-0.2c1.1,0,2.1,0.2,3.2,0.2v-0.6c-1.2,0-1.5-1.2-1.5-2.2v-6c0-3.3,0.2-6.9,0.2-9.9
			c0-1.1,0.2-1.9,1.2-2v-0.7c-1.1,0-2.1,0.2-3.2,0.2c-1.1,0-2.1-0.2-3.2-0.2v0.7C104.4,223.5,104.6,224.6,104.6,225.8z M125.5,244.5
			c2,0,3.5-0.3,6-0.7l1-3.4l-1-0.4c-1.3,2.1-3.6,3.3-6.1,3.3c-2.6,0-8.8-1.5-8.8-10.1c0-5.2,2.2-9.4,7.6-9.4c2.6,0,5.6,1.1,6.6,4
			h1.2l-0.3-4c-2.1-0.5-3.7-1.2-7.7-1.2c-6.9,0-11.7,4.7-11.7,10.9C112.3,238.8,116.3,244.5,125.5,244.5z M138.7,244.1v-0.6
			c-0.7,0-1.1-0.5-1.1-1.3c0-0.4,0.1-1.1,0.3-1.5l0.8-2.7h7.2l1.1,2.8c0.3,0.6,0.4,1.1,0.4,1.6c0,0.7-0.4,1.1-1.1,1.1v0.6
			c1.1,0,2-0.2,3.1-0.2c1.1,0,2,0.2,3.1,0.2v-0.6c-1.1-0.2-1.3-1.1-2.5-3.9l-6.7-17.2h-0.4l-6.4,16.5c-0.5,1.5-1.8,4.4-2.9,4.6v0.6
			c0.9,0,1.8-0.2,2.6-0.2C136.9,244,137.8,244.1,138.7,244.1z M142.1,228.4l3.1,8.1h-6.1L142.1,228.4z M159.7,244.1v-0.6
			c-1.5-0.4-2.2-1.5-2.2-3.9l-0.2-11.7l15.2,16.6h1.1l0.1-17.3c0-2.5,0.6-3.6,2-3.8v-0.6c-1.1,0-2,0.2-3.1,0.2s-2-0.2-3-0.2v0.7
			c1.5,0.3,2.3,1.1,2.3,4.9V239l-15-16.6h-1.2l-0.1,18.2c0,1.8-0.7,2.6-1.9,2.9v0.6c1.1,0,2-0.2,3-0.2
			C157.7,244,158.7,244.1,159.7,244.1z M189.7,242.1c0-0.4,0.1-1.1,0.3-1.5l0.8-2.7h7.2l1.1,2.8c0.3,0.6,0.4,1.1,0.4,1.6
			c0,0.7-0.4,1.1-1.1,1.1v0.6c1.1,0,2-0.2,3.1-0.2s2,0.2,3.1,0.2v-0.6c-1.1-0.2-1.3-1.1-2.5-3.9l-6.7-17.2H195l-6.5,16.5
			c-0.5,1.5-1.8,4.4-2.9,4.6v0.6c0.9,0,1.8-0.2,2.6-0.2c0.9,0,1.8,0.2,2.6,0.2v-0.6C190,243.4,189.7,242.9,189.7,242.1z
			 M194.3,228.4l3.1,8.1h-6.1L194.3,228.4z M219.9,238.3c0-8.4-10.4-4.4-10.4-10.8c0-2.1,1.9-3.8,4-3.8c2.3,0,4.2,1,5,3.3h1.2v-3.4
			c-1.8-1-3.9-1.2-6-1.2c-3.9,0-7.1,2.6-7.1,6.7c0,8,10.4,4.8,10.4,10.2c0,2.4-1.8,3.9-4.1,3.9c-2,0-4.1-1.3-4.6-3.4H207l0.4,3.3
			c1.1,0.7,3.5,1.4,5.5,1.4C216.4,244.5,219.9,242.2,219.9,238.3z M233.3,239.3c0,2.4-1.8,3.9-4.1,3.9c-2,0-4.1-1.3-4.6-3.4h-1.1
			l0.4,3.3c1.1,0.7,3.5,1.4,5.5,1.4c3.6,0,7-2.3,7-6.2c0-8.4-10.4-4.4-10.4-10.8c0-2.1,1.9-3.8,4-3.8c2.3,0,4.2,1,5,3.3h1.2v-3.4
			c-1.9-1-4-1.2-6.1-1.2c-3.9,0-7.1,2.6-7.1,6.7C223,237,233.3,233.9,233.3,239.3z M251.2,244.5c7,0,11.9-4,11.9-11.1
			c0-7-4.8-11.1-11.9-11.1s-11.9,4-11.9,11.1C239.2,240.5,244.1,244.5,251.2,244.5z M251.2,223.6c5.3,0,7.7,4.8,7.7,9.8
			c0,5.1-2.4,9.8-7.7,9.8c-5.3,0-7.7-4.8-7.7-9.8C243.5,228.4,245.9,223.6,251.2,223.6z M285,243.8l1-3.4l-1-0.4
			c-1.3,2.1-3.6,3.3-6.1,3.3c-2.6,0-8.8-1.5-8.8-10.1c0-5.2,2.2-9.4,7.6-9.4c2.6,0,5.6,1.1,6.6,4h1.2l-0.3-4
			c-2.1-0.5-3.7-1.2-7.7-1.2c-6.9,0-11.7,4.7-11.7,10.9c0,5.5,4,11.2,13.1,11.2C281,244.5,282.5,244.2,285,243.8z M289.3,225.8
			c0,1.9,0.3,7.3,0.3,11v4.5c0,1.3-0.5,2.1-1.5,2.2v0.6c1.1,0,2-0.2,3.2-0.2c1.1,0,2.1,0.2,3.2,0.2v-0.6c-1.2,0-1.5-1.2-1.5-2.2v-6
			c0-3.3,0.2-6.9,0.2-9.9c0-1.1,0.2-1.9,1.2-2v-0.7c-1.1,0-2.1,0.2-3.2,0.2c-1.1,0-2.1-0.2-3.2-0.2v0.7
			C289.1,223.5,289.3,224.6,289.3,225.8z M300.1,242.1c0-0.4,0.1-1.1,0.3-1.5l0.8-2.7h7.2l1.1,2.8c0.3,0.6,0.4,1.1,0.4,1.6
			c0,0.7-0.4,1.1-1.1,1.1v0.6c1.1,0,2-0.2,3.1-0.2c1.1,0,2,0.2,3.1,0.2v-0.6c-1.1-0.2-1.3-1.1-2.5-3.9l-6.7-17.2h-0.4l-6.5,16.5
			c-0.5,1.5-1.8,4.4-2.9,4.6v0.6c0.9,0,1.8-0.2,2.6-0.2s1.8,0.2,2.6,0.2v-0.6C300.6,243.4,300.1,242.9,300.1,242.1z M304.7,228.4
			l3.1,8.1h-6.1L304.7,228.4z M324.9,240.5V234c0-3.6,0.2-7,0.2-9.7h3.9c1.8,0,2.7,0.5,2.9,2.4h1.2v-4.4c-0.7,0.4-2,0.4-2.9,0.4
			h-13.5c-0.5,0-1.2-0.1-1.8-0.2c-0.6-0.1-1.2-0.3-1.8-0.4v4.4h1.2c0.4-1.8,1.2-2.4,2.9-2.4h4.1c0.1,2.6,0.4,7,0.4,11.4v4.8
			c0,1.8-0.4,2.5-1.8,2.9v0.6c1.2,0,2.4-0.2,3.5-0.2c1.2,0,2.3,0.2,3.5,0.2v-0.6C325.6,243,324.9,242.4,324.9,240.5z M336.3,225.8
			c0,1.9,0.3,7.3,0.3,11v4.5c0,1.3-0.5,2.1-1.5,2.2v0.6c1.1,0,2-0.2,3.2-0.2c1.1,0,2.1,0.2,3.2,0.2v-0.6c-1.2,0-1.5-1.2-1.5-2.2v-6
			c0-3.3,0.2-6.9,0.2-9.9c0-1.1,0.2-1.9,1.2-2v-0.7c-1.1,0-2.1,0.2-3.2,0.2c-1.1,0-2.1-0.2-3.2-0.2v0.7
			C336.2,223.5,336.3,224.6,336.3,225.8z M355.9,244.5c7,0,11.9-4,11.9-11.1c0-7-4.8-11.1-11.9-11.1c-7,0-11.9,4-11.9,11.1
			S348.9,244.5,355.9,244.5z M355.9,223.6c5.3,0,7.7,4.8,7.7,9.8c0,5.1-2.4,9.8-7.7,9.8c-5.3,0-7.7-4.8-7.7-9.8
			C348.3,228.4,350.7,223.6,355.9,223.6z M376.2,244.1v-0.6c-1.5-0.4-2.2-1.5-2.2-3.9l-0.2-11.7l15.2,16.5h1.1l0.1-17.3
			c0-2.5,0.6-3.6,2-3.8v-0.6c-1.1,0-2,0.2-3.1,0.2s-2-0.2-3-0.2v0.7c1.5,0.3,2.3,1.1,2.3,4.9v10.6l-15-16.6h-1.2l-0.1,18.2
			c0,1.8-0.7,2.6-1.9,2.9v0.6c1.1,0,2-0.2,3-0.2C374.1,244,375.2,244.1,376.2,244.1z M25.2,264.7c0-2.9-1.4-4.8-3.4-4.8
			c-3.6,0-6.1,4.5-6.1,7.8c0,2.9,1.4,4.8,3.4,4.8C22.8,272.5,25.2,268,25.2,264.7z M20.3,271.2c-1.9,0-2.6-2.2-2.6-4
			c0-1.8,1.1-6.2,3.1-6.2c1.9,0,2.6,2.2,2.6,4S22.3,271.2,20.3,271.2z M29.4,260h-1.6l-0.2,0.8h1.7c-0.4,4.3-0.5,7.7-1.1,12.7
			c-0.4,2.8-1.1,3.9-3.9,3.9c-0.6,0-1.2-0.3-1.8-0.3l1,1.6h0.6c5.3,0,6.6-5.8,6.9-10.1c0.3-3.4,0.4-6,0.6-7.8h2.2l0.2-0.8h-2.4
			c0.7-8.6,1.1-9.1,2.6-9.1c1.2,0,1.7,0.7,2.1,1.3v-2.3c-0.5-0.3-1.1-0.4-1.5-0.4C30.1,249.7,29.9,256.6,29.4,260z M56.5,271.6
			c-2.6,0-8.8-1.5-8.8-10.1c0-5.2,2.2-9.4,7.6-9.4c2.6,0,5.6,1.1,6.6,4h1.2l-0.3-4c-2.1-0.5-3.7-1.2-7.7-1.2
			c-6.9,0-11.7,4.7-11.7,10.9c0,5.5,4,11.2,13.1,11.2c2,0,3.5-0.3,6-0.7l1-3.4l-0.9-0.4C61.2,270.4,59,271.6,56.5,271.6z
			 M81.1,270.1l-6.2-7.1c2.7-0.7,5.5-2.7,5.5-5.8c0-3.3-2.7-6.1-8.2-6.1c-2.3,0-3.2,0.2-4.1,0.2c-1,0-2-0.2-2.9-0.2v0.7
			c1.6,0.4,1.8,1.1,1.8,2.6c0,2.6,0.2,5.3,0.2,7.8v7.8c0,1.1-0.4,1.5-1.5,1.8v0.7c1.1,0,2.1-0.2,3.3-0.2c1.1,0,2.1,0.2,3.3,0.2v-0.7
			c-1.6-0.4-1.8-1.2-1.8-2.6v-6.1c0.7,0,1.3,0.8,1.8,1.3l5.1,6c0.4,0.4,0.4,0.7,0.4,1c0,0.3-0.2,0.4-0.4,0.4v0.7c1.1,0,2-0.2,3-0.2
			c1,0,2,0.2,3.1,0.2v-0.7C82.7,271.6,81.6,270.6,81.1,270.1z M71.5,262.2c-0.4,0-0.7-0.1-1.2-0.1l0.2-9.2c0-0.8,0.9-0.9,1.7-0.9
			c3.3,0,4.6,2.6,4.6,5.3C76.8,260.3,74.3,262.2,71.5,262.2z M89.6,269.5v-6c0-3.3,0.2-6.9,0.2-9.9c0-1.1,0.2-1.9,1.2-2v-0.6
			c-1.1,0-2.1,0.2-3.2,0.2c-1.1,0-2.1-0.2-3.2-0.2v0.6c1.2,0.2,1.3,1.2,1.3,2.5c0,1.9,0.3,7.3,0.3,11v4.5c0,1.3-0.5,2.1-1.5,2.2v0.7
			c1.1,0,2-0.2,3.2-0.2c1.1,0,2.1,0.2,3.2,0.2v-0.7C90.1,271.6,89.6,270.6,89.6,269.5z M96.5,251.1c-0.5,0-1.2-0.1-1.8-0.2
			c-0.6-0.1-1.2-0.3-1.8-0.4v4.3h1.2c0.4-1.8,1.2-2.4,2.9-2.4h4.1c0.1,2.6,0.4,7,0.4,11.4v4.8c0,1.8-0.4,2.5-1.8,2.9v0.7
			c1.2,0,2.4-0.2,3.5-0.2c1.2,0,2.3,0.2,3.5,0.2v-0.7c-1.3-0.4-1.9-1.1-1.9-2.9v-6.5c0-3.6,0.2-7,0.2-9.7h3.9c1.8,0,2.7,0.5,2.9,2.4
			h1.2v-4.3c-0.7,0.4-2,0.4-2.9,0.4C110.1,251.1,96.5,251.1,96.5,251.1z M119.7,269.5v-6c0-3.3,0.2-6.9,0.2-9.9c0-1.1,0.2-1.9,1.2-2
			v-0.6c-1.1,0-2.1,0.2-3.2,0.2c-1.1,0-2.1-0.2-3.2-0.2v0.6c1.2,0.2,1.3,1.2,1.3,2.5c0,1.9,0.3,7.3,0.3,11v4.5
			c0,1.3-0.5,2.1-1.5,2.2v0.7c1.1,0,2-0.2,3.2-0.2c1.1,0,2.1,0.2,3.2,0.2v-0.7C120,271.6,119.7,270.6,119.7,269.5z M137,271.6
			c-2.6,0-8.8-1.5-8.8-10.1c0-5.2,2.2-9.4,7.6-9.4c2.6,0,5.6,1.1,6.6,4h1.2l-0.3-4c-2.1-0.5-3.7-1.2-7.7-1.2
			c-6.9,0-11.7,4.7-11.7,10.9c0,5.5,4,11.2,13.1,11.2c2,0,3.5-0.3,6-0.7l1-3.4l-1-0.4C141.7,270.4,139.4,271.6,137,271.6z
			 M161.5,267.9l-6.7-17.2h-0.4l-6.5,16.5c-0.5,1.5-1.8,4.4-2.9,4.6v0.7c0.9,0,1.8-0.2,2.6-0.2c0.9,0,1.8,0.2,2.6,0.2v-0.7
			c-0.7,0-1.1-0.5-1.1-1.3c0-0.4,0.1-1.1,0.3-1.5l0.8-2.7h7.2l1.1,2.8c0.3,0.6,0.4,1.1,0.4,1.6c0,0.7-0.4,1.1-1.1,1.1v0.7
			c1.1,0,2-0.2,3.1-0.2c1.1,0,2,0.2,3.1,0.2v-0.7C162.9,271.6,162.6,270.6,161.5,267.9z M150.8,264.7l2.9-8.1l3.1,8.1H150.8z
			 M174,270.9c-2,0-2.6-0.1-3.3-0.2V260c0-2.8,0.1-4.8,0.1-5.6c0-1.6,0.4-2.4,1.7-2.7v-0.6c-1.2,0-2.3,0.2-3.5,0.2s-2.3-0.2-3.5-0.2
			v0.6c1.2,0.4,1.9,1.1,1.9,2.6v15.6c0,1.1-0.8,1.9-2,1.9v0.7c0.4,0,0.8,0,1.2-0.1c0.4,0,0.8-0.1,1.2-0.1h9.9c0.4,0,1,0,1.5,0.1
			c0.4,0.1,1,0.3,1.5,0.4l1.3-4.3L181,268C180.2,269.9,179.2,270.9,174,270.9z M178.9,263.8h9.5V262h-9.5V263.8z M205.2,271.6
			c-2.6,0-8.8-1.5-8.8-10.1c0-5.2,2.2-9.4,7.6-9.4c2.6,0,5.6,1.1,6.6,4h1.2l-0.3-4c-2.1-0.5-3.7-1.2-7.7-1.2
			c-6.9,0-11.7,4.7-11.7,10.9c0,5.5,4,11.2,13.1,11.2c2,0,3.5-0.3,6-0.7l1-3.4l-1-0.4C209.9,270.4,207.6,271.6,205.2,271.6z
			 M229.8,267.9l-6.7-17.2h-0.4l-6.5,16.5c-0.5,1.5-1.8,4.4-2.9,4.6v0.7c0.9,0,1.8-0.2,2.6-0.2s1.8,0.2,2.6,0.2v-0.7
			c-0.7,0-1.1-0.5-1.1-1.3c0-0.4,0.1-1.1,0.3-1.5l0.8-2.7h7.2l1.1,2.8c0.3,0.6,0.4,1.1,0.4,1.6c0,0.7-0.4,1.1-1.1,1.1v0.7
			c1.1,0,2-0.2,3.1-0.2s2,0.2,3.1,0.2v-0.7C231.1,271.6,230.9,270.6,229.8,267.9z M219,264.7l2.9-8.1l3.1,8.1H219z M249.6,270.1
			l-6.2-7.1c2.7-0.7,5.5-2.7,5.5-5.8c0-3.3-2.7-6.1-8.2-6.1c-2.3,0-3.2,0.2-4.1,0.2c-1,0-2-0.2-2.9-0.2v0.7c1.6,0.4,1.8,1.1,1.8,2.6
			c0,2.6,0.2,5.3,0.2,7.8v7.8c0,1.1-0.4,1.5-1.5,1.8v0.7c1.1,0,2.1-0.2,3.3-0.2c1.1,0,2.1,0.2,3.3,0.2v-0.7
			c-1.6-0.4-1.8-1.2-1.8-2.6v-6.1c0.7,0,1.3,0.8,1.8,1.3l5.1,6c0.4,0.4,0.4,0.7,0.4,1c0,0.3-0.2,0.4-0.4,0.4v0.7c1.1,0,2-0.2,3-0.2
			c1.1,0,2,0.2,3.1,0.2v-0.7C251.2,271.6,250.1,270.6,249.6,270.1z M240,262.2c-0.4,0-0.7-0.1-1.2-0.1l0.2-9.2
			c0-0.8,0.9-0.9,1.7-0.9c3.3,0,4.6,2.6,4.6,5.3C245.3,260.3,242.8,262.2,240,262.2z M263.2,270.9h-5.3v-8.5h4.6
			c1.8,0,2.4,0.2,3,2.2h1.1c0-0.9-0.2-1.8-0.2-2.7c0-0.9,0.2-1.8,0.2-2.7h-1c-0.7,1.5-1.3,1.7-3.1,1.7h-4.6v-8.2h5.3
			c1.7,0,2.4,1.1,2.9,2.6h1.2c0-0.8-0.2-1.5-0.2-2.3c0-0.8,0.2-1.5,0.2-2.3c-0.5,0.2-1.6,0.4-2.4,0.4h-12.1v0.7
			c1,0.2,1.5,0.7,1.5,1.5c0,2.7,0.3,7.1,0.3,11.3v5.2c0,1.1-0.5,1.8-1.8,1.9v0.7h11.7c0.4,0,1,0,1.4,0.1c0.4,0.1,1,0.3,1.4,0.4
			l1.1-3.8l-1-0.4C266.3,270.4,265.5,270.9,263.2,270.9z M294.9,251v0.7c1.5,0.3,2.3,1.1,2.3,4.9v10.6l-15-16.5h-1.2l-0.1,18.2
			c0,1.8-0.7,2.6-1.9,2.9v0.7c1.1,0,2-0.2,3-0.2c1.1,0,2,0.2,3,0.2v-0.7c-1.5-0.4-2.2-1.5-2.2-3.9l-0.2-11.7l15.2,16.6h1.1l0.1-17.3
			c0-2.5,0.6-3.6,2-3.8v-0.6c-1.1,0-2,0.2-3.1,0.2C296.9,251.1,295.8,251,294.9,251z M323.4,269.1v-6.7c0-4,0.1-7.2,0.1-8.4
			c0-1.1,0.4-2.2,1.4-2.3v-0.6c-1.1,0-2.2,0.2-3.3,0.2s-2.2-0.2-3.3-0.2v0.6c0.7,0.1,1.6,0.7,1.6,1.5c0,1.5,0.3,5.2,0.3,8.8v3.6
			c0,3.5-3.2,4.9-5.6,4.9c-4.5,0-6.4-2.9-6.4-7c0-2.9,0-5.8,0-8.7c0-2,0.4-2.8,1.8-3.1v-0.6c-1.1,0-2.2,0.2-3.3,0.2
			s-2.2-0.2-3.3-0.2v0.6c1.2,0.2,1.5,1.2,1.5,2.4c0,1.9,0.2,4,0.2,6.4v5.2c0,4.6,3.6,7.2,8.1,7.2c3.1,0,5-1.2,7.2-3.3
			c-0.1,1-0.2,1.9-0.3,2.9c0.9,0,1.8-0.2,2.6-0.2c0.9,0,1.8,0.2,2.6,0.2v-0.7C323.7,271.6,323.4,270.8,323.4,269.1z M343.2,270.1
			l-6.2-7.1c2.7-0.7,5.5-2.7,5.5-5.8c0-3.3-2.7-6.1-8.2-6.1c-2.3,0-3.2,0.2-4.1,0.2c-1,0-2-0.2-2.9-0.2v0.7c1.6,0.4,1.8,1.1,1.8,2.6
			c0,2.6,0.2,5.3,0.2,7.8v7.8c0,1.1-0.4,1.5-1.5,1.8v0.7c1.1,0,2.1-0.2,3.3-0.2c1.1,0,2.1,0.2,3.3,0.2v-0.7
			c-1.6-0.4-1.8-1.2-1.8-2.6v-6.1c0.7,0,1.3,0.8,1.8,1.3l5.1,6c0.4,0.4,0.4,0.7,0.4,1c0,0.3-0.2,0.4-0.4,0.4v0.7c1.1,0,2-0.2,3-0.2
			c1.1,0,2,0.2,3.1,0.2v-0.7C344.7,271.6,343.6,270.6,343.2,270.1z M333.6,262.2c-0.4,0-0.7-0.1-1.2-0.1l0.2-9.2
			c0-0.8,0.9-0.9,1.7-0.9c3.3,0,4.6,2.6,4.6,5.3C338.8,260.3,336.3,262.2,333.6,262.2z M349.9,255.7c0-2.1,1.9-3.8,4-3.8
			c2.3,0,4.2,1,5,3.3h1.2v-3.3c-1.8-1-3.9-1.2-6-1.2c-3.9,0-7.1,2.6-7.1,6.7c0,8,10.4,4.8,10.4,10.2c0,2.4-1.8,3.9-4.1,3.9
			c-2,0-4.1-1.3-4.6-3.4h-1.1l0.4,3.3c1.1,0.7,3.5,1.4,5.5,1.4c3.6,0,7-2.3,7-6.2C360.4,258.3,349.9,262.2,349.9,255.7z
			 M373.1,270.9h-5.3v-8.5h4.6c1.8,0,2.4,0.2,3,2.2h1.1c0-0.9-0.2-1.8-0.2-2.7c0-0.9,0.2-1.8,0.2-2.7h-1c-0.7,1.5-1.3,1.7-3.1,1.7
			h-4.5v-8.2h5.3c1.7,0,2.4,1.1,2.9,2.6h1.2c0-0.8-0.2-1.5-0.2-2.3c0-0.8,0.2-1.5,0.2-2.3c-0.5,0.2-1.6,0.4-2.4,0.4h-12.1v0.7
			c1,0.2,1.5,0.7,1.5,1.5c0,2.7,0.3,7.1,0.3,11.3v5.2c0,1.1-0.5,1.8-1.8,1.9v0.7h11.7c0.4,0,1,0,1.4,0.1s1,0.3,1.4,0.4l1.1-3.8
			l-1-0.4C376.2,270.4,375.4,270.9,373.1,270.9z M384,255.7c0-2.1,1.9-3.8,4-3.8c2.3,0,4.2,1,5,3.3h1.2v-3.3c-1.8-1-3.9-1.2-6-1.2
			c-3.9,0-7.1,2.6-7.1,6.7c0,8,10.4,4.8,10.4,10.2c0,2.4-1.8,3.9-4.1,3.9c-2,0-4.1-1.3-4.6-3.4h-1.1l0.4,3.3
			c1.1,0.7,3.5,1.4,5.5,1.4c3.6,0,7-2.3,7-6.2C394.4,258.3,384,262.2,384,255.7z"/>
	</g>
</g>
<g>
	<g>
		<path d="M30.9,54.4v-1.1c-1.1,0-1.8-0.9-1.8-1.9c0-0.4,0.1-1.5,0.4-2.3l1.2-4.1h10.9l1.6,4.4c0.4,0.9,0.6,1.8,0.6,2.5
			c0,1.1-0.6,1.8-1.5,1.8v1.1c1.6,0,3.1-0.3,4.8-0.3c1.6,0,3.1,0.3,4.8,0.3v-1.1c-1.8-0.3-2.1-1.8-3.7-5.9L37.9,21.3h-0.6l-9.9,25
			c-0.9,2.2-2.6,6.6-4.5,7v1.1c1.4,0,2.6-0.3,4-0.3C28.2,54.1,29.4,54.4,30.9,54.4z M36.1,30.3l4.8,12.2h-9.2L36.1,30.3z M60.7,54.4
			v-1.1c-1.9-0.4-2.6-1.6-2.6-4c0-0.9,0.1-2.5,0.3-3l0.8-13.8h0.1l13.3,22l10.5-21.6H83L84.2,47c0.1,0.7,0.3,1.8,0.3,3.1
			c0,1.5-0.6,3-2.1,3.3v1.1c1.6,0,3.3-0.3,4.8-0.3c1.6,0,3.3,0.3,4.8,0.3v-1.1c-1.9-0.1-2.5-2.2-2.6-4.5l-2.2-27.5h-1.4L73.4,46.5
			L59.2,21.3h-1.5l-2.3,26.4c-0.4,3.6-0.9,5.1-3,5.5v1.1c1.4,0,2.7-0.3,4.1-0.3C58,54.1,59.4,54.4,60.7,54.4z M109.3,52h-7.9V38.9h7
			c2.6,0,3.6,0.3,4.6,3.3h1.6c0-1.4-0.3-2.6-0.3-4.1c0-1.4,0.3-2.6,0.3-4h-1.5c-1.1,2.3-1.9,2.6-4.8,2.6h-7V24.3h8.2
			c2.6,0,3.7,1.8,4.5,4h1.8c0-1.1-0.3-2.3-0.3-3.4c0-1.1,0.3-2.3,0.3-3.4c-0.8,0.3-2.5,0.7-3.7,0.7H93.8v1.1
			c1.5,0.3,2.3,1.1,2.3,2.2c0,4.1,0.4,10.8,0.4,17.2v7.8c0,1.5-0.9,2.6-2.6,2.9v1.1h17.8c1.5,0,2.9,0.3,4.4,0.7l1.6-5.8l-1.4-0.7
			C114.1,51.4,112.9,52,109.3,52z M122.7,26.7c0,4,0.3,7.9,0.3,12v12c0,1.6-0.7,2.3-2.3,2.6v1.1c1.8,0,3.3-0.3,4.9-0.3
			c1.8,0,3.3,0.3,4.9,0.3v-1.1c-2.5-0.4-2.6-1.9-2.6-4v-9.2c1.1,0,2.1,1.1,2.7,1.9l7.7,9c0.6,0.7,0.7,1.1,0.7,1.5
			c0,0.4-0.3,0.4-0.4,0.6v1.1c1.5,0,3.1-0.3,4.6-0.3c1.5,0,3.1,0.3,4.6,0.3v-1.1c-1.2-0.3-2.9-1.8-3.6-2.6l-9.3-10.9
			c4.1-1.1,8.4-4,8.4-8.8c0-5.1-4-9.2-12.5-9.2c-3.4,0-4.8,0.3-6.2,0.3c-1.5,0-3-0.3-4.5-0.3v1.1C122.5,23.4,122.7,24.5,122.7,26.7z
			 M128.2,24.9c0-1.1,1.2-1.2,2.6-1.2c5.1,0,7,3.8,7,8.1c0,4.4-3.7,7.3-7.9,7.3c-0.6,0-1.1-0.1-1.8-0.1L128.2,24.9z M151.5,26.6
			c0,2.9,0.4,11.2,0.4,16.7V50c0,1.9-0.8,3.3-2.3,3.3v1.1c1.6,0,3.1-0.3,4.8-0.3c1.6,0,3.3,0.3,4.8,0.3v-1.1c-1.8,0-2.3-1.8-2.3-3.3
			v-9.1c0-4.9,0.3-10.4,0.3-15c0-1.6,0.3-2.9,1.9-3.1V22c-1.6,0-3.3,0.3-4.8,0.3s-3.3-0.3-4.8-0.3V23
			C151.2,23.1,151.5,24.6,151.5,26.6z M182.8,55c3,0,5.3-0.4,9.2-1.1l1.5-5.2l-1.5-0.6c-2.1,3.3-5.5,4.8-9.2,4.8
			c-3.8,0-13.4-2.2-13.4-15.3c0-7.8,3.3-14.3,11.4-14.3c4,0,8.5,1.8,10,6.1h1.9l-0.4-6.2c-3.3-0.9-5.6-1.9-11.8-1.9
			c-10.4,0-17.8,7-17.8,16.7C162.9,46.3,169,55,182.8,55z M202.5,54.4v-1.1c-1.1,0-1.8-0.9-1.8-1.9c0-0.4,0.1-1.5,0.4-2.3l1.2-4.1
			h10.9l1.6,4.4c0.4,0.9,0.6,1.8,0.6,2.5c0,1.1-0.6,1.8-1.5,1.8v1.1c1.6,0,3.1-0.3,4.8-0.3c1.6,0,3.1,0.3,4.8,0.3v-1.1
			c-1.8-0.3-2.1-1.8-3.7-5.9l-10.3-26.4h-0.6l-9.9,25c-0.9,2.2-2.6,6.6-4.5,7v1.1c1.4,0,2.6-0.3,4-0.3
			C199.8,54.1,201,54.4,202.5,54.4z M207.7,30.3l4.8,12.2h-9.2L207.7,30.3z M234,54.4v-1.1c-2.2-0.6-3.3-2.2-3.3-5.9l-0.3-17.8
			l23.1,25.2h1.6l0.1-26.3c0-3.8,1.1-5.5,3.1-5.8v-0.9c-1.5,0-3.1,0.3-4.6,0.3c-1.5,0-3.1-0.3-4.6-0.3v1.1c2.2,0.4,3.4,1.8,3.4,7.5
			v16l-22.7-25.2h-1.9l-0.1,27.5c0,2.6-1.1,4-2.9,4.5v1.1c1.5,0,3-0.3,4.6-0.3C231,54.1,232.5,54.4,234,54.4z M126.9,93.1v-1
			c-1.1,0-1.8-0.9-1.8-1.9c0-0.4,0.1-1.5,0.4-2.3l1.2-4.1h10.9l1.6,4.4c0.4,0.9,0.6,1.8,0.6,2.5c0,1.1-0.6,1.8-1.5,1.8v1.1
			c1.6,0,3.1-0.3,4.8-0.3c1.6,0,3.1,0.3,4.8,0.3v-1.1c-1.8-0.3-2.1-1.8-3.7-5.9l-10.1-26.1h-0.7l-9.9,25c-0.9,2.2-2.6,6.6-4.5,7v1.1
			c1.4,0,2.6-0.3,4-0.3C124.3,93,125.5,93.1,126.9,93.1z M132.2,69.2l4.8,12.2h-9.2L132.2,69.2z M165.2,85.9c0,3.6-2.7,5.9-6.2,5.9
			c-3,0-6.2-2.1-7-5.2h-1.8l0.4,5.1c1.5,1.1,5.3,2.2,8.3,2.2c5.5,0,10.7-3.4,10.7-9.4c0-12.6-15.8-6.6-15.8-16.4
			c0-3.3,2.9-5.8,6-5.8c3.4,0,6.3,1.4,7.6,4.9h1.8v-5.1c-2.7-1.5-6-1.8-9.2-1.8c-5.9,0-10.8,4-10.8,10.1
			C149.3,82.4,165.2,77.7,165.2,85.9z M184.5,62.1c3.4,0,6.3,1.4,7.6,4.9h1.8v-5.1c-2.7-1.5-6-1.8-9.2-1.8c-5.9,0-10.8,4-10.8,10.1
			c0,12.1,15.8,7.4,15.8,15.6c0,3.6-2.7,5.9-6.2,5.9c-3,0-6.2-2.1-7-5.2h-1.8l0.4,4.9c1.5,1.1,5.3,2.2,8.3,2.2
			c5.5,0,10.7-3.4,10.7-9.4c0-12.6-15.9-6.6-15.9-16.4C178.3,64.7,181.2,62.1,184.5,62.1z M233.4,76.9c0-10.7-7.3-16.8-18-16.8
			s-18,6.1-18,16.8s7.3,16.8,18,16.8C226.1,93.7,233.4,87.7,233.4,76.9z M215.4,91.8c-7.9,0-11.5-7.1-11.5-14.9S207.6,62,215.4,62
			c7.9,0,11.5,7.1,11.5,14.9S223.3,91.8,215.4,91.8z M236.8,76.7c0,8.4,6.1,17,20,17c3,0,5.3-0.4,9.2-1.1l1.4-5.2l-1.4-0.6
			c-2.1,3.3-5.5,4.8-9.2,4.8c-3.8,0-13.4-2.2-13.4-15.3c0-7.8,3.3-14.3,11.4-14.3c4,0,8.5,1.8,10,6.1h1.9l-0.4-6.2
			c-3.3-0.8-5.6-1.8-11.6-1.8C244.2,60.2,236.8,67.1,236.8,76.7z M272.8,65.4c0,2.9,0.4,11.2,0.4,16.7v6.7c0,1.9-0.8,3.3-2.3,3.3
			v1.1c1.6,0,3.1-0.3,4.8-0.3c1.6,0,3.3,0.3,4.8,0.3v-1.1c-1.8,0-2.3-1.8-2.3-3.3v-9c0-4.9,0.3-10.4,0.3-15c0-1.6,0.3-2.9,1.9-3.1
			v-1.1c-1.6,0-3.3,0.3-4.8,0.3s-3.3-0.3-4.8-0.3v1.1C272.6,61.9,272.8,63.5,272.8,65.4z M291,93.1v-1c-1.1,0-1.8-0.9-1.8-1.9
			c0-0.4,0.1-1.5,0.4-2.3l1.2-4.1h10.9l1.6,4.4c0.4,0.9,0.6,1.8,0.6,2.5c0,1.1-0.6,1.8-1.5,1.8v1.1c1.6,0,3.1-0.3,4.8-0.3
			c1.6,0,3.1,0.3,4.8,0.3v-1.1c-1.8-0.3-2.1-1.8-3.7-5.9l-10.1-26.1h-0.6l-9.9,25c-0.9,2.2-2.6,6.6-4.5,7v1.1c1.4,0,2.6-0.3,4-0.3
			C288.5,93,289.7,93.1,291,93.1z M296.3,69.2l4.8,12.2h-9.2L296.3,69.2z M313.6,63h6.2c0.1,4,0.4,10.6,0.4,17.3v7.3
			c0,2.6-0.7,3.7-2.7,4.4v1.1c1.8,0,3.6-0.3,5.3-0.3c1.8,0,3.6,0.3,5.3,0.3V92c-2.1-0.7-2.9-1.5-2.9-4.4v-9.8
			c0-5.5,0.3-10.7,0.3-14.8h5.9c2.6,0,4,0.8,4.5,3.6h1.8v-6.6c-1.1,0.4-3.1,0.7-4.4,0.7h-20.5c-1.8,0-3.6-0.3-5.5-0.7v6.5h1.8
			C309.5,64,311,63,313.6,63z M341.5,65.4c0,2.9,0.4,11.2,0.4,16.7v6.7c0,1.9-0.8,3.3-2.3,3.3v1.1c1.6,0,3.1-0.3,4.8-0.3
			c1.6,0,3.3,0.3,4.8,0.3v-1.1c-1.8,0-2.3-1.8-2.3-3.3v-9c0-4.9,0.3-10.4,0.3-15c0-1.6,0.3-2.9,1.9-3.1v-1.1c-1.6,0-3.3,0.3-4.8,0.3
			s-3.3-0.3-4.8-0.3v1.1C341.4,61.9,341.5,63.5,341.5,65.4z M371.1,60.2c-10.7,0-18,6.1-18,16.8s7.3,16.8,18,16.8
			c10.7,0,18-6,18-16.8S381.8,60.2,371.1,60.2z M371.1,91.8c-7.9,0-11.5-7.1-11.5-14.9S363.2,62,371.1,62c7.9,0,11.5,7.1,11.5,14.9
			S378.9,91.8,371.1,91.8z M420.5,60.8c-1.5,0-3.1-0.3-4.6-0.3v1.1c2.2,0.4,3.4,1.8,3.4,7.5v16l-22.7-25h-1.9l-0.1,27.5
			c0,2.6-1.1,4-2.9,4.5v1.1c1.5,0,3-0.3,4.6-0.3c1.5,0,3.1,0.3,4.6,0.3v-1.1c-2.2-0.6-3.3-2.2-3.3-5.9l-0.4-17.8l23.1,25.2h1.6
			l0.1-26.3c0-3.8,1.1-5.5,3.1-5.8v-1.1C423.6,60.6,422,60.8,420.5,60.8z M30.1,110.3c0-4.4-2.2-7.4-5.2-7.4
			c-5.5,0-9.2,6.8-9.2,11.9c0,4.4,2.2,7.4,5.2,7.4C26.4,122,30.1,115.4,30.1,110.3z M22.7,120.2c-2.9,0-4-3.3-4-6
			c0-2.6,1.6-9.3,4.8-9.3c2.9,0,4,3.3,4,6S25.7,120.2,22.7,120.2z M33.3,103.1h-2.5l-0.1,1.1h2.6c-0.6,6.6-0.8,11.6-1.8,19.4
			c-0.4,4.2-1.8,5.9-6,5.9c-1.1,0-1.9-0.4-2.7-0.4l1.4,2.5h0.9c7.9,0,9.9-8.8,10.4-15.2c0.4-5.1,0.7-9.2,0.9-11.9h3.3l0.3-1.1h-3.4
			c1.1-13.1,1.6-13.7,4-13.7c1.8,0,2.6,1.1,3.3,1.9v-3.4c-0.8-0.4-1.8-0.4-2.2-0.4C34.2,87.5,33.9,97.9,33.3,103.1z M65.6,131.6
			c-3.8,0-13.4-2.2-13.4-15.3c0-7.8,3.3-14.3,11.4-14.3c4,0,8.5,1.8,10,6.1h1.9l-0.4-6.2c-3.3-0.8-5.6-1.8-11.6-1.8
			c-10.4,0-17.8,7-17.8,16.7c0,8.4,6.1,17,20,17c3,0,5.3-0.4,9.2-1.1l1.5-5.2l-1.5-0.6C72.7,130.1,69.4,131.6,65.6,131.6z
			 M102,129.4l-9.4-10.9c4.1-1.1,8.4-4,8.4-8.8c0-5.1-4-9.2-12.5-9.2c-3.4,0-4.8,0.3-6.2,0.3c-1.5,0-3-0.3-4.5-0.3v1.1
			c2.2,0.4,2.5,1.8,2.5,4c0,4,0.3,7.9,0.3,12v12c0,1.6-0.7,2.3-2.3,2.6v1.1c1.8,0,3.3-0.3,4.9-0.3c1.7,0,3.3,0.3,4.9,0.3v-1.1
			c-2.5-0.4-2.6-1.9-2.6-4v-9.2c1.1,0,2.1,1.1,2.7,1.9l7.7,9c0.6,0.7,0.7,1.1,0.7,1.5c0,0.4-0.3,0.4-0.4,0.6v1.1
			c1.5,0,3.1-0.3,4.6-0.3c1.5,0,3.1,0.3,4.6,0.3v-1.1C104.3,131.9,102.7,130.2,102,129.4z M87.3,117.6c-0.6,0-1.1-0.1-1.8-0.1
			l0.3-14c0-1.1,1.2-1.2,2.6-1.2c5.1,0,7,3.8,7,8.1C95.4,114.8,91.7,117.6,87.3,117.6z M114,128.6v-9c0-4.9,0.3-10.4,0.3-15
			c0-1.6,0.3-2.9,1.9-3.1v-1.1c-1.6,0-3.3,0.3-4.8,0.3c-1.6,0-3.3-0.3-4.8-0.3v1.1c1.9,0.3,2.1,1.8,2.1,3.7c0,2.9,0.4,11.2,0.4,16.7
			v6.7c0,1.9-0.8,3.3-2.3,3.3v1.1c1.6,0,3.1-0.3,4.8-0.3c1.6,0,3.3,0.3,4.8,0.3v-1.1C114.5,132,114,130.2,114,128.6z M124,103h6.2
			c0.1,4,0.4,10.6,0.4,17.3v7.3c0,2.6-0.7,3.7-2.7,4.4v1.1c1.8,0,3.6-0.3,5.3-0.3c1.8,0,3.6,0.3,5.3,0.3v-1.1
			c-2.1-0.7-2.9-1.5-2.9-4.4v-10c0-5.5,0.3-10.7,0.3-14.8h5.9c2.6,0,4,0.8,4.5,3.6h1.8v-6.6c-1.1,0.4-3.1,0.7-4.4,0.7h-20.4
			c-1.8,0-3.6-0.3-5.5-0.7v6.7h1.8C119.9,103.8,121.2,103,124,103z M159.2,132.1c-1.8,0-2.3-1.8-2.3-3.3v-9c0-4.9,0.3-10.4,0.3-15
			c0-1.6,0.3-2.9,1.9-3.1v-1.1c-1.6,0-3.3,0.3-4.8,0.3s-3.3-0.3-4.8-0.3v1.1c1.9,0.3,2.1,1.8,2.1,3.7c0,2.9,0.4,11.2,0.4,16.7v6.7
			c0,1.9-0.8,3.3-2.3,3.3v1.1c1.6,0,3.1-0.3,4.8-0.3c1.6,0,3.3,0.3,4.8,0.3v-1.1L159.2,132.1L159.2,132.1z M190.9,126.8
			c-2.1,3.3-5.5,4.8-9.2,4.8c-3.8,0-13.4-2.2-13.4-15.3c0-7.8,3.3-14.3,11.4-14.3c4,0,8.5,1.8,10,6.1h1.9l-0.4-6.2
			c-3.3-0.8-5.6-1.8-11.6-1.8c-10.4,0-17.8,7-17.8,16.7c0,8.4,6.1,17,20,17c3,0,5.3-0.4,9.2-1.1l1.5-5.2L190.9,126.8z M211.5,132.1
			v1.1c1.6,0,3.1-0.3,4.8-0.3s3.1,0.3,4.8,0.3v-1.1c-1.8-0.3-2.1-1.8-3.7-5.9L207.2,100h-0.6l-10,25c-0.9,2.2-2.6,6.6-4.5,7v1.1
			c1.4,0,2.6-0.3,4-0.3s2.6,0.3,4,0.3v-1.1c-1.1,0-1.8-0.9-1.8-1.9c0-0.4,0.1-1.5,0.4-2.3l1.2-4.1h10.9l1.6,4.4
			c0.4,0.9,0.6,1.8,0.6,2.5C213.1,131.4,212.5,132.1,211.5,132.1z M200.9,121.3l4.5-12.2l4.8,12.2H200.9z M248,127.1l-1.8-0.8
			c-1.1,3-2.6,4.4-10.6,4.4c-3,0-4-0.1-4.9-0.3v-16.1c0-4.1,0.1-7.1,0.1-8.5c0-2.5,0.6-3.6,2.6-4.1v-1.1c-1.8,0-3.6,0.3-5.3,0.3
			s-3.4-0.3-5.3-0.3v1.1c1.8,0.4,2.9,1.8,2.9,4v23.5c0,1.6-1.2,2.9-3.1,2.9v1.1c1.1,0,2.5-0.3,3.6-0.3h15.2c1.5,0,3,0.3,4.5,0.7
			L248,127.1z M256.6,122.7v-2.7h-10.4v2.7H256.6z M278.7,102c4,0,8.5,1.8,10,6.1h1.9l-0.4-6.2c-3.3-0.8-5.6-1.8-11.6-1.8
			c-10.4,0-17.8,7-17.8,16.7c0,8.4,6.1,17,20,17c3,0,5.3-0.4,9.2-1.1l1.4-5.2l-1.4-0.6c-2.1,3.3-5.5,4.8-9.2,4.8
			s-13.4-2.2-13.4-15.3C267.2,108.5,270.6,102,278.7,102z M315.7,126.2L305.5,100h-0.6l-9.9,25c-0.9,2.2-2.6,6.6-4.5,7v1.1
			c1.4,0,2.6-0.3,4-0.3c1.4,0,2.6,0.3,4,0.3v-1.1c-1.1,0-1.8-0.9-1.8-1.9c0-0.4,0.1-1.5,0.4-2.3l1.2-4.1h10.9l1.6,4.4
			c0.4,0.9,0.6,1.8,0.6,2.5c0,1.1-0.6,1.8-1.5,1.8v1.1c1.6,0,3.1-0.3,4.8-0.3s3.1,0.3,4.8,0.3v-1.1
			C317.7,131.9,317.3,130.4,315.7,126.2z M299.3,121.3l4.5-12.2l4.8,12.2H299.3z M344.4,129.4l-9.3-10.9c4.1-1.1,8.4-4,8.4-8.8
			c0-5.1-4-9.2-12.5-9.2c-3.4,0-4.8,0.3-6.2,0.3c-1.5,0-3-0.3-4.5-0.3v1.1c2.5,0.4,2.6,1.6,2.6,3.8c0,4,0.3,7.9,0.3,12v12
			c0,1.6-0.7,2.3-2.3,2.6v1.1c1.8,0,3.3-0.3,4.9-0.3c1.8,0,3.3,0.3,4.9,0.3v-1.1c-2.5-0.4-2.6-1.9-2.6-4v-9.2c1.1,0,2.1,1.1,2.7,1.9
			l7.7,9c0.6,0.7,0.7,1.1,0.7,1.5c0,0.4-0.3,0.4-0.4,0.6v1.1c1.5,0,3.1-0.3,4.6-0.3c1.5,0,3.1,0.3,4.6,0.3v-1.1
			C346.7,131.9,345.1,130.2,344.4,129.4z M329.9,117.6c-0.6,0-1.1-0.1-1.8-0.1l0.3-14c0-1.1,1.2-1.2,2.6-1.2c5.1,0,7,3.8,7,8.1
			C337.8,114.8,334.1,117.6,329.9,117.6z M364.5,130.6h-7.9v-13h7c2.6,0,3.6,0.3,4.6,3.3h1.6c0-1.4-0.3-2.6-0.3-4.1
			c0-1.4,0.3-2.6,0.3-4h-1.5c-1.1,2.3-1.9,2.6-4.8,2.6h-7V103h8.2c2.6,0,3.7,1.8,4.5,4h1.8c0-1.1-0.3-2.3-0.3-3.4s0.3-2.3,0.3-3.4
			c-0.8,0.3-2.5,0.7-3.7,0.7H349v1.1c1.4,0.3,2.3,1.1,2.3,2.2c0,4.1,0.4,10.8,0.4,17.2v7.8c0,1.5-0.9,2.6-2.6,2.9v1.1h17.8
			c1.5,0,2.9,0.3,4.4,0.7l1.6-5.8l-1.5-0.7C369.2,130.1,367.9,130.6,364.5,130.6z M144.4,141.6v1.1c2.2,0.4,3.4,1.8,3.4,7.5v16
			l-22.7-25h-1.9l-0.1,27.5c0,2.6-1.1,4-2.9,4.5v1.1c1.5,0,3-0.3,4.6-0.3c1.5,0,3.1,0.3,4.6,0.3v-1.1c-2.2-0.6-3.3-2.2-3.3-5.9
			l-0.3-17.8l23.1,25.2h1.6l0.1-26.3c0-3.8,1.1-5.5,3.1-5.8v-1.1c-1.5,0-3.1,0.3-4.6,0.3C147.5,141.8,146,141.6,144.4,141.6z
			 M185.8,169v-10.1c0-6.1,0.1-10.9,0.1-12.8c0-1.6,0.7-3.3,2.2-3.4v-1.1c-1.8,0-3.3,0.3-5.1,0.3c-1.8,0-3.3-0.3-5.1-0.3v1.1
			c1.1,0.1,2.5,1.1,2.5,2.3c0,2.3,0.4,7.8,0.4,13.3v5.5c0,5.3-4.8,7.5-8.5,7.5c-7,0-9.8-4.4-9.8-10.6c0-4.4,0-8.9,0-13.3
			c0-3,0.4-4.4,2.6-4.6v-1.1c-1.8,0-3.3,0.3-5.1,0.3s-3.3-0.3-5.1-0.3v1.1c1.9,0.3,2.3,1.8,2.3,3.6c0,2.9,0.3,6.1,0.3,9.7v7.7
			c0,7,5.5,10.9,12.3,10.9c4.8,0,7.6-1.8,11.1-4.9c-0.1,1.4-0.3,2.9-0.4,4.4c1.2,0,2.6-0.3,4-0.3c1.2,0,2.6,0.3,4,0.3v-1.1
			C186.4,172.9,185.8,171.5,185.8,169z M215.9,170.5l-9.3-10.9c4.1-1.1,8.4-4,8.4-8.8c0-5.1-4-9.2-12.5-9.2c-3.4,0-4.8,0.3-6.2,0.3
			c-1.5,0-3-0.3-4.5-0.3v1.1c2.5,0.4,2.6,1.6,2.6,3.8c0,4,0.3,7.9,0.3,12v12c0,1.6-0.7,2.3-2.3,2.6v1.1c1.8,0,3.3-0.3,4.9-0.3
			c1.8,0,3.3,0.3,4.9,0.3V173c-2.5-0.4-2.6-1.9-2.6-4v-9.2c1.1,0,2.1,1.1,2.7,1.9l7.7,9c0.6,0.7,0.7,1.1,0.7,1.5
			c0,0.4-0.3,0.4-0.4,0.6v1.1c1.5,0,3.1-0.3,4.6-0.3c1.5,0,3.1,0.3,4.6,0.3v-1.1C218.3,172.8,216.6,171.3,215.9,170.5z M201.3,158.7
			c-0.6,0-1.1-0.1-1.8-0.1l0.3-14c0-1.1,1.2-1.2,2.6-1.2c5.1,0,7,3.8,7,8.1C209.2,155.7,205.5,158.7,201.3,158.7z M224.4,148.8
			c0-3.3,2.9-5.8,6-5.8c3.4,0,6.3,1.4,7.6,4.9h1.8v-5.1c-2.7-1.5-6-1.8-9.2-1.8c-5.9,0-10.8,4-10.8,10.1c0,12.1,15.8,7.4,15.8,15.6
			c0,3.6-2.7,5.9-6.2,5.9c-3,0-6.2-2.1-7-5.2h-1.8l0.4,4.9c1.5,1.1,5.3,2.2,8.3,2.2c5.5,0,10.7-3.4,10.7-9.4
			C240.1,152.6,224.4,158.7,224.4,148.8z M259,171.7h-7.9v-13h7c2.6,0,3.6,0.3,4.6,3.3h1.6c0-1.4-0.3-2.6-0.3-4.1
			c0-1.4,0.3-2.6,0.3-4h-1.5c-1.1,2.3-1.9,2.6-4.8,2.6h-7V144h8.2c2.6,0,3.7,1.8,4.5,4h1.8c0-1.1-0.3-2.3-0.3-3.4
			c0-1.1,0.3-2.3,0.3-3.4c-0.8,0.3-2.5,0.7-3.7,0.7h-18.3v1.1c1.4,0.3,2.3,1.1,2.3,2.2c0,4.1,0.4,10.8,0.4,17.2v7.8
			c0,1.5-0.9,2.6-2.6,2.9v1.1h17.9c1.5,0,2.9,0.3,4.4,0.7l1.6-5.8l-1.4-0.7C263.8,171.1,262.6,171.7,259,171.7z M275.1,148.8
			c0-3.3,2.9-5.8,6-5.8c3.4,0,6.3,1.4,7.6,4.9h1.8v-5.1c-2.7-1.5-6-1.8-9.2-1.8c-5.9,0-10.8,4-10.8,10.1c0,12.1,15.8,7.4,15.8,15.6
			c0,3.6-2.7,5.9-6.2,5.9c-3,0-6.2-2.1-7-5.2h-1.8l0.4,4.9c1.5,1.1,5.3,2.2,8.3,2.2c5.5,0,10.7-3.4,10.7-9.4
			C290.9,152.6,275.1,158.7,275.1,148.8z"/>
	</g>
</g>
</svg>
