<svg xmlns="http://www.w3.org/2000/svg" xmlns:xlink="http://www.w3.org/1999/xlink" viewBox="0 0 458.23 72.7"><defs><linearGradient id="linear-gradient" x1="86.95" y1="47.72" x2="458.23" y2="47.72" gradientUnits="userSpaceOnUse"><stop offset="0" stop-color="#5e007f"/><stop offset="0.5" stop-color="#a400d4"/><stop offset="1" stop-color="#1b00d4"/></linearGradient><linearGradient id="linear-gradient-14" x1="-3.2" y1="33.26" x2="72.9" y2="33.26" xlink:href="#linear-gradient"/><linearGradient id="linear-gradient-15" x1="38.81" y1="4.99" x2="38.81" y2="58.82" xlink:href="#linear-gradient"/></defs><g id="Layer_2" data-name="Layer 2"><g id="Layer_1-2" data-name="Layer 1"><path d="M87,34.72h5.23l.49,3.71h.18c2.3-2.4,4.94-4.37,8.35-4.37,4,0,6.26,1.81,7.51,4.87,2.6-2.77,5.3-4.87,8.75-4.87,5.74,0,8.4,3.94,8.4,10.81V61.93h-6.38V45.69c0-4.48-1.33-6.16-4.19-6.16-1.73,0-3.59,1.11-5.69,3.39v19h-6.38V45.69c0-4.48-1.33-6.16-4.19-6.16-1.69,0-3.59,1.11-5.7,3.39v19H87Z" fill="#fff"/><path d="M131.86,48.35c0-8.84,6.13-14.29,12.54-14.29,7.35,0,11.23,5.32,11.23,12.92a16.09,16.09,0,0,1-.28,3.1H138.08c.53,4.83,3.63,7.57,8,7.57a11.63,11.63,0,0,0,6.32-2l2.17,4a16.91,16.91,0,0,1-9.33,3C137.75,62.6,131.86,57.32,131.86,48.35Zm18.25-2.62c0-4.18-1.86-6.73-5.58-6.73-3.17,0-6,2.37-6.52,6.73Z" fill="#fff"/><path d="M160.07,48.35c0-8.86,5.56-14.29,11.52-14.29,3.08,0,5,1.15,7.14,3l-.25-4.39V22.8h6.38V61.93h-5.22l-.49-3H179a11.4,11.4,0,0,1-7.73,3.62C164.46,62.6,160.07,57.32,160.07,48.35Zm18.41,5.91V41.59a8,8,0,0,0-5.54-2.26c-3.45,0-6.31,3.28-6.31,9,0,5.92,2.26,9,6.18,9C174.92,57.32,176.69,56.39,178.48,54.26Z" fill="#fff"/><path d="M192.24,26.35A4,4,0,1,1,196.19,30,3.65,3.65,0,0,1,192.24,26.35Zm.74,8.37h6.38V61.93H193Z" fill="#fff"/><path d="M206,54.62c0-5.83,4.83-8.86,16-10.06-.09-2.92-1.26-5.36-4.94-5.36-2.7,0-5.25,1.22-7.64,2.68l-2.35-4.25a21.16,21.16,0,0,1,11.17-3.57c6.8,0,10.14,4.19,10.14,11.76V61.93h-5.23l-.48-3h-.18c-2.44,2.08-5.23,3.68-8.44,3.68A7.63,7.63,0,0,1,206,54.62Zm16,0V48.53c-7.37.93-9.83,2.85-9.83,5.6,0,2.41,1.63,3.46,3.92,3.46S220,56.5,222,54.64Z" fill="#fff"/><path d="M246.84,51.78V34.72h6.38V51c0,4.48,1.29,6.16,4.23,6.16,2.4,0,4-1.11,6-3.76V34.72h6.38V61.93h-5.23l-.49-4H264c-2.4,2.84-5,4.68-8.76,4.68C249.39,62.6,246.84,58.65,246.84,51.78Z" fill="#fff"/><path d="M278,34.72h5.23l.48,2.91h.18c2.3-2,5.21-3.57,8.2-3.57,6.8,0,10.7,5.45,10.7,13.85,0,9.3-5.56,14.69-11.61,14.69a10.87,10.87,0,0,1-7-3l.2,4.52V72.7H278ZM296.18,48c0-5.43-1.77-8.64-5.91-8.64-2,0-3.84,1-5.94,3.06V55.06a8.5,8.5,0,0,0,5.45,2.26C293.41,57.32,296.18,54.13,296.18,48Z" fill="#fff"/><path d="M308.86,54.93V22.8h6.38V55.26c0,1.57.71,2.13,1.37,2.13a3.78,3.78,0,0,0,1-.11l.8,4.76a9,9,0,0,1-3.37.56C310.52,62.6,308.86,59.67,308.86,54.93Z" fill="#fff"/><path d="M322.08,48.35c0-9.06,6.16-14.29,12.94-14.29S348,39.29,348,48.35,341.79,62.6,335,62.6,322.08,57.37,322.08,48.35Zm19.32,0c0-5.45-2.4-9.08-6.38-9.08s-6.39,3.63-6.39,9.08,2.4,9,6.39,9S341.4,53.8,341.4,48.35Z" fill="#fff"/><path d="M352.15,54.62c0-5.83,4.83-8.86,16-10.06-.09-2.92-1.26-5.36-4.94-5.36-2.7,0-5.25,1.22-7.64,2.68l-2.35-4.25a21.13,21.13,0,0,1,11.16-3.57c6.81,0,10.15,4.19,10.15,11.76V61.93H369.3l-.48-3h-.18c-2.44,2.08-5.23,3.68-8.44,3.68A7.63,7.63,0,0,1,352.15,54.62Zm16,0V48.53c-7.38.93-9.84,2.85-9.84,5.6,0,2.41,1.64,3.46,3.93,3.46S366.13,56.5,368.15,54.64Z" fill="#fff"/><path d="M380.54,48.35c0-8.86,5.56-14.29,11.52-14.29,3.08,0,5,1.15,7.13,3L399,32.66V22.8h6.38V61.93H400.1l-.49-3h-.17a11.4,11.4,0,0,1-7.74,3.62C384.92,62.6,380.54,57.32,380.54,48.35ZM399,54.26V41.59a8,8,0,0,0-5.54-2.26c-3.46,0-6.31,3.28-6.31,9,0,5.92,2.26,9,6.18,9C395.38,57.32,397.15,56.39,399,54.26Z" fill="#fff"/><path d="M411.65,48.35c0-8.84,6.13-14.29,12.54-14.29,7.35,0,11.23,5.32,11.23,12.92a16.09,16.09,0,0,1-.28,3.1H417.87c.53,4.83,3.64,7.57,8,7.57a11.63,11.63,0,0,0,6.32-2l2.17,4a16.88,16.88,0,0,1-9.33,3C417.54,62.6,411.65,57.32,411.65,48.35Zm18.25-2.62c0-4.18-1.86-6.73-5.58-6.73-3.17,0-6,2.37-6.51,6.73Z" fill="#fff"/><path d="M441.53,34.72h5.22l.49,4.86h.18c1.94-3.55,4.82-5.52,7.73-5.52a7,7,0,0,1,3.08.55l-1.11,5.54a9.38,9.38,0,0,0-2.79-.44c-2.17,0-4.78,1.48-6.42,5.63V61.93h-6.38Z" fill="#fff"/><path d="M87,34.72h5.23l.49,3.71h.18c2.3-2.4,4.94-4.37,8.35-4.37,4,0,6.26,1.81,7.51,4.87,2.6-2.77,5.3-4.87,8.75-4.87,5.74,0,8.4,3.94,8.4,10.81V61.93h-6.38V45.69c0-4.48-1.33-6.16-4.19-6.16-1.73,0-3.59,1.11-5.69,3.39v19h-6.38V45.69c0-4.48-1.33-6.16-4.19-6.16-1.69,0-3.59,1.11-5.7,3.39v19H87Z" fill="url(#linear-gradient)"/><path d="M131.86,48.35c0-8.84,6.13-14.29,12.54-14.29,7.35,0,11.23,5.32,11.23,12.92a16.09,16.09,0,0,1-.28,3.1H138.08c.53,4.83,3.63,7.57,8,7.57a11.63,11.63,0,0,0,6.32-2l2.17,4a16.91,16.91,0,0,1-9.33,3C137.75,62.6,131.86,57.32,131.86,48.35Zm18.25-2.62c0-4.18-1.86-6.73-5.58-6.73-3.17,0-6,2.37-6.52,6.73Z" fill="url(#linear-gradient)"/><path d="M160.07,48.35c0-8.86,5.56-14.29,11.52-14.29,3.08,0,5,1.15,7.14,3l-.25-4.39V22.8h6.38V61.93h-5.22l-.49-3H179a11.4,11.4,0,0,1-7.73,3.62C164.46,62.6,160.07,57.32,160.07,48.35Zm18.41,5.91V41.59a8,8,0,0,0-5.54-2.26c-3.45,0-6.31,3.28-6.31,9,0,5.92,2.26,9,6.18,9C174.92,57.32,176.69,56.39,178.48,54.26Z" fill="url(#linear-gradient)"/><path d="M192.24,26.35A4,4,0,1,1,196.19,30,3.65,3.65,0,0,1,192.24,26.35Zm.74,8.37h6.38V61.93H193Z" fill="url(#linear-gradient)"/><path d="M206,54.62c0-5.83,4.83-8.86,16-10.06-.09-2.92-1.26-5.36-4.94-5.36-2.7,0-5.25,1.22-7.64,2.68l-2.35-4.25a21.16,21.16,0,0,1,11.17-3.57c6.8,0,10.14,4.19,10.14,11.76V61.93h-5.23l-.48-3h-.18c-2.44,2.08-5.23,3.68-8.44,3.68A7.63,7.63,0,0,1,206,54.62Zm16,0V48.53c-7.37.93-9.83,2.85-9.83,5.6,0,2.41,1.63,3.46,3.92,3.46S220,56.5,222,54.64Z" fill="url(#linear-gradient)"/><path d="M246.84,51.78V34.72h6.38V51c0,4.48,1.29,6.16,4.23,6.16,2.4,0,4-1.11,6-3.76V34.72h6.38V61.93h-5.23l-.49-4H264c-2.4,2.84-5,4.68-8.76,4.68C249.39,62.6,246.84,58.65,246.84,51.78Z" fill="url(#linear-gradient)"/><path d="M278,34.72h5.23l.48,2.91h.18c2.3-2,5.21-3.57,8.2-3.57,6.8,0,10.7,5.45,10.7,13.85,0,9.3-5.56,14.69-11.61,14.69a10.87,10.87,0,0,1-7-3l.2,4.52V72.7H278ZM296.18,48c0-5.43-1.77-8.64-5.91-8.64-2,0-3.84,1-5.94,3.06V55.06a8.5,8.5,0,0,0,5.45,2.26C293.41,57.32,296.18,54.13,296.18,48Z" fill="url(#linear-gradient)"/><path d="M308.86,54.93V22.8h6.38V55.26c0,1.57.71,2.13,1.37,2.13a3.78,3.78,0,0,0,1-.11l.8,4.76a9,9,0,0,1-3.37.56C310.52,62.6,308.86,59.67,308.86,54.93Z" fill="url(#linear-gradient)"/><path d="M322.08,48.35c0-9.06,6.16-14.29,12.94-14.29S348,39.29,348,48.35,341.79,62.6,335,62.6,322.08,57.37,322.08,48.35Zm19.32,0c0-5.45-2.4-9.08-6.38-9.08s-6.39,3.63-6.39,9.08,2.4,9,6.39,9S341.4,53.8,341.4,48.35Z" fill="url(#linear-gradient)"/><path d="M352.15,54.62c0-5.83,4.83-8.86,16-10.06-.09-2.92-1.26-5.36-4.94-5.36-2.7,0-5.25,1.22-7.64,2.68l-2.35-4.25a21.13,21.13,0,0,1,11.16-3.57c6.81,0,10.15,4.19,10.15,11.76V61.93H369.3l-.48-3h-.18c-2.44,2.08-5.23,3.68-8.44,3.68A7.63,7.63,0,0,1,352.15,54.62Zm16,0V48.53c-7.38.93-9.84,2.85-9.84,5.6,0,2.41,1.64,3.46,3.93,3.46S366.13,56.5,368.15,54.64Z" fill="url(#linear-gradient)"/><path d="M380.54,48.35c0-8.86,5.56-14.29,11.52-14.29,3.08,0,5,1.15,7.13,3L399,32.66V22.8h6.38V61.93H400.1l-.49-3h-.17a11.4,11.4,0,0,1-7.74,3.62C384.92,62.6,380.54,57.32,380.54,48.35ZM399,54.26V41.59a8,8,0,0,0-5.54-2.26c-3.46,0-6.31,3.28-6.31,9,0,5.92,2.26,9,6.18,9C395.38,57.32,397.15,56.39,399,54.26Z" fill="url(#linear-gradient)"/><path d="M411.65,48.35c0-8.84,6.13-14.29,12.54-14.29,7.35,0,11.23,5.32,11.23,12.92a16.09,16.09,0,0,1-.28,3.1H417.87c.53,4.83,3.64,7.57,8,7.57a11.63,11.63,0,0,0,6.32-2l2.17,4a16.88,16.88,0,0,1-9.33,3C417.54,62.6,411.65,57.32,411.65,48.35Zm18.25-2.62c0-4.18-1.86-6.73-5.58-6.73-3.17,0-6,2.37-6.51,6.73Z" fill="url(#linear-gradient)"/><path d="M441.53,34.72h5.22l.49,4.86h.18c1.94-3.55,4.82-5.52,7.73-5.52a7,7,0,0,1,3.08.55l-1.11,5.54a9.38,9.38,0,0,0-2.79-.44c-2.17,0-4.78,1.48-6.42,5.63V61.93h-6.38Z" fill="url(#linear-gradient)"/><path d="M68.62,2.59,33.37,5.88,16.89,7.24c-5.41.35-10.76.65-16.09.93L6.66,2.31c.3,5.14.41,10.28.57,15.43l.46,15.43L8,64,.8,56.83l17,.16,8.51.09,4.25,0,4.26.13,17,.5,4.26.13,4.26.2,8.51.41L63.37,64c.25-4.82.5-9.64.94-14.55s.78-9.85,1.28-14.93L67.09,19l.76-8.07Q68.26,6.78,68.62,2.59ZM69.18,2l.31,62v.59H68.9L.8,64.82H0V64L.19,2.31V1.7H.8Z" fill="url(#linear-gradient-14)"/><path d="M59.92,31.9c-1.89,1.72-4.05,3.92-6.61,6.41a95.9,95.9,0,0,1-8.84,7.51q-4,3.12-8,6c-2.71,2-5.47,3.85-8.24,5.72L19,63.83,18.32,51.9c-.18-3.34-.38-6.67-.46-10s-.11-6.66-.16-10,0-6.66.17-10,.28-6.66.46-10L19,0l9.2,6.23C31,8.1,33.71,10,36.42,12s5.4,4,8,6.06c1.6,1.2,3.16,2.45,4.65,3.72s2.86,2.56,4.16,3.78C55.87,28,58,30.19,59.92,31.9Zm-.8,0-8.71-4.73c-2.88-1.55-5.7-3.11-8.51-4.72L24.54,12.53l1.07-.62.09,20-.09,20-1.07-.62L41.9,41.36c2.81-1.62,5.63-3.17,8.51-4.72Z" fill="url(#linear-gradient-15)"/></g></g></svg>