<svg xmlns="http://www.w3.org/2000/svg" xmlns:xlink="http://www.w3.org/1999/xlink" viewBox="0 0 457.93 71.95"><defs><linearGradient id="linear-gradient" x1="86.65" y1="46.97" x2="457.93" y2="46.97" gradientUnits="userSpaceOnUse"><stop offset="0" stop-color="#5e007f"/><stop offset="0.5" stop-color="#a400d4"/><stop offset="1" stop-color="#1b00d4"/></linearGradient><linearGradient id="linear-gradient-14" x1="-2" y1="32.48" x2="71.1" y2="32.48" xlink:href="#linear-gradient"/><linearGradient id="linear-gradient-15" x1="36.17" y1="2.84" x2="36.17" y2="58.42" xlink:href="#linear-gradient"/></defs><g id="Layer_2" data-name="Layer 2"><g id="Layer_1-2" data-name="Layer 1"><path d="M86.65,34h5.23l.49,3.71h.18c2.3-2.4,4.94-4.37,8.35-4.37,4,0,6.26,1.81,7.51,4.87,2.6-2.77,5.3-4.87,8.75-4.87,5.74,0,8.4,3.94,8.4,10.81V61.19h-6.38V45c0-4.48-1.33-6.16-4.19-6.16-1.73,0-3.59,1.11-5.69,3.39v19h-6.39V45c0-4.48-1.32-6.16-4.18-6.16-1.69,0-3.59,1.11-5.7,3.39v19H86.65Z" fill="#fff"/><path d="M131.55,47.61c0-8.84,6.14-14.29,12.54-14.29,7.36,0,11.24,5.31,11.24,12.91a16.76,16.76,0,0,1-.28,3.1H137.78c.53,4.83,3.63,7.58,8,7.58a11.58,11.58,0,0,0,6.31-2l2.18,4a16.86,16.86,0,0,1-9.33,3C137.45,61.85,131.55,56.58,131.55,47.61ZM149.81,45c0-4.19-1.86-6.73-5.58-6.73-3.17,0-6,2.37-6.52,6.73Z" fill="#fff"/><path d="M159.77,47.61c0-8.87,5.56-14.29,11.52-14.29,3.08,0,5,1.15,7.14,3l-.25-4.39V22.06h6.38V61.19h-5.23l-.48-2.95h-.18a11.39,11.39,0,0,1-7.73,3.61C164.16,61.85,159.77,56.58,159.77,47.61Zm18.41,5.91V40.85a8,8,0,0,0-5.54-2.26c-3.45,0-6.31,3.28-6.31,8.95,0,5.91,2.26,9,6.18,9C174.62,56.58,176.39,55.65,178.18,53.52Z" fill="#fff"/><path d="M191.94,25.61a4,4,0,1,1,3.95,3.61A3.66,3.66,0,0,1,191.94,25.61Zm.74,8.37h6.38V61.19h-6.38Z" fill="#fff"/><path d="M205.73,53.88c0-5.83,4.83-8.87,16-10.06-.09-2.93-1.26-5.36-4.94-5.36a14.94,14.94,0,0,0-7.64,2.68l-2.35-4.26A21.24,21.24,0,0,1,218,33.32c6.8,0,10.14,4.18,10.14,11.76V61.19h-5.23l-.48-3h-.18c-2.44,2.09-5.23,3.68-8.44,3.68A7.61,7.61,0,0,1,205.73,53.88Zm16,0V47.78c-7.38.93-9.83,2.86-9.83,5.61,0,2.4,1.63,3.45,3.92,3.45S219.71,55.76,221.72,53.9Z" fill="#fff"/><path d="M246.54,51V34h6.38V50.22c0,4.48,1.28,6.16,4.23,6.16,2.39,0,4-1.11,6-3.77V34h6.38V61.19h-5.23l-.49-4h-.17c-2.4,2.83-5,4.67-8.76,4.67C249.09,61.85,246.54,57.91,246.54,51Z" fill="#fff"/><path d="M277.65,34h5.23l.48,2.9h.18c2.29-2,5.21-3.56,8.2-3.56,6.8,0,10.7,5.45,10.7,13.84,0,9.31-5.56,14.69-11.61,14.69a10.84,10.84,0,0,1-7-3l.2,4.52V72h-6.38Zm18.23,13.25c0-5.43-1.77-8.64-5.91-8.64-2,0-3.84,1-5.94,3.06V54.32a8.5,8.5,0,0,0,5.45,2.26C293.11,56.58,295.88,53.39,295.88,47.23Z" fill="#fff"/><path d="M308.56,54.19V22.06h6.38V54.52c0,1.57.71,2.13,1.37,2.13a3.48,3.48,0,0,0,1-.12l.8,4.77a9,9,0,0,1-3.37.55C310.22,61.85,308.56,58.93,308.56,54.19Z" fill="#fff"/><path d="M321.77,47.61c0-9.07,6.16-14.29,12.94-14.29s12.94,5.22,12.94,14.29-6.16,14.24-12.94,14.24S321.77,56.62,321.77,47.61Zm19.33,0c0-5.46-2.4-9.09-6.39-9.09s-6.38,3.63-6.38,9.09,2.4,9,6.38,9S341.1,53.06,341.1,47.61Z" fill="#fff"/><path d="M351.85,53.88c0-5.83,4.83-8.87,16-10.06-.09-2.93-1.26-5.36-4.94-5.36a14.94,14.94,0,0,0-7.64,2.68l-2.35-4.26a21.21,21.21,0,0,1,11.16-3.56c6.81,0,10.15,4.18,10.15,11.76V61.19H369l-.49-3h-.17c-2.44,2.09-5.23,3.68-8.44,3.68A7.62,7.62,0,0,1,351.85,53.88Zm16,0V47.78c-7.38.93-9.84,2.86-9.84,5.61,0,2.4,1.64,3.45,3.92,3.45S365.83,55.76,367.85,53.9Z" fill="#fff"/><path d="M380.24,47.61c0-8.87,5.56-14.29,11.52-14.29,3.08,0,5,1.15,7.13,3l-.24-4.39V22.06H405V61.19H399.8l-.49-2.95h-.17a11.39,11.39,0,0,1-7.74,3.61C384.62,61.85,380.24,56.58,380.24,47.61Zm18.41,5.91V40.85a8,8,0,0,0-5.54-2.26c-3.46,0-6.31,3.28-6.31,8.95,0,5.91,2.26,9,6.18,9C395.08,56.58,396.85,55.65,398.65,53.52Z" fill="#fff"/><path d="M411.35,47.61c0-8.84,6.13-14.29,12.54-14.29,7.35,0,11.23,5.31,11.23,12.91a15.93,15.93,0,0,1-.28,3.1H417.57c.53,4.83,3.64,7.58,8,7.58a11.63,11.63,0,0,0,6.32-2l2.17,4a16.8,16.8,0,0,1-9.33,3C417.24,61.85,411.35,56.58,411.35,47.61ZM429.6,45c0-4.19-1.86-6.73-5.58-6.73-3.17,0-6,2.37-6.51,6.73Z" fill="#fff"/><path d="M441.23,34h5.22l.49,4.85h.18c1.94-3.54,4.82-5.51,7.73-5.51a6.87,6.87,0,0,1,3.08.55l-1.11,5.54A9.06,9.06,0,0,0,454,39c-2.17,0-4.78,1.49-6.42,5.63v16.6h-6.38Z" fill="#fff"/><path d="M86.65,34h5.23l.49,3.71h.18c2.3-2.4,4.94-4.37,8.35-4.37,4,0,6.26,1.81,7.51,4.87,2.6-2.77,5.3-4.87,8.75-4.87,5.74,0,8.4,3.94,8.4,10.81V61.19h-6.38V45c0-4.48-1.33-6.16-4.19-6.16-1.73,0-3.59,1.11-5.69,3.39v19h-6.39V45c0-4.48-1.32-6.16-4.18-6.16-1.69,0-3.59,1.11-5.7,3.39v19H86.65Z" fill="url(#linear-gradient)"/><path d="M131.55,47.61c0-8.84,6.14-14.29,12.54-14.29,7.36,0,11.24,5.31,11.24,12.91a16.76,16.76,0,0,1-.28,3.1H137.78c.53,4.83,3.63,7.58,8,7.58a11.58,11.58,0,0,0,6.31-2l2.18,4a16.86,16.86,0,0,1-9.33,3C137.45,61.85,131.55,56.58,131.55,47.61ZM149.81,45c0-4.19-1.86-6.73-5.58-6.73-3.17,0-6,2.37-6.52,6.73Z" fill="url(#linear-gradient)"/><path d="M159.77,47.61c0-8.87,5.56-14.29,11.52-14.29,3.08,0,5,1.15,7.14,3l-.25-4.39V22.06h6.38V61.19h-5.23l-.48-2.95h-.18a11.39,11.39,0,0,1-7.73,3.61C164.16,61.85,159.77,56.58,159.77,47.61Zm18.41,5.91V40.85a8,8,0,0,0-5.54-2.26c-3.45,0-6.31,3.28-6.31,8.95,0,5.91,2.26,9,6.18,9C174.62,56.58,176.39,55.65,178.18,53.52Z" fill="url(#linear-gradient)"/><path d="M191.94,25.61a4,4,0,1,1,3.95,3.61A3.66,3.66,0,0,1,191.94,25.61Zm.74,8.37h6.38V61.19h-6.38Z" fill="url(#linear-gradient)"/><path d="M205.73,53.88c0-5.83,4.83-8.87,16-10.06-.09-2.93-1.26-5.36-4.94-5.36a14.94,14.94,0,0,0-7.64,2.68l-2.35-4.26A21.24,21.24,0,0,1,218,33.32c6.8,0,10.14,4.18,10.14,11.76V61.19h-5.23l-.48-3h-.18c-2.44,2.09-5.23,3.68-8.44,3.68A7.61,7.61,0,0,1,205.73,53.88Zm16,0V47.78c-7.38.93-9.83,2.86-9.83,5.61,0,2.4,1.63,3.45,3.92,3.45S219.71,55.76,221.72,53.9Z" fill="url(#linear-gradient)"/><path d="M246.54,51V34h6.38V50.22c0,4.48,1.28,6.16,4.23,6.16,2.39,0,4-1.11,6-3.77V34h6.38V61.19h-5.23l-.49-4h-.17c-2.4,2.83-5,4.67-8.76,4.67C249.09,61.85,246.54,57.91,246.54,51Z" fill="url(#linear-gradient)"/><path d="M277.65,34h5.23l.48,2.9h.18c2.29-2,5.21-3.56,8.2-3.56,6.8,0,10.7,5.45,10.7,13.84,0,9.31-5.56,14.69-11.61,14.69a10.84,10.84,0,0,1-7-3l.2,4.52V72h-6.38Zm18.23,13.25c0-5.43-1.77-8.64-5.91-8.64-2,0-3.84,1-5.94,3.06V54.32a8.5,8.5,0,0,0,5.45,2.26C293.11,56.58,295.88,53.39,295.88,47.23Z" fill="url(#linear-gradient)"/><path d="M308.56,54.19V22.06h6.38V54.52c0,1.57.71,2.13,1.37,2.13a3.48,3.48,0,0,0,1-.12l.8,4.77a9,9,0,0,1-3.37.55C310.22,61.85,308.56,58.93,308.56,54.19Z" fill="url(#linear-gradient)"/><path d="M321.77,47.61c0-9.07,6.16-14.29,12.94-14.29s12.94,5.22,12.94,14.29-6.16,14.24-12.94,14.24S321.77,56.62,321.77,47.61Zm19.33,0c0-5.46-2.4-9.09-6.39-9.09s-6.38,3.63-6.38,9.09,2.4,9,6.38,9S341.1,53.06,341.1,47.61Z" fill="url(#linear-gradient)"/><path d="M351.85,53.88c0-5.83,4.83-8.87,16-10.06-.09-2.93-1.26-5.36-4.94-5.36a14.94,14.94,0,0,0-7.64,2.68l-2.35-4.26a21.21,21.21,0,0,1,11.16-3.56c6.81,0,10.15,4.18,10.15,11.76V61.19H369l-.49-3h-.17c-2.44,2.09-5.23,3.68-8.44,3.68A7.62,7.62,0,0,1,351.85,53.88Zm16,0V47.78c-7.38.93-9.84,2.86-9.84,5.61,0,2.4,1.64,3.45,3.92,3.45S365.83,55.76,367.85,53.9Z" fill="url(#linear-gradient)"/><path d="M380.24,47.61c0-8.87,5.56-14.29,11.52-14.29,3.08,0,5,1.15,7.13,3l-.24-4.39V22.06H405V61.19H399.8l-.49-2.95h-.17a11.39,11.39,0,0,1-7.74,3.61C384.62,61.85,380.24,56.58,380.24,47.61Zm18.41,5.91V40.85a8,8,0,0,0-5.54-2.26c-3.46,0-6.31,3.28-6.31,8.95,0,5.91,2.26,9,6.18,9C395.08,56.58,396.85,55.65,398.65,53.52Z" fill="url(#linear-gradient)"/><path d="M411.35,47.61c0-8.84,6.13-14.29,12.54-14.29,7.35,0,11.23,5.31,11.23,12.91a15.93,15.93,0,0,1-.28,3.1H417.57c.53,4.83,3.64,7.58,8,7.58a11.63,11.63,0,0,0,6.32-2l2.17,4a16.8,16.8,0,0,1-9.33,3C417.24,61.85,411.35,56.58,411.35,47.61ZM429.6,45c0-4.19-1.86-6.73-5.58-6.73-3.17,0-6,2.37-6.51,6.73Z" fill="url(#linear-gradient)"/><path d="M441.23,34h5.22l.49,4.85h.18c1.94-3.54,4.82-5.51,7.73-5.51a6.87,6.87,0,0,1,3.08.55l-1.11,5.54A9.06,9.06,0,0,0,454,39c-2.17,0-4.78,1.49-6.42,5.63v16.6h-6.38Z" fill="url(#linear-gradient)"/><path d="M68.42,1.74l-8.92.53-8.73.47-17.14,1-16.69.86L.5,5.23,4.16,1.57c.19,5.14.26,10.28.36,15.42L4.8,32.42,5,63.28.5,58.78l17,.11c5.68,0,11.35,0,17,.16l17,.31c5.68.07,11.35.31,17,.46l-3.46,3.46c.16-4.94.31-9.89.59-14.88s.47-10,.81-15.13l1-15.53Zm.35-.35L69,63.28v.37H68.6L.5,63.78H0v-.5L.12,1.57V1.18H.5Z" fill="url(#linear-gradient-14)"/><path d="M58.86,30.63c-2.78,2-5.7,4.28-8.9,6.74l-5,3.74c-1.73,1.25-3.51,2.47-5.3,3.68-3.21,2.25-6.5,4.38-9.78,6.52s-6.58,4.24-9.9,6.31l-5.86,3.64-.25-7.17c-.14-3.91-.28-7.82-.32-11.73s-.08-7.82-.11-11.73,0-7.82.11-11.73.2-7.82.33-11.73L14.15,0,20,3.65l5,3.11c1.66,1,3.29,2.13,4.93,3.2,3.28,2.14,6.56,4.27,9.78,6.52,1.78,1.21,3.57,2.43,5.29,3.68l5,3.73C53.16,26.35,56.08,28.65,58.86,30.63Zm-.5,0c-6.84-3.85-13.6-7.54-20.26-11.39L17.75,7.55l.67-.38,0,23.46,0,23.46-.67-.39L38.1,42C44.76,38.17,51.52,34.48,58.36,30.63Z" fill="url(#linear-gradient-15)"/></g></g></svg>