<svg xmlns="http://www.w3.org/2000/svg" xmlns:xlink="http://www.w3.org/1999/xlink" viewBox="0 0 379.5 71.37"><defs><linearGradient id="linear-gradient" x1="86.68" y1="49.72" x2="379.5" y2="49.72" gradientUnits="userSpaceOnUse"><stop offset="0" stop-color="#5e007f"/><stop offset="0.5" stop-color="#a400d4"/><stop offset="1" stop-color="#1b00d4"/></linearGradient><linearGradient id="linear-gradient-14" x1="-1.6" y1="31.21" x2="70.5" y2="31.21" xlink:href="#linear-gradient"/><linearGradient id="linear-gradient-15" x1="36.49" y1="2.45" x2="36.49" y2="56.29" xlink:href="#linear-gradient"/></defs><g id="Layer_2" data-name="Layer 2"><g id="Layer_1-2" data-name="Layer 1"><path d="M86.68,39.13h1.73l.22,3.44h.1c2-2.26,4.54-4,7-4,3.55,0,5.33,1.79,6.12,4.53,2.52-2.77,5-4.53,7.54-4.53,4.42,0,6.63,2.78,6.63,8.51V61.32h-2v-14c0-4.7-1.57-6.94-5-6.94-2.09,0-4.2,1.39-6.65,4.17V61.32h-2v-14c0-4.7-1.57-6.94-5-6.94-2,0-4.2,1.39-6.65,4.17V61.32h-2Z" fill="#fff"/><path d="M122.35,50.26c0-7.23,4.7-11.69,9.67-11.69,5.26,0,8.5,3.74,8.5,10.27a9.28,9.28,0,0,1-.12,1.66h-16c.08,5.61,3.36,9.61,8.36,9.61a10,10,0,0,0,6-2l.84,1.55a12.12,12.12,0,0,1-7,2.18C126.94,61.87,122.35,57.52,122.35,50.26Zm16.25-1.44c0-5.66-2.57-8.48-6.56-8.48-3.75,0-7.14,3.18-7.61,8.48Z" fill="#fff"/><path d="M144.69,50.26c0-7.16,4.55-11.69,9.85-11.69,2.66,0,4.47,1,6.69,2.73l-.11-4.08V28.07h2V61.32h-1.73l-.22-2.88h-.1a10.4,10.4,0,0,1-7.24,3.43C148.31,61.87,144.69,57.75,144.69,50.26Zm16.43,6.14V43.24c-2.34-2.08-4.29-2.86-6.47-2.86-4.41,0-7.81,4.31-7.81,9.88,0,5.9,2.62,9.8,7.33,9.8C156.62,60.06,158.79,58.78,161.12,56.4Z" fill="#fff"/><path d="M170.89,32a1.86,1.86,0,0,1,3.72,0,1.86,1.86,0,0,1-3.72,0Zm.8,7.18h2V61.32h-2Z" fill="#fff"/><path d="M180.68,55.8c0-4.94,4.45-7.28,14.32-8.37.06-3.42-.87-7.07-5.23-7.07A12.11,12.11,0,0,0,182.7,43l-.95-1.52A15,15,0,0,1,190,38.57c5.26,0,7,3.82,7,8.57V61.32h-1.73l-.22-2.88H195c-2.26,1.83-5,3.43-7.87,3.43C183.6,61.87,180.68,60,180.68,55.8Zm14.32.73V49c-9.12,1.05-12.23,3.17-12.23,6.71,0,3.19,2.15,4.41,4.7,4.41S192.25,58.87,195,56.53Z" fill="#fff"/><path d="M213.86,53.36V39.13h2v14c0,4.71,1.48,6.95,5.05,6.95,2.65,0,4.56-1.39,7.16-4.53V39.13h2V61.32h-1.73l-.22-3.72h-.1c-2.18,2.55-4.48,4.27-7.54,4.27C216,61.87,213.86,59.09,213.86,53.36Z" fill="#fff"/><path d="M238.67,39.13h1.73l.22,2.79h.1c2.17-1.74,4.81-3.35,7.53-3.35,5.95,0,8.89,4.46,8.89,11.32,0,7.54-4.55,12-9.78,12a11.56,11.56,0,0,1-6.68-2.72l0,4.09v8.13h-2ZM255,49.9c0-5.45-1.94-9.52-7.06-9.52-2.2,0-4.54,1.3-7.22,3.66V57.21a10.74,10.74,0,0,0,6.53,2.85C251.76,60.06,255,55.92,255,49.9Z" fill="#fff"/><path d="M263.77,58.34V28.07h2V58.62c0,1,.41,1.45,1,1.45a3.53,3.53,0,0,0,.83-.09l.35,1.66a4.66,4.66,0,0,1-1.47.23C264.69,61.87,263.77,60.77,263.77,58.34Z" fill="#fff"/><path d="M272.86,50.26c0-7.42,4.63-11.69,10-11.69s10,4.27,10,11.69-4.64,11.61-10,11.61S272.86,57.6,272.86,50.26Zm17.78,0c0-5.84-3.34-9.89-7.82-9.89S275,44.42,275,50.26s3.34,9.81,7.82,9.81S290.64,56.11,290.64,50.26Z" fill="#fff"/><path d="M297.17,55.8c0-4.94,4.45-7.28,14.32-8.37.06-3.42-.87-7.07-5.23-7.07A12.11,12.11,0,0,0,299.19,43l-.95-1.52a15,15,0,0,1,8.26-2.88c5.26,0,7,3.82,7,8.57V61.32H311.8l-.22-2.88h-.1c-2.27,1.83-5,3.43-7.88,3.43C300.09,61.87,297.17,60,297.17,55.8Zm14.32.73V49c-9.12,1.05-12.23,3.17-12.23,6.71,0,3.19,2.15,4.41,4.7,4.41S308.74,58.87,311.49,56.53Z" fill="#fff"/><path d="M319.61,50.26c0-7.16,4.55-11.69,9.84-11.69,2.67,0,4.48,1,6.7,2.73L336,37.22V28.07h2.05V61.32h-1.73l-.22-2.88H336a10.42,10.42,0,0,1-7.24,3.43C323.22,61.87,319.61,57.75,319.61,50.26ZM336,56.4V43.24c-2.33-2.08-4.29-2.86-6.47-2.86-4.41,0-7.81,4.31-7.81,9.88,0,5.9,2.63,9.8,7.33,9.8C331.53,60.06,333.7,58.78,336,56.4Z" fill="#fff"/><path d="M344.74,50.26c0-7.23,4.7-11.69,9.67-11.69,5.26,0,8.5,3.74,8.5,10.27a9.28,9.28,0,0,1-.12,1.66h-16c.08,5.61,3.36,9.61,8.36,9.61a10,10,0,0,0,6-2l.84,1.55a12.12,12.12,0,0,1-7,2.18C349.33,61.87,344.74,57.52,344.74,50.26ZM361,48.82c0-5.66-2.57-8.48-6.56-8.48-3.75,0-7.14,3.18-7.6,8.48Z" fill="#fff"/><path d="M368.93,39.13h1.73l.22,4.14h.1c1.5-2.73,3.68-4.7,6.32-4.7a4.66,4.66,0,0,1,2.2.46L379,40.88a4.88,4.88,0,0,0-2-.37c-2,0-4.37,1.52-6.06,5.71v15.1h-2Z" fill="#fff"/><path d="M86.68,39.13h1.73l.22,3.44h.1c2-2.26,4.54-4,7-4,3.55,0,5.33,1.79,6.12,4.53,2.52-2.77,5-4.53,7.54-4.53,4.42,0,6.63,2.78,6.63,8.51V61.32h-2v-14c0-4.7-1.57-6.94-5-6.94-2.09,0-4.2,1.39-6.65,4.17V61.32h-2v-14c0-4.7-1.57-6.94-5-6.94-2,0-4.2,1.39-6.65,4.17V61.32h-2Z" fill="url(#linear-gradient)"/><path d="M122.35,50.26c0-7.23,4.7-11.69,9.67-11.69,5.26,0,8.5,3.74,8.5,10.27a9.28,9.28,0,0,1-.12,1.66h-16c.08,5.61,3.36,9.61,8.36,9.61a10,10,0,0,0,6-2l.84,1.55a12.12,12.12,0,0,1-7,2.18C126.94,61.87,122.35,57.52,122.35,50.26Zm16.25-1.44c0-5.66-2.57-8.48-6.56-8.48-3.75,0-7.14,3.18-7.61,8.48Z" fill="url(#linear-gradient)"/><path d="M144.69,50.26c0-7.16,4.55-11.69,9.85-11.69,2.66,0,4.47,1,6.69,2.73l-.11-4.08V28.07h2V61.32h-1.73l-.22-2.88h-.1a10.4,10.4,0,0,1-7.24,3.43C148.31,61.87,144.69,57.75,144.69,50.26Zm16.43,6.14V43.24c-2.34-2.08-4.29-2.86-6.47-2.86-4.41,0-7.81,4.31-7.81,9.88,0,5.9,2.62,9.8,7.33,9.8C156.62,60.06,158.79,58.78,161.12,56.4Z" fill="url(#linear-gradient)"/><path d="M170.89,32a1.86,1.86,0,0,1,3.72,0,1.86,1.86,0,0,1-3.72,0Zm.8,7.18h2V61.32h-2Z" fill="url(#linear-gradient)"/><path d="M180.68,55.8c0-4.94,4.45-7.28,14.32-8.37.06-3.42-.87-7.07-5.23-7.07A12.11,12.11,0,0,0,182.7,43l-.95-1.52A15,15,0,0,1,190,38.57c5.26,0,7,3.82,7,8.57V61.32h-1.73l-.22-2.88H195c-2.26,1.83-5,3.43-7.87,3.43C183.6,61.87,180.68,60,180.68,55.8Zm14.32.73V49c-9.12,1.05-12.23,3.17-12.23,6.71,0,3.19,2.15,4.41,4.7,4.41S192.25,58.87,195,56.53Z" fill="url(#linear-gradient)"/><path d="M213.86,53.36V39.13h2v14c0,4.71,1.48,6.95,5.05,6.95,2.65,0,4.56-1.39,7.16-4.53V39.13h2V61.32h-1.73l-.22-3.72h-.1c-2.18,2.55-4.48,4.27-7.54,4.27C216,61.87,213.86,59.09,213.86,53.36Z" fill="url(#linear-gradient)"/><path d="M238.67,39.13h1.73l.22,2.79h.1c2.17-1.74,4.81-3.35,7.53-3.35,5.95,0,8.89,4.46,8.89,11.32,0,7.54-4.55,12-9.78,12a11.56,11.56,0,0,1-6.68-2.72l0,4.09v8.13h-2ZM255,49.9c0-5.45-1.94-9.52-7.06-9.52-2.2,0-4.54,1.3-7.22,3.66V57.21a10.74,10.74,0,0,0,6.53,2.85C251.76,60.06,255,55.92,255,49.9Z" fill="url(#linear-gradient)"/><path d="M263.77,58.34V28.07h2V58.62c0,1,.41,1.45,1,1.45a3.53,3.53,0,0,0,.83-.09l.35,1.66a4.66,4.66,0,0,1-1.47.23C264.69,61.87,263.77,60.77,263.77,58.34Z" fill="url(#linear-gradient)"/><path d="M272.86,50.26c0-7.42,4.63-11.69,10-11.69s10,4.27,10,11.69-4.64,11.61-10,11.61S272.86,57.6,272.86,50.26Zm17.78,0c0-5.84-3.34-9.89-7.82-9.89S275,44.42,275,50.26s3.34,9.81,7.82,9.81S290.64,56.11,290.64,50.26Z" fill="url(#linear-gradient)"/><path d="M297.17,55.8c0-4.94,4.45-7.28,14.32-8.37.06-3.42-.87-7.07-5.23-7.07A12.11,12.11,0,0,0,299.19,43l-.95-1.52a15,15,0,0,1,8.26-2.88c5.26,0,7,3.82,7,8.57V61.32H311.8l-.22-2.88h-.1c-2.27,1.83-5,3.43-7.88,3.43C300.09,61.87,297.17,60,297.17,55.8Zm14.32.73V49c-9.12,1.05-12.23,3.17-12.23,6.71,0,3.19,2.15,4.41,4.7,4.41S308.74,58.87,311.49,56.53Z" fill="url(#linear-gradient)"/><path d="M319.61,50.26c0-7.16,4.55-11.69,9.84-11.69,2.67,0,4.48,1,6.7,2.73L336,37.22V28.07h2.05V61.32h-1.73l-.22-2.88H336a10.42,10.42,0,0,1-7.24,3.43C323.22,61.87,319.61,57.75,319.61,50.26ZM336,56.4V43.24c-2.33-2.08-4.29-2.86-6.47-2.86-4.41,0-7.81,4.31-7.81,9.88,0,5.9,2.63,9.8,7.33,9.8C331.53,60.06,333.7,58.78,336,56.4Z" fill="url(#linear-gradient)"/><path d="M344.74,50.26c0-7.23,4.7-11.69,9.67-11.69,5.26,0,8.5,3.74,8.5,10.27a9.28,9.28,0,0,1-.12,1.66h-16c.08,5.61,3.36,9.61,8.36,9.61a10,10,0,0,0,6-2l.84,1.55a12.12,12.12,0,0,1-7,2.18C349.33,61.87,344.74,57.52,344.74,50.26ZM361,48.82c0-5.66-2.57-8.48-6.56-8.48-3.75,0-7.14,3.18-7.6,8.48Z" fill="url(#linear-gradient)"/><path d="M368.93,39.13h1.73l.22,4.14h.1c1.5-2.73,3.68-4.7,6.32-4.7a4.66,4.66,0,0,1,2.2.46L379,40.88a4.88,4.88,0,0,0-2-.37c-2,0-4.37,1.52-6.06,5.71v15.1h-2Z" fill="url(#linear-gradient)"/><path d="M68.36.45,59.51.87l-8.68.38-17.12.84L17,2.77.4,3.24,3.33.31c.26,10.28.34,20.57.51,30.85L4,62,.4,58.42l17,.08c5.68,0,11.35,0,17,.13l17,.25c5.68.06,11.35.25,17,.37L65.73,62c.13-5,.25-10,.47-15s.38-10.07.65-15.19l.77-15.51Zm.28-.29L68.79,62v.29H68.5L.4,62.42H0V62L.09.31V0H.4Z" fill="url(#linear-gradient-14)"/><path d="M58.71,29.37c-2.91,2-5.9,4.21-9.15,6.57l-5,3.58c-1.72,1.19-3.49,2.36-5.26,3.52-3.25,2.2-6.55,4.29-9.85,6.4s-6.62,4.17-10,6.21l-4.72,2.9-.17-5.72c-.11-3.91-.23-7.82-.23-11.73l-.1-11.73.1-11.73c0-3.91.14-7.82.24-11.73l.15-5.7L19.5,3.1c3.34,2,6.67,4.08,10,6.21s6.61,4.21,9.86,6.4c1.77,1.16,3.53,2.33,5.25,3.52l5,3.58C52.8,25.17,55.79,27.39,58.71,29.37Zm-.4,0L38.06,17.87,17.71,6.2l.5-.29.06,23.46-.06,23.46-.5-.29L38.06,40.87Z" fill="url(#linear-gradient-15)"/></g></g></svg>