<svg xmlns="http://www.w3.org/2000/svg" xmlns:xlink="http://www.w3.org/1999/xlink" viewBox="0 0 300.52 37.98"><defs><linearGradient id="linear-gradient" x1="40.43" y1="23.47" x2="300.52" y2="23.47" gradientUnits="userSpaceOnUse"><stop offset="0" stop-color="#5e007f"/><stop offset="0.5" stop-color="#a400d4"/><stop offset="1" stop-color="#1b00d4"/></linearGradient><linearGradient id="linear-gradient-14" x1="-0.31" y1="22.34" x2="28.19" y2="22.34" xlink:href="#linear-gradient"/></defs><g id="Layer_2" data-name="Layer 2"><g id="Layer_1-2" data-name="Layer 1"><path d="M40.43,13.94h2.75l.29,2.86h.11c1.72-1.87,3.78-3.35,6.13-3.35a5.21,5.21,0,0,1,5.44,3.76c2.05-2.22,4.1-3.76,6.5-3.76,4.05,0,6,2.68,6,7.71V33.65H64.31V21.59c0-3.67-1.16-5.24-3.67-5.24-1.52,0-3.11,1-4.93,3V33.65H52.37V21.59c0-3.67-1.16-5.24-3.67-5.24-1.47,0-3.11,1-4.94,3V33.65H40.43Z" transform="translate(0 -4.48)" fill="#fff"/><path d="M72.57,23.82c0-6.41,4.33-10.37,8.86-10.37,5,0,7.87,3.61,7.87,9.25a10.1,10.1,0,0,1-.16,1.89H75.87c.24,4.18,2.79,6.89,6.55,6.89a8.57,8.57,0,0,0,4.9-1.58l1.19,2.19a11.54,11.54,0,0,1-6.5,2C76.75,34.13,72.57,30.29,72.57,23.82Zm13.78-1.61c0-3.95-1.78-6.1-4.86-6.1-2.77,0-5.25,2.22-5.65,6.1Z" transform="translate(0 -4.48)" fill="#fff"/><path d="M92.74,23.82c0-6.39,4-10.37,8.53-10.37a8.09,8.09,0,0,1,5.52,2.29l-.14-3.38V4.76H110V33.65h-2.75L107,31.32h-.11a8.76,8.76,0,0,1-6,2.81C95.93,34.13,92.74,30.39,92.74,23.82Zm13.91,4.82V18.31a6.94,6.94,0,0,0-4.81-2c-3.15,0-5.66,3-5.66,7.53,0,4.72,2,7.54,5.41,7.54C103.42,31.33,105,30.44,106.65,28.64Z" transform="translate(0 -4.48)" fill="#fff"/><path d="M116,7.73a2.31,2.31,0,0,1,4.61,0,2.31,2.31,0,0,1-4.61,0Zm.61,6.21H120V33.65h-3.34Z" transform="translate(0 -4.48)" fill="#fff"/><path d="M125.39,28.53c0-4.29,3.71-6.44,12.11-7.35,0-2.54-.85-5-4.07-5a10.91,10.91,0,0,0-5.88,2.11L126.25,16A14.46,14.46,0,0,1,134,13.45c4.81,0,6.84,3.2,6.84,8.11V33.65h-2.75l-.28-2.36h-.11a10.5,10.5,0,0,1-6.52,2.84C127.87,34.13,125.39,32.09,125.39,28.53Zm12.11.31V23.37c-6.61.79-8.84,2.41-8.84,4.93,0,2.24,1.52,3.15,3.45,3.15S135.59,30.52,137.5,28.84Z" transform="translate(0 -4.48)" fill="#fff"/><path d="M155.26,26.67V14.18h1.79V26.43c0,4.13,1.31,6.09,4.44,6.09,2.32,0,4-1.22,6.27-4V14.18h1.79V33.65H168l-.2-3.26h-.09c-1.91,2.24-3.92,3.74-6.6,3.74C157.12,34.13,155.26,31.69,155.26,26.67Z" transform="translate(0 -4.48)" fill="#fff"/><path d="M177,14.18h1.52l.19,2.45h.09c1.9-1.53,4.22-2.94,6.61-2.94,5.22,0,7.79,3.91,7.79,9.94,0,6.6-4,10.5-8.58,10.5a10.14,10.14,0,0,1-5.85-2.39l0,3.59v7.13H177Zm14.32,9.45c0-4.78-1.7-8.35-6.19-8.35-1.93,0-4,1.14-6.34,3.21V30a9.47,9.47,0,0,0,5.74,2.5C188.49,32.54,191.33,28.91,191.33,23.63Z" transform="translate(0 -4.48)" fill="#fff"/><path d="M199,31V4.48h1.79v26.8c0,.87.35,1.27.84,1.27a3.12,3.12,0,0,0,.73-.08l.3,1.46a3.92,3.92,0,0,1-1.29.2C199.84,34.13,199,33.17,199,31Z" transform="translate(0 -4.48)" fill="#fff"/><path d="M207,24c0-6.51,4.06-10.26,8.74-10.26s8.74,3.75,8.74,10.26-4.06,10.18-8.74,10.18S207,30.39,207,24Zm15.6,0c0-5.12-2.93-8.68-6.86-8.68s-6.86,3.56-6.86,8.68,2.92,8.6,6.86,8.6S222.6,29.07,222.6,24Z" transform="translate(0 -4.48)" fill="#fff"/><path d="M228.32,28.8c0-4.32,3.9-6.38,12.56-7.34.06-3-.76-6.19-4.59-6.19a10.63,10.63,0,0,0-6.2,2.28l-.83-1.33a13.11,13.11,0,0,1,7.24-2.53c4.61,0,6.17,3.35,6.17,7.52V33.65h-1.51l-.2-2.53h-.09c-2,1.6-4.35,3-6.91,3C230.88,34.13,228.32,32.46,228.32,28.8Zm12.56.65V22.82c-8,.93-10.73,2.78-10.73,5.89,0,2.79,1.89,3.87,4.13,3.87S238.47,31.5,240.88,29.45Z" transform="translate(0 -4.48)" fill="#fff"/><path d="M248,24c0-6.28,4-10.26,8.63-10.26,2.34,0,3.93.89,5.87,2.39l-.09-3.57v-8h1.79V33.65h-1.52l-.19-2.52h-.09a9.2,9.2,0,0,1-6.35,3C251.17,34.13,248,30.52,248,24Zm14.41,5.38V17.79c-2.06-1.83-3.77-2.51-5.68-2.51-3.87,0-6.85,3.78-6.85,8.66,0,5.18,2.3,8.6,6.43,8.6C258.46,32.54,260.36,31.42,262.41,29.33Z" transform="translate(0 -4.48)" fill="#fff"/><path d="M270,24c0-6.35,4.13-10.26,8.49-10.26,4.62,0,7.45,3.29,7.45,9a8,8,0,0,1-.1,1.46h-14c.07,4.91,2.95,8.42,7.33,8.42a8.76,8.76,0,0,0,5.23-1.72l.74,1.36A10.62,10.62,0,0,1,279,34.13C274.06,34.13,270,30.31,270,24Zm14.26-1.27c0-5-2.26-7.44-5.75-7.44-3.29,0-6.27,2.79-6.67,7.44Z" transform="translate(0 -4.48)" fill="#fff"/><path d="M291.25,14.18h1.52l.19,3.63h.09c1.32-2.39,3.22-4.12,5.54-4.12a4,4,0,0,1,1.93.41l-.41,1.62a4.24,4.24,0,0,0-1.76-.32c-1.75,0-3.82,1.32-5.31,5V33.65h-1.79Z" transform="translate(0 -4.48)" fill="#fff"/><path d="M40.43,13.94h2.75l.29,2.86h.11c1.72-1.87,3.78-3.35,6.13-3.35a5.21,5.21,0,0,1,5.44,3.76c2.05-2.22,4.1-3.76,6.5-3.76,4.05,0,6,2.68,6,7.71V33.65H64.31V21.59c0-3.67-1.16-5.24-3.67-5.24-1.52,0-3.11,1-4.93,3V33.65H52.37V21.59c0-3.67-1.16-5.24-3.67-5.24-1.47,0-3.11,1-4.94,3V33.65H40.43Z" transform="translate(0 -4.48)" fill="url(#linear-gradient)"/><path d="M72.57,23.82c0-6.41,4.33-10.37,8.86-10.37,5,0,7.87,3.61,7.87,9.25a10.1,10.1,0,0,1-.16,1.89H75.87c.24,4.18,2.79,6.89,6.55,6.89a8.57,8.57,0,0,0,4.9-1.58l1.19,2.19a11.54,11.54,0,0,1-6.5,2C76.75,34.13,72.57,30.29,72.57,23.82Zm13.78-1.61c0-3.95-1.78-6.1-4.86-6.1-2.77,0-5.25,2.22-5.65,6.1Z" transform="translate(0 -4.48)" fill="url(#linear-gradient)"/><path d="M92.74,23.82c0-6.39,4-10.37,8.53-10.37a8.09,8.09,0,0,1,5.52,2.29l-.14-3.38V4.76H110V33.65h-2.75L107,31.32h-.11a8.76,8.76,0,0,1-6,2.81C95.93,34.13,92.74,30.39,92.74,23.82Zm13.91,4.82V18.31a6.94,6.94,0,0,0-4.81-2c-3.15,0-5.66,3-5.66,7.53,0,4.72,2,7.54,5.41,7.54C103.42,31.33,105,30.44,106.65,28.64Z" transform="translate(0 -4.48)" fill="url(#linear-gradient)"/><path d="M116,7.73a2.31,2.31,0,0,1,4.61,0,2.31,2.31,0,0,1-4.61,0Zm.61,6.21H120V33.65h-3.34Z" transform="translate(0 -4.48)" fill="url(#linear-gradient)"/><path d="M125.39,28.53c0-4.29,3.71-6.44,12.11-7.35,0-2.54-.85-5-4.07-5a10.91,10.91,0,0,0-5.88,2.11L126.25,16A14.46,14.46,0,0,1,134,13.45c4.81,0,6.84,3.2,6.84,8.11V33.65h-2.75l-.28-2.36h-.11a10.5,10.5,0,0,1-6.52,2.84C127.87,34.13,125.39,32.09,125.39,28.53Zm12.11.31V23.37c-6.61.79-8.84,2.41-8.84,4.93,0,2.24,1.52,3.15,3.45,3.15S135.59,30.52,137.5,28.84Z" transform="translate(0 -4.48)" fill="url(#linear-gradient)"/><path d="M155.26,26.67V14.18h1.79V26.43c0,4.13,1.31,6.09,4.44,6.09,2.32,0,4-1.22,6.27-4V14.18h1.79V33.65H168l-.2-3.26h-.09c-1.91,2.24-3.92,3.74-6.6,3.74C157.12,34.13,155.26,31.69,155.26,26.67Z" transform="translate(0 -4.48)" fill="url(#linear-gradient)"/><path d="M177,14.18h1.52l.19,2.45h.09c1.9-1.53,4.22-2.94,6.61-2.94,5.22,0,7.79,3.91,7.79,9.94,0,6.6-4,10.5-8.58,10.5a10.14,10.14,0,0,1-5.85-2.39l0,3.59v7.13H177Zm14.32,9.45c0-4.78-1.7-8.35-6.19-8.35-1.93,0-4,1.14-6.34,3.21V30a9.47,9.47,0,0,0,5.74,2.5C188.49,32.54,191.33,28.91,191.33,23.63Z" transform="translate(0 -4.48)" fill="url(#linear-gradient)"/><path d="M199,31V4.48h1.79v26.8c0,.87.35,1.27.84,1.27a3.12,3.12,0,0,0,.73-.08l.3,1.46a3.92,3.92,0,0,1-1.29.2C199.84,34.13,199,33.17,199,31Z" transform="translate(0 -4.48)" fill="url(#linear-gradient)"/><path d="M207,24c0-6.51,4.06-10.26,8.74-10.26s8.74,3.75,8.74,10.26-4.06,10.18-8.74,10.18S207,30.39,207,24Zm15.6,0c0-5.12-2.93-8.68-6.86-8.68s-6.86,3.56-6.86,8.68,2.92,8.6,6.86,8.6S222.6,29.07,222.6,24Z" transform="translate(0 -4.48)" fill="url(#linear-gradient)"/><path d="M228.32,28.8c0-4.32,3.9-6.38,12.56-7.34.06-3-.76-6.19-4.59-6.19a10.63,10.63,0,0,0-6.2,2.28l-.83-1.33a13.11,13.11,0,0,1,7.24-2.53c4.61,0,6.17,3.35,6.17,7.52V33.65h-1.51l-.2-2.53h-.09c-2,1.6-4.35,3-6.91,3C230.88,34.13,228.32,32.46,228.32,28.8Zm12.56.65V22.82c-8,.93-10.73,2.78-10.73,5.89,0,2.79,1.89,3.87,4.13,3.87S238.47,31.5,240.88,29.45Z" transform="translate(0 -4.48)" fill="url(#linear-gradient)"/><path d="M248,24c0-6.28,4-10.26,8.63-10.26,2.34,0,3.93.89,5.87,2.39l-.09-3.57v-8h1.79V33.65h-1.52l-.19-2.52h-.09a9.2,9.2,0,0,1-6.35,3C251.17,34.13,248,30.52,248,24Zm14.41,5.38V17.79c-2.06-1.83-3.77-2.51-5.68-2.51-3.87,0-6.85,3.78-6.85,8.66,0,5.18,2.3,8.6,6.43,8.6C258.46,32.54,260.36,31.42,262.41,29.33Z" transform="translate(0 -4.48)" fill="url(#linear-gradient)"/><path d="M270,24c0-6.35,4.13-10.26,8.49-10.26,4.62,0,7.45,3.29,7.45,9a8,8,0,0,1-.1,1.46h-14c.07,4.91,2.95,8.42,7.33,8.42a8.76,8.76,0,0,0,5.23-1.72l.74,1.36A10.62,10.62,0,0,1,279,34.13C274.06,34.13,270,30.31,270,24Zm14.26-1.27c0-5-2.26-7.44-5.75-7.44-3.29,0-6.27,2.79-6.67,7.44Z" transform="translate(0 -4.48)" fill="url(#linear-gradient)"/><path d="M291.25,14.18h1.52l.19,3.63h.09c1.32-2.39,3.22-4.12,5.54-4.12a4,4,0,0,1,1.93.41l-.41,1.62a4.24,4.24,0,0,0-1.76-.32c-1.75,0-3.82,1.32-5.31,5V33.65h-1.79Z" transform="translate(0 -4.48)" fill="url(#linear-gradient)"/><path d="M26.05,11.19c-2.33.3-4.5.55-6.6.77-1.06.12-2.09.21-3.11.3s-2,.19-3,.26a70.79,70.79,0,0,1-11.64.11l1.57-1.58c-.14,1.85-.37,3.7-.56,5.55s-.34,3.7-.39,5.55,0,3.7.07,5.55.24,3.7.4,5.55L1.69,32.16c2-.18,4.08-.4,6.12-.53s4.08-.21,6.13-.29c4.08-.15,8.16-.31,12.25-.2l-2.12,2.11c.09-3.45.35-6.89.7-10.51S25.56,15.34,26.05,11.19Zm.28-.28c.48,3.25.9,6.88,1.27,10.65s.61,7.74.7,11.69l.05,2.06-2.16.06c-4.09.11-8.17,0-12.25-.2-2-.08-4.09-.16-6.13-.29s-4.08-.35-6.12-.53L.5,34.24l.09-1c.17-1.85.34-3.7.4-5.55s.11-3.7.07-5.55-.2-3.7-.38-5.55S.25,12.9.11,11.05L0,9.62l1.69-.15a86.17,86.17,0,0,1,12.86.11c1,.07,2.09.16,3.1.26s2,.18,3,.3C22.66,10.36,24.57,10.61,26.33,10.91Z" transform="translate(0 -4.48)" fill="url(#linear-gradient-14)"/><polygon points="27.19 20.05 18.05 25.32 8.91 30.6 8.91 20.05 8.91 9.5 18.05 14.77 27.19 20.05" fill="#005496"/><polygon points="19.32 18.52 14.76 21.16 10.19 23.8 10.19 18.52 10.19 13.26 14.76 15.89 19.32 18.52" fill="#fff"/></g></g></svg>