<svg xmlns="http://www.w3.org/2000/svg" viewBox="0 0 793 360.45"><g id="Layer_2" data-name="Layer 2"><g id="Layer_1-2" data-name="Layer 1"><path d="M0,360.45V0H793V360.45ZM137.44,103.71l18.73-38.25.63.17c.24,2.45.52,4.9.71,7.35.6,7.89,1.19,15.78,1.72,23.67a5.34,5.34,0,0,1-2.5,5.13,4.68,4.68,0,0,0-.89,1.22,5,5,0,0,0,1.6.62c4.47,0,8.93,0,13.4,0,.24,0,.52.08.71,0s.76-.39.81-.65a1.08,1.08,0,0,0-.49-.91c-2.9-1.25-3.48-3.94-3.7-6.54-.94-10.83-1.68-21.68-2.52-32.51-.47-6.13-1-12.25-1.47-18.29-2.16-1-2.68.47-3.32,1.76Q150.8,66.93,140.72,87.36c-.37.74-.83,1.45-1.44,2.52-.73-1.21-1.24-2-1.7-2.82Q126.4,67.2,115.25,47.32a6.74,6.74,0,0,0-1.09-1.85,4,4,0,0,0-2.14-1c-.32,0-.94.94-1,1.51-.25,1.49-.28,3-.41,4.53-1.25,14.09-2.45,28.18-3.8,42.26-.35,3.61-.53,7.5-4.72,9.28-.24.1-.48.89-.42.94a2.76,2.76,0,0,0,1.35.62c2.88,0,5.75-.19,8.62-.23,1.11,0,2.23.22,3.34.22.39,0,.78-.35,1.17-.55-.22-.36-.36-.93-.67-1.06-3.94-1.58-4.18-5-4-8.41.44-8.71,1-17.4,1.55-26.1.07-1,.29-1.93.44-2.89l.52,0Zm258.68,10.81c-1,0-1.92,0-2.88,0-16.1.78-29.06,10.33-29.49,29.09-.33,14.73,6.94,25.56,20.31,29.48a42.88,42.88,0,0,0,22.26.52c9.92-2.36,17.18-8,20.56-17.84a35.36,35.36,0,0,0,1.23-17.27c-1.56-9.83-6.77-16.93-15.88-21A35.89,35.89,0,0,0,396.12,114.52Zm281.52-.22c-2.54.24-5.11.32-7.62.74-7.84,1.32-14.67,4.55-19.4,11.2-4.87,6.86-6,14.6-5.11,22.83,1.17,11.37,8.18,20.33,19.08,23.75a42.77,42.77,0,0,0,24.8.39c10.07-2.84,16.88-9.18,19.59-19.46a35.8,35.8,0,0,0,.8-14.25c-1.09-7.72-4.27-14.19-10.64-18.87S685.42,114.42,677.64,114.3ZM333.79,319.92c4.23,0,8.21,0,12.18,0,.43,0,.86-.45,1.29-.68-.21-.29-.36-.77-.62-.84-3.67-.91-4-3.93-4-6.81,0-14.32.14-28.65.48-43,0-1.72,1.63-3.42,2.56-5.1a7.78,7.78,0,0,1,1.12-1.26,5.33,5.33,0,0,0-1.62-.6c-4.86,0-9.73-.05-14.6,0a5.31,5.31,0,0,0-1.61.61c.39.4.7.94,1.17,1.19,1.64.86,3,1.88,3.08,3.92.31,11.44.72,22.87.84,34.31.05,4.81-2.32,8.55-6.54,11A19.46,19.46,0,0,1,317.13,315c-9.07-.15-16-6.13-16.32-15.18-.4-10.46-.14-20.95-.06-31.43a5.21,5.21,0,0,1,3.16-5c.45-.2.72-.82,1.07-1.25a4.16,4.16,0,0,0-1.44-.51c-2.72.08-5.43.34-8.14.35-2.16,0-4.31-.28-6.47-.35-.46,0-.93.37-1.4.57.29.4.49,1,.89,1.18,2.37,1.16,2.93,3.24,3,5.59.18,11,.37,21.92.48,32.88.08,7.83,4.28,14.34,11.68,17.1,9.7,3.63,18.83,2.63,27-4.16,1-.82,2-1.59,3.25-2.54Zm-153.41-74c5.83,0,10.91,0,16,0,.31,0,.62-.35.93-.54a5.11,5.11,0,0,0-.81-1.27c-1.82-1.54-3.92-2.8-5.49-4.55-5.29-5.9-10.4-11.95-15.57-18a15.65,15.65,0,0,1-1-1.4c3.19-1.8,6.4-3.17,9.08-5.22,4.43-3.39,6.47-8,5.35-13.72-1.4-7.21-6.4-10.84-13-12.58-9-2.37-18.15-.21-27.21-1-.32,0-.68.47-1,.72.29.31.52.77.88.91a4.67,4.67,0,0,1,3.44,3.91,30.41,30.41,0,0,1,.3,3.82c.1,14,.14,28,.25,42a4.82,4.82,0,0,1-2.75,4.88c-.5.25-.76,1-1.13,1.51a6.36,6.36,0,0,0,1.7.47q6.82.06,13.63,0a6.31,6.31,0,0,0,1.68-.5c-.32-.48-.53-1.2-1-1.39-2.71-1.17-3.42-3.35-3.4-6,0-5.13,0-10.25,0-15.37,0-.67.14-1.33.29-2.77a34.77,34.77,0,0,1,4.21,3.43c4.45,5,8.77,10.18,13.15,15.28C180.69,240.53,183.13,242.32,180.38,245.89Zm456-.22c-9.55-7.61-15.89-17.24-24-25.79a20.25,20.25,0,0,0,2.61-1c2.74-1.6,5.79-2.88,8.1-5,6.58-6,5.93-16.1-1.08-21.61a23.18,23.18,0,0,0-14.1-4.66c-6.71-.18-13.43,0-20.15,0a13.05,13.05,0,0,0-1.74.26,2,2,0,0,0,1.17,1.46,5.13,5.13,0,0,1,3.49,5.22q.3,22.22.49,44.43a4.84,4.84,0,0,1-3.06,5c-.54.23-.87.95-1.3,1.44l.36.57c1.65-.14,3.31-.41,4.95-.4,3.52,0,7,.25,10.55.33a5.74,5.74,0,0,0,1.67-.52c-.26-.43-.43-1.1-.8-1.23-3.35-1.22-3.88-3.94-3.87-7,0-4.73,0-9.45,0-14.18a22.26,22.26,0,0,1,.26-2.43l.7-.38a37.4,37.4,0,0,1,4,3.49q5.89,6.65,11.58,13.49c2,2.45,5.45,4.41,3.23,8.54ZM367.77,294.21a16.54,16.54,0,0,1,3.22,2.18c5.38,6.14,10.69,12.35,16,18.56.86,1,1.45,2.14.33,3.44-.23.27-.1.85-.16,1.53,5,0,9.87,0,14.72,0a3.94,3.94,0,0,0,1.22-.5,4.45,4.45,0,0,0-.74-1.3,53.23,53.23,0,0,1-5.1-4.31c-5.38-6-10.61-12.2-15.88-18.33a10.49,10.49,0,0,1-.87-1.32c3-1.61,6-2.84,8.53-4.67,5.83-4.19,7.69-10.61,5.15-17-2.2-5.56-6.79-8.33-12.26-9.81-9.06-2.46-18.34.09-27.47-1-.29,0-.65.48-1,.74.3.3.55.75.91.87,2.67.84,3.81,2.7,3.83,5.41q.23,22.21.48,44.42a4.78,4.78,0,0,1-3,5c-.49.21-.82.78-1.23,1.18.52.24,1,.67,1.55.67q7.17.08,14.36,0a4.94,4.94,0,0,0,1.45-.51c-.33-.45-.57-1.13-1-1.32a5.15,5.15,0,0,1-3.33-5.07c-.05-5.76-.11-11.52-.14-17.28A6.76,6.76,0,0,1,367.77,294.21ZM250.85,78.08c3.41-1.92,6.64-3.26,9.3-5.34a14,14,0,0,0-.38-22.82A23.94,23.94,0,0,0,252,46.36c-8.8-2.45-17.85.14-26.74-1-.33,0-.73.41-1.1.63.33.36.58.92,1,1.06,2.68.93,3.65,3,3.68,5.58q.27,22,.49,43.93c0,2.33-.77,4.2-3.09,5.21-.46.21-.74.84-1.1,1.27a4.09,4.09,0,0,0,1.39.57q7.31.07,14.6,0c.46,0,.91-.39,1.36-.61-.3-.38-.54-1-.94-1.1A5.18,5.18,0,0,1,237.94,97c-.09-6.08,0-12.15.09-18.22,0-.11.21-.22.73-.72a26.55,26.55,0,0,1,3.64,3q6.45,7.27,12.68,14.75c1.8,2.16,4.8,4,2.4,7.68H273.7C264.83,95.89,258.65,86.18,250.85,78.08Zm217.09,26.2v-2.66c0-15,0-29.93.12-44.9,0-3.95.41-8,4.95-9.78.3-.12.42-.7.63-1.06-.4-.18-.8-.52-1.21-.52-4.62,0-9.25,0-13.88,0-.42,0-.85.45-1.27.69.35.34.65.83,1.07,1a6.66,6.66,0,0,1,4.46,5.5,33.65,33.65,0,0,1,.63,6.18c.07,9.28,0,18.57,0,27.85,0,.77-.07,1.53-.13,2.79-1.21-1.24-2.12-2.1-2.95-3Q442.06,66.19,423.77,46a4.12,4.12,0,0,0-5-1.28v2.14q0,23.3-.09,46.59c0,3.53-.8,6.67-4.35,8.43-.38.18-.54.81-.8,1.23.4.18.79.52,1.2.53,4.46,0,8.93,0,13.39,0,.45,0,.9-.4,1.35-.62-.3-.4-.5-1-.9-1.18-3.36-1.49-4.74-4.3-4.82-7.68-.25-11.2-.34-22.4-.47-33.6,0-.24.24-.49.52-1,.68.79,1.18,1.41,1.72,2q19,20.68,38,41.38C464.67,104.15,465.78,105.17,467.94,104.28ZM274,305l-.63.34c-.56-.68-1.09-1.38-1.67-2l-26.79-29.5c-3.61-4-7.15-8-10.88-11.85a5.61,5.61,0,0,0-3.33-1.14c-.26,0-.86,1.58-1,2.47a48.12,48.12,0,0,0-.27,5.5c0,13.61,0,27.22,0,40.83,0,3.61-.77,6.86-4.48,8.58-.34.15-.5.68-.75,1,.44.24.86.68,1.3.68q6.69.08,13.4,0c.42,0,.85-.46,1.27-.7-.32-.39-.57-1-1-1.15-2.85-1.29-4.13-3.69-4.66-6.56a28.16,28.16,0,0,1-.38-4.77q-.15-14.06-.22-28.1c0-.83.08-1.65.12-2.48l.74-.44a23.6,23.6,0,0,0,1.66,2.27q19,20.7,38,41.39c1.14,1.24,2.25,2,4.19,1.2v-2.49c0-14.89,0-29.78.14-44.67,0-4.05.21-8.35,5-10.2.26-.1.58-.77.5-.88a1.65,1.65,0,0,0-1.05-.67c-1.92.06-3.83.35-5.74.34-2.56,0-5.11-.28-7.66-.34a6.79,6.79,0,0,0-1.89.56c.47.42,1,.8,1.39,1.25,1.28,1.33,3,2.5,3.69,4.1a16.53,16.53,0,0,1,1.07,6.31c.1,9.69.05,19.37,0,29.06C274.11,303.61,274,304.3,274,305ZM758.35,115.87a10.53,10.53,0,0,0,1.77,1.27,6.38,6.38,0,0,1,4.31,5,29.45,29.45,0,0,1,.8,5.67c.09,9.76.06,19.53.06,29.29,0,.6-.12,1.19-.18,1.79l-.67.46c-.66-.88-1.25-1.8-2-2.61q-18.48-20.35-37-40.71a3.94,3.94,0,0,0-4.91-1.2v2.45c0,15.37,0,30.74-.1,46.11,0,3.48-.71,6.71-4.3,8.47-.47.23-.7.95-1.34,1.9,5.55,0,10.48,0,15.41,0,.34,0,.68-.46,1-.7-.32-.4-.55-1-1-1.17a7.94,7.94,0,0,1-4.62-6.05,24.69,24.69,0,0,1-.54-5c-.08-9.76-.08-19.53-.1-29.29a17.07,17.07,0,0,1,.17-1.74,3.41,3.41,0,0,1,1.66,1.29q10.94,12,21.91,23.88c5.63,6.13,11.22,12.3,16.92,18.36.7.74,2,.91,3,1.35a14.36,14.36,0,0,0,.7-2.82c.16-4.07.27-8.15.29-12.23,0-11,0-21.93.08-32.9,0-3.62.39-7.26,4.11-9.37a5.54,5.54,0,0,0,1.14-1.26,5.29,5.29,0,0,0-1.63-.6c-4.39,0-8.78,0-13.17,0A15.2,15.2,0,0,0,758.35,115.87ZM638,188.2l-.12.69c.63.36,1.26.72,1.9,1.07a4.4,4.4,0,0,1,2.51,4q.22,22.34.51,44.66a4.9,4.9,0,0,1-3.32,5c-.56.24-1.08.59-1.62.88.06.24.11.47.17.71.89.06,1.79.14,2.69.17,12.36.39,24.76-.87,37.24.92.69-2.45,1.29-5,2.15-7.49.63-1.8.21-2.73-.93-3-2.88,2-5.16,4.79-7.79,5.18-6.42.94-13,.76-19.61,1V218c4.35,0,8.52.18,12.66-.06,3.92-.23,6.7.89,8.08,4.81.18.52,1.16.76,1.77,1.14.33-.62.91-1.24.93-1.87.09-3.44.08-6.88,0-10.32a6.9,6.9,0,0,0-.74-2,14.6,14.6,0,0,0-2.09,1.15c-1.24.94-2.36,2.78-3.61,2.85-5.63.31-11.29.14-17,.14V191.61c5.4,0,10.61-.2,15.78.12,1.62.1,3.29,1.42,4.67,2.52.87.69,1.1,2.14,1.9,3a8,8,0,0,0,2.49,1.22,6.9,6.9,0,0,0,.81-2.13c0-2.07-.15-4.15-.16-6.22,0-1.07.17-2.15.23-2.89-4.21.23-8.17.58-12.14.63-8.24.09-16.49,0-24.74,0A21.49,21.49,0,0,0,638,188.2Zm-151.38,73c-3.13.28-6.13.74-9.14.77-9.12.11-18.25,0-27.37.06a12.66,12.66,0,0,0-2.44.52,11.86,11.86,0,0,1,1.67,1.65c.8,1.19,1.95,2.42,2.07,3.72.39,4.21.44,8.46.51,12.7q.28,15.36.46,30.71c0,3-.65,5.59-4,6.58-.34.09-.55.62-1.17,1.37,1.27.1,2.1.21,2.92.21,4.81,0,9.61,0,14.41,0,7.48.1,15,.27,22.87.42.55-1.85,1.25-4.46,2.11-7,.64-1.9.05-2.83-2-3.07-2.92,4.92-7.44,6.38-12.9,6.08a104.25,104.25,0,0,0-11,0c-2.31.12-2.82-.76-2.78-2.88.13-6.08,0-12.17.05-18.25,0-.85.09-1.7.15-2.78,4.53,0,8.84.12,13.14,0,3.7-.13,6.37,1,7.7,4.7.21.59,1.42.83,2.17,1.23a8,8,0,0,0,.71-2.19c.07-3.18,0-6.37,0-9.56,0-.77,0-1.53,0-2.3l-.62-.54a10.7,10.7,0,0,0-2.44,1.86c-1.2,1.65-2.6,2.86-4.69,2.92-4.88.14-9.75.27-14.62.23-.51,0-1.44-1.18-1.45-1.83-.11-6.32,0-12.64-.09-19,0-1.48.55-2,2-1.95,4,.06,8,.15,12,0,4.16-.18,6.92,1.64,8.43,5.38.72,1.79,1.72,2.3,3.42,1.52ZM213.76,67.85l-.67-.69a9.75,9.75,0,0,0-2.29,1.7c-1.23,1.75-2.71,3-4.89,3-4.8.13-9.6.19-14.39.29-1.53,0-1.62-1-1.62-2.12,0-6.16,0-12.33,0-18.49,0-1.62.54-2.28,2.24-2.23,3.92.1,7.85.17,11.77,0,4.16-.19,7,1.66,8.46,5.36.81,2,1.93,2.18,3.5,1.63V44.78c-13,2.13-26.16.23-39.32,1.5a2.68,2.68,0,0,0,1.23,1.24,4.79,4.79,0,0,1,3.06,4.95c-.05,1.2,0,2.4,0,3.6q.25,19.82.54,39.61c0,2.88-.86,5-3.78,5.92-.43.14-.76.6-1.69,1.37,13.88,1,27.16-.85,40.5,1.25.71-2.48,1.32-5.12,2.24-7.65.7-1.95-.09-2.61-1.84-3-.37.44-.77.83-1.09,1.27a11.57,11.57,0,0,1-10.19,4.8c-4.48-.08-9-.07-13.45,0-1.51,0-2.2-.44-2.19-2q0-10,0-19.93c0-1.4.49-2,2-2,3.36.09,6.73.17,10.08,0,4.18-.23,7.69.41,9.14,5.07.14.42,1.11.8,1.68.79.35,0,1-.82,1-1.29C213.79,76.16,213.76,72,213.76,67.85Zm141.17-9.58c-.15-3.28-.22-6.47-.51-9.63-.05-.52-1-1.18-1.65-1.38a57.71,57.71,0,0,0-25.07-2.49c-14.19,1.9-24.65,12.24-26.18,26C299.93,85.06,308,97.56,322,102.3c9.12,3.09,18.36,2.65,27.72,1.26,3.15-.47,4.65-1.8,5-4.84.15-1.26.76-2.45,1-3.7.08-.53-.24-1.52-.59-1.63a2.33,2.33,0,0,0-1.95.35c-1,.8-1.66,1.94-2.61,2.79-10,8.91-27.68,5.27-34.18-7-4-7.56-4.48-15.64-2.84-23.82,2.23-11.07,7.45-16.48,17.17-18,6.86-1.08,16.55,1.35,20.23,8.87C351.79,58.37,352.86,58.79,354.93,58.27Zm177.2,142.19c-.18-3.08-.29-6.18-.61-9.26a2.59,2.59,0,0,0-1.51-1.72,55.81,55.81,0,0,0-25.77-2.42c-13.52,1.95-24.06,12.39-25.39,25.08C477.3,227,484.48,239,498,244.05c10.34,3.89,20.86,3.28,31.4,1.07a2.48,2.48,0,0,0,1.61-1.38c.85-2.55,1.5-5.17,2.21-7.71-2.14-1.07-2.07-1-3.36.34a28.17,28.17,0,0,1-4.6,4.15c-12,7.77-29.26.87-33.71-13.39a41.28,41.28,0,0,1-.89-19.47c2-12,10-18.55,21.91-17.9,6.5.35,12.22,2.74,15.48,8.88C528.94,200.31,529.81,201.2,532.13,200.46Zm-178.87-.08c-.2-3.21-.34-6.38-.68-9.54-.05-.53-.93-1.19-1.55-1.4a53.88,53.88,0,0,0-26.25-2.29c-14.59,2.55-25.18,13.35-25.07,29.4.11,15.13,9.42,24.25,20.82,28,9.89,3.27,19.85,2.65,29.83.61a2.85,2.85,0,0,0,1.78-1.53,44.42,44.42,0,0,0,1.8-6.2,2.22,2.22,0,0,0-.68-1.93c-.43-.24-1.46.13-1.95.55-1.08.93-1.9,2.17-3,3.08-11.28,9.28-29.63,3.81-35.06-10.45A37.57,37.57,0,0,1,312,206.74c2.63-11.78,10-17.6,21.68-17,6.61.35,12.37,2.8,15.6,9.08C350.14,200.52,351.05,201.12,353.26,200.38Zm135.51-72.1c-.2-3.24-.35-6.42-.67-9.59-.05-.48-.82-1.11-1.37-1.29A56.85,56.85,0,0,0,460.24,115a29.53,29.53,0,0,0-6,56.84c10.41,3.93,21,3.4,31.65,1.18a2.62,2.62,0,0,0,1.69-1.34,59.6,59.6,0,0,0,1.9-6.67,1.91,1.91,0,0,0-.79-1.65,2.11,2.11,0,0,0-1.79.44c-1,.83-1.67,1.94-2.62,2.79-10.05,8.93-27.5,5.33-34.16-7.05-3.63-6.75-4.23-14-3.29-21.44,1.53-12,8.1-21.42,22.37-20.47,6.6.44,12.38,2.83,15.56,9.15C485.67,128.56,486.65,129,488.77,128.28ZM143.09,200.45c-.18-3.3-.31-6.56-.59-9.81,0-.41-.76-1-1.27-1.12A57.36,57.36,0,0,0,115,187.08c-10.21,1.53-23.26,8.7-25.26,26a28.64,28.64,0,0,0,17,30c9,4.08,18.33,4,28,3.17,5.87-.51,8.59-3,9-8.52.06-.74,0-1.79-.4-2.19-1.1-1-1.68.15-2.48.83-2.3,1.94-4.49,4.25-7.16,5.45-11.61,5.24-25.75-.91-30.46-13-2.51-6.43-2.77-13.06-1.84-19.82,1.74-12.78,9.78-20,22.22-19.28,6.6.35,12.38,2.79,15.58,9.11C140,200.61,141,201.06,143.09,200.45Zm402.42-85.93-.67,0c-.52,1.23-1.07,2.44-1.56,3.68-6,15-11.87,30-17.9,45-1.33,3.33-2.83,6.65-6,8.82-.32.22-.42.76-.62,1.15a4.14,4.14,0,0,0,1.36.59c3.74,0,7.49,0,11.23,0a4.4,4.4,0,0,0,1.4-.54,12.65,12.65,0,0,1-.86-1.21c-.68-1.25-2-2.62-1.85-3.77a82.15,82.15,0,0,1,2.54-10.66c.14-.47,1.25-.94,1.91-1,5.53-.08,11.05-.1,16.58,0a2.88,2.88,0,0,1,2.13,1.36,78.82,78.82,0,0,1,3.21,8.78c.57,2,.84,4.17-1.64,5.42-.28.14-.32.75-.48,1.15a4.16,4.16,0,0,0,1.26.42c1.75-.08,3.51-.38,5.26-.37,2.79,0,5.58.28,8.38.37a2.92,2.92,0,0,0,1.45-.49c.08,0-.07-.9-.28-1-3.45-1.41-4.06-4.8-5.2-7.69-6.31-16-12.52-32-18.77-48C546.15,115.91,545.82,115.22,545.51,114.52Zm22,131.15a9.48,9.48,0,0,0,1.24.21c4.63,0,9.26,0,13.88,0a5.89,5.89,0,0,0,1.49-.44c-.16-.39-.22-1-.49-1.12-3-1.27-3.64-4.14-4.65-6.69q-9.6-24.42-19.1-48.89c-.3-.74-.68-1.46-1.29-2.78-.67,1.52-1.08,2.36-1.42,3.22-6.11,15.37-12.18,30.75-18.35,46.1-1.37,3.4-2.91,6.78-6.15,9-.32.22-.35.88-.62,1.64,4.65,0,8.94,0,13.23,0,.31,0,.9-.39.88-.52a1.61,1.61,0,0,0-.59-1.08,3.85,3.85,0,0,1-2.14-4.63c.69-3.35,1.6-6.66,2.59-9.94.15-.48,1.25-.95,1.91-1,5.53-.08,11-.1,16.58,0a2.88,2.88,0,0,1,2.14,1.34,80,80,0,0,1,3.22,8.77c.62,2.11.8,4.34-1.83,5.54C567.82,244.49,567.77,245,567.53,245.67ZM74.93,44.43h-.69c-.35.78-.73,1.53-1,2.32C67.56,61,62,75.27,56.25,89.49,54.41,94,52.93,98.89,48.66,102c-.25.19-.47.84-.35,1a1.67,1.67,0,0,0,1.12.6q5.85.06,11.71,0c.37,0,.74-.39,1.12-.6-.25-.34-.43-.84-.76-1-2.09-.9-2.55-2.7-2.17-4.57A85.49,85.49,0,0,1,61.83,88a2.67,2.67,0,0,1,2.06-1.38c5.52-.12,11-.11,16.57,0a2.66,2.66,0,0,1,2,1.15C83.81,91,85,94.32,86,97.68a3.43,3.43,0,0,1-1.49,4.19A7.67,7.67,0,0,0,83.37,103a5.08,5.08,0,0,0,1.63.58c4.39,0,8.77,0,13.16,0a1.87,1.87,0,0,0,.71,0c.33-.14.78-.34.86-.61a1.07,1.07,0,0,0-.4-1c-2.87-1.49-3.58-4.41-4.62-7C88.84,80.08,83.05,65.11,77.22,50.16,76.47,48.24,75.69,46.34,74.93,44.43Zm283.51,59.21c4.57,0,8.78,0,13,0a1,1,0,0,0,.81-.62,1.09,1.09,0,0,0-.47-.92c-2.7-1.32-2.57-3.68-2.06-6A58.61,58.61,0,0,1,372,88.26a3,3,0,0,1,2.16-1.62c5.52-.14,11.05-.11,16.58,0,.68,0,1.78.42,2,.92a102.62,102.62,0,0,1,3.6,10.88c.24,1-.91,2.32-1.49,3.45a6.28,6.28,0,0,1-1,1.11,4.72,4.72,0,0,0,1.56.65c4.47,0,8.94,0,13.41,0a1.86,1.86,0,0,0,.71,0c.27-.1.68-.31.69-.5s-.11-.9-.34-1c-3-1.23-3.67-4.11-4.67-6.66Q395.65,71.25,386.25,47c-.35-.9-.81-1.77-1.52-3.31-.73,1.78-1.18,2.86-1.62,4-5.74,14.48-11.44,29-17.25,43.44-1.6,4-3.09,8.1-6.76,10.85C358.77,102.17,358.74,102.82,358.44,103.64Zm22.56,83h-.77c-.33.79-.67,1.57-1,2.36-6,15.15-12,30.31-18.09,45.44-1.46,3.62-3,7.29-6.33,9.72-.34.25-.36.92-.65,1.74,4.54,0,8.74,0,12.95,0,.3,0,.88-.42.86-.55a1.8,1.8,0,0,0-.63-1.11c-2.08-1.33-2.46-3.23-1.89-5.44.73-2.86,1.43-5.74,2.36-8.53a2.73,2.73,0,0,1,2-1.47c5.61-.13,11.22-.11,16.82,0a2.39,2.39,0,0,1,1.84,1.07c1.32,3.34,2.56,6.72,3.61,10.15a3.44,3.44,0,0,1-1.58,4.17c-.43.27-.66.85-1,1.29a6.14,6.14,0,0,0,1.72.44c2.63-.08,5.27-.35,7.9-.36,2.21,0,4.42.23,6.86.38-.18-.71-.17-1.39-.42-1.51-2.79-1.29-3.56-4-4.54-6.5q-7.67-19.53-15.27-39.08Q383.41,192.7,381,186.62ZM248.29,113.86c-.62,1.39-1,2.14-1.29,2.92-5.72,14.41-11.38,28.84-17.17,43.23-1.75,4.34-3.23,8.92-7.19,12a1.4,1.4,0,0,0-.43,1.22c.09.28.72.56,1.11.56,3.75,0,7.49,0,11.24,0a3.68,3.68,0,0,0,1.21-.48c-.18-.38-.26-1-.56-1.12-2.39-1.26-2.58-3.4-2.09-5.6a73.74,73.74,0,0,1,2.43-8.51,2.74,2.74,0,0,1,2.09-1.4c5.52-.12,11.05-.1,16.58,0,.67,0,1.75.43,1.94.93,1.33,3.5,2.6,7.05,3.65,10.64a3.22,3.22,0,0,1-1.67,3.89c-.37.21-.54.79-.81,1.2a4.42,4.42,0,0,0,1.45.48c1.44-.05,2.87-.36,4.3-.34,3,0,6.07.26,9.1.35a5,5,0,0,0,1.5-.42c-.15-.4-.19-1-.46-1.15-2.53-1.18-3.34-3.58-4.24-5.88q-9.62-24.56-19.19-49.13C249.42,116.28,249,115.39,248.29,113.86ZM323,162.53c.22,2.58.38,5.12.69,7.64a2.12,2.12,0,0,0,1.1,1.36c7.65,3.39,15.47,4.82,23.38,1.06,6.45-3.06,9.66-8.25,9.51-15.56-.16-7.12-3.58-11.72-10.1-14.21-1.26-.49-2.55-.92-3.82-1.41a92.15,92.15,0,0,1-9.12-3.56c-4.33-2.2-6.09-6.09-5.46-10.81.61-4.53,3.4-7.52,7.72-8.92,6.3-2,13.12.9,16.6,6.81.42.73,1.69,1,2.57,1.42a7.74,7.74,0,0,0,.86-2.16c.14-1.51-.08-3,.08-4.55.17-1.68-.58-2.46-2.05-3a36,36,0,0,0-19.58-1.58,17.66,17.66,0,0,0-14.13,16.16c-.62,8.05,2.93,13.4,11.15,16.75,1.11.45,2.24.85,3.36,1.27,2.77,1,5.59,1.93,8.29,3.12,3.83,1.69,6.23,4.56,5.9,9a10.22,10.22,0,0,1-7,9.44,13.51,13.51,0,0,1-16.75-6.9C325.55,162.52,325,161.64,323,162.53Zm-44.4-.11c.26,2.52.42,4.91.8,7.27a2.93,2.93,0,0,0,1.33,2c7.34,3.18,14.83,4.49,22.52,1.23,6.63-2.8,10.09-8.22,10-15.68,0-7.24-3-11.54-10.1-14.42-1.25-.51-2.55-.9-3.82-1.38a94.81,94.81,0,0,1-9.12-3.58c-4.35-2.22-5.92-6.14-5.36-10.86a9.94,9.94,0,0,1,7.08-8.61,14,14,0,0,1,14.69,3.17c1.08,1,1.6,2.58,2.63,3.67a4.62,4.62,0,0,0,2.55,1.06c.18,0,.79-1.16.84-1.81.13-1.68-.05-3.37.07-5,.12-1.48-.56-2.14-1.85-2.62a35.17,35.17,0,0,0-20-1.68A17.45,17.45,0,0,0,277,130.68c-.61,8.86,2.68,13.95,11.22,17.39,1.12.45,2.25.82,3.38,1.24,2.69,1,5.45,1.85,8.07,3,3.84,1.69,6.17,4.58,5.91,9a10.12,10.12,0,0,1-6.93,9.47,13.45,13.45,0,0,1-16.77-6.86C281.17,162.36,280.41,161.75,278.57,162.42ZM516.82,260l-.14.65a20.17,20.17,0,0,0-13,3.49c-5.62,3.91-7.92,9.5-7.52,16.19s4.07,10.92,10,13.41c1.55.65,3.15,1.17,4.71,1.76,2.91,1.11,5.88,2.1,8.7,3.39a8.45,8.45,0,0,1,4.89,5.6c2,7.54-5.06,14.73-13.08,13.16-4.73-.93-8.43-3.3-10.55-7.85-.27-.58-1.29-.81-2-1.21-.3.63-.87,1.27-.85,1.89a40.66,40.66,0,0,0,.5,5.73,2.4,2.4,0,0,0,1.21,1.54c7.74,3.43,15.64,4.76,23.6.86,6.37-3.12,9.34-8.35,9.19-15.52s-3.66-11.52-10-14.07c-1-.39-2-.71-2.93-1.06-3-1.09-6.09-2-9-3.32-5.37-2.46-7.77-7.39-6.42-12.51a11.32,11.32,0,0,1,11.93-8.38c5.28.31,9.53,2.38,12.17,7.28.39.73,1.69,1,2.57,1.44a9.3,9.3,0,0,0,.9-2.37c.15-1.5-.05-3,.07-4.56a2.14,2.14,0,0,0-1.86-2.58Q523.43,261.46,516.82,260Zm-76.73,8.12a8.65,8.65,0,0,1,0-1.44c.43-2.45-.66-3.72-3-4.19-2.73-.53-5.43-1.41-8.18-1.69-6.33-.64-12.41-.08-17.82,3.94-8.75,6.5-10.19,23.74,3.28,28.94,1.56.61,3.13,1.2,4.7,1.79,2.83,1.08,5.72,2,8.49,3.27,3.49,1.55,5.64,4.26,5.58,8.22a10.17,10.17,0,0,1-5.65,9.37,13.53,13.53,0,0,1-17.8-5.57,5.82,5.82,0,0,0-.89-1.68,2.28,2.28,0,0,0-1.7-.41,1.46,1.46,0,0,0-.8,1.18c.09,2.23.25,4.47.55,6.68.06.49.72,1.06,1.24,1.28,7.1,3.09,14.37,4.41,21.88,1.59A16.5,16.5,0,0,0,441,304c0-7.48-3.28-12.22-10.66-15.16-1.26-.5-2.57-.88-3.84-1.35-2.7-1-5.48-1.81-8.06-3.05a10.53,10.53,0,0,1-6-12.1,11.26,11.26,0,0,1,11.06-8.6c5.74.08,10.43,2.1,13.22,7.53.34.65,1.61.9,2.5,1.09a4.26,4.26,0,0,0,.83-1.84A13.72,13.72,0,0,0,440.09,268.12ZM242.42,191.69c0,1.92,0,3.51,0,5.1.28,13.28.61,26.56.82,39.84,0,3.18-.81,6-4.23,7.39-.46.18-.7.93-1.37,1.87,6.54,0,12.43,0,18.32,0,.34,0,1-.6.94-.71-.17-.47-.47-1.07-.88-1.23-3.5-1.41-4.27-4.35-4.25-7.62.09-14.25.28-28.5.38-42.75,0-1.39.38-2,1.9-2,3.52.09,7,0,10.57.06,3,.07,5.27,1.44,6.15,4.42.59,2,1.65,2.24,3.37,1.53V187.32a528.18,528.18,0,0,1-54.27-.08v10.38c1.64.56,2.63.39,3.13-1.46a5.54,5.54,0,0,1,5.14-4.4C232.75,191.52,237.38,191.69,242.42,191.69Zm358-18.11c-.57-.77-.83-1.5-1.31-1.69-3.59-1.44-4.33-4.34-4.31-7.78,0-8.73,0-17.45,0-26.18,0-6.05.3-12.11.47-18.43,3.18,0,6.13.11,9.06,0,4.46-.2,8.39.33,9.85,5.51.11.4,1.14.76,1.72.73a1.62,1.62,0,0,0,1.08-1.18c.09-3.18.05-6.36.05-9.23-18.17.72-36.09.81-54.35-.09,0,2.51-.07,5.37,0,8.22,0,.8.45,2,1,2.25,1.41.62,1.83-.62,2.21-1.74a6.17,6.17,0,0,1,6.19-4.41c3.76-.1,7.52,0,11.28-.06,1.46,0,2,.5,2,1.94,0,2.64.08,5.28.11,7.92q.23,18.35.43,36.69a6,6,0,0,1-3.43,5.62,12.78,12.78,0,0,0-2,1.93ZM452.31,234.07c-2.62,4.48-4,5.77-7.48,6.62-6.21,1.49-12.52,1.41-18.84.93-1.67-.13-2.3-.75-2.28-2.53q.33-21.72.48-43.45c0-2.77.73-5,3.43-6.31.39-.19.57-.8.85-1.21a3.46,3.46,0,0,0-1.22-.51q-7.9-.06-15.81,0c-.45,0-.9.42-1.35.64.31.39.54,1,.94,1.15,3.36,1.52,4.26,4.43,4.27,7.7q.09,20.42,0,40.83c0,3.08-1.3,5.38-4.48,6.33-.44.13-.75.73-1.12,1.11a4.79,4.79,0,0,0,1.43.47c7-.11,13.91-.42,20.86-.34,6.06.07,12.11.59,18.16.85.5,0,1.35-.32,1.47-.69,1.15-3.44,2.18-6.92,3.27-10.46ZM199.57,187.74c.13.59.11,1,.24,1,3.62,1.53,3.57,4.69,3.59,7.86s.18,6.55.22,9.83q.18,16.41.31,32.83a5.19,5.19,0,0,1-2.93,4.87c-.39.21-.6.76-.89,1.16a4.18,4.18,0,0,0,1.41.54c1.43,0,2.86-.36,4.29-.34,3.11,0,6.22.26,9.33.35a5,5,0,0,0,1.46-.48c-.19-.38-.29-1-.59-1.1-2.82-1.26-3.26-3.7-3.27-6.38,0-5.36,0-10.72,0-16.08,0-8.71.11-17.43.24-26.15,0-2.69-.08-5.57,3.26-6.76.2-.07.21-.65.37-1.18Zm80-142.4h0a8.55,8.55,0,0,0-1.68,0,1.31,1.31,0,0,0-.8.66.88.88,0,0,0,.3.79c4,1.4,3.35,4.79,3.45,7.86.25,7.75.57,15.5.72,23.25.12,6.09.09,12.17,0,18.26,0,2.46-.64,4.78-3.35,5.85-.31.12-.46.68-.68,1,.4.19.8.55,1.18.54,2.4-.08,4.79-.35,7.19-.35s4.62.27,6.94.35c.39,0,.79-.35,1.19-.54-.22-.36-.35-.91-.66-1.06-2.59-1.21-3.19-3.51-3.17-6,.11-15,.23-29.92.53-44.88,0-1.34,1.38-2.66,2.15-4a11.71,11.71,0,0,1,1.06-1.29,6.09,6.09,0,0,0-1.68-.54C288,45.31,283.78,45.34,279.55,45.34Zm14.51,142.54h-17.3c.34.62.43,1.05.64,1.13,3,1.05,3.39,3.53,3.41,6.2s0,5.28.07,7.92c.22,11.59.51,23.17.67,34.76,0,2.6-.45,5.15-3.34,6.36-.32.14-.48.67-.72,1,.37.21.75.6,1.12.59,1.36,0,2.71-.35,4.06-.33,3.27.05,6.54.25,9.81.33a4.88,4.88,0,0,0,1.48-.43c-.16-.39-.22-1-.51-1.14-3.08-1.48-3.33-4.25-3.3-7.12.13-14.15.32-28.31.42-42.46,0-2.46.25-4.65,2.95-5.69C293.76,188.93,293.83,188.39,294.06,187.88Zm202.39-72.24c.29.68.35,1.22.58,1.31,2.92,1.1,3.16,3.63,3.21,6.14q.4,21.1.72,42.23c.05,2.84-.35,5.44-3.31,6.87-.29.14-.48.73-.49,1.12,0,.15.61.47.93.46,1,0,2.07-.28,3.1-.26,3.51.05,7,.21,10.53.25a6.35,6.35,0,0,0,1.87-.56c-.38-.41-.79-.81-1.13-1.25-.87-1.09-2.06-2.09-2.47-3.34a15.93,15.93,0,0,1-.48-5c.06-10.71.19-21.43.29-32.15,0-3-.05-5.92.07-8.88.07-2,.21-4,2.23-5.26.45-.27.69-.87,1-1.31a6.15,6.15,0,0,0-1.71-.5c-3.11,0-6.22.08-9.33.12C500.34,115.66,498.59,115.64,496.45,115.64ZM634,153.79h.35q0-15.71,0-31.43c0-2.14.28-4.17,2.58-5.24.32-.15.44-.7.66-1.07a4.43,4.43,0,0,0-1.44-.53q-6.82-.06-13.65,0a4.14,4.14,0,0,0-1.38.6,9.17,9.17,0,0,1,.95,1.13c.84,1.37,2.06,2.67,2.33,4.15a49.2,49.2,0,0,1,.44,7.88q.33,18.36.58,36.71c0,2.47-.53,4.78-3.09,6-.47.23-.76.8-1.13,1.21a5.07,5.07,0,0,0,1.65.54c3.27-.07,6.54-.28,9.81-.33,1.43,0,2.87.28,4.3.33a1.67,1.67,0,0,0,1.07-.63c.09-.11-.22-.8-.47-.89-3.33-1.23-3.48-4.1-3.54-6.94C633.9,161.48,634,157.63,634,153.79ZM72.43,194c1.95,0,3.53,0,5.11,0,.36,0,.71-.43,1.07-.67-.37-.31-.71-.86-1.1-.89-1.48-.1-3,0-4.78,0,.24-3.11.35-5.81.69-8.47.56-4.35,1.08-8.72,2-13,.78-3.65,3.58-4.86,7-3.31a23,23,0,0,1,3,2c0-.65.06-1.13.06-1.6,0-3.66-.22-3.94-3.83-4-5,0-8.84,2.43-10.63,8.08a109.3,109.3,0,0,0-3.45,16.57c-.37,2.49-.61,4.25-3.69,3.76-.34,0-.77.54-1.16.83.4.25.79.67,1.23.74a25.51,25.51,0,0,0,2.84.17,13.48,13.48,0,0,1,.08,1.66c-.61,7.64-1.15,15.29-1.89,22.92-.46,4.76-1.06,9.52-1.91,14.22-.69,3.84-3.1,6.3-7.16,6.6-2.33.17-4.67,0-7.08,0,1.34,3.52,1.88,3.82,5.13,3.4,5.7-.75,9.69-3.84,12.33-8.84A41.25,41.25,0,0,0,70.5,218C71.18,210.15,71.77,202.27,72.43,194ZM60.89,204.82c0-1,.06-1.92,0-2.88-.53-7.05-5.21-11.37-11.43-9.91a15.35,15.35,0,0,0-7.24,4.26c-6.06,6.47-8.55,14.17-5.92,22.93,1.65,5.47,6,7.91,11.31,6.37a14.56,14.56,0,0,0,5.39-3A23.21,23.21,0,0,0,60.89,204.82Zm409.4,17.39c-5.6,0-10.87.06-16.14,0-1.73,0-2,.8-1.95,2.2s0,2.54,1.95,2.52c4.8-.06,9.6-.05,14.39,0,1.49,0,2-.64,1.89-2C470.35,224.09,470.35,223.3,470.29,222.21Z" fill="#fff"/><path d="M137.44,103.71,114,64.55l-.52,0c-.15,1-.37,1.92-.44,2.89-.54,8.7-1.11,17.39-1.55,26.1-.17,3.42.07,6.83,4,8.41.31.13.45.7.67,1.06-.39.2-.78.55-1.17.55-1.11,0-2.23-.24-3.34-.22-2.87,0-5.74.19-8.62.23a2.76,2.76,0,0,1-1.35-.62c-.06,0,.18-.84.42-.94,4.19-1.78,4.37-5.67,4.72-9.28,1.35-14.08,2.55-28.17,3.8-42.26.13-1.51.16-3,.41-4.53.09-.57.71-1.53,1-1.51a4,4,0,0,1,2.14,1,6.74,6.74,0,0,1,1.09,1.85q11.16,19.86,22.33,39.74c.46.82,1,1.61,1.7,2.82.61-1.07,1.07-1.78,1.44-2.52q10.08-20.44,20.14-40.88c.64-1.29,1.16-2.78,3.32-1.76.49,6,1,12.16,1.47,18.29.84,10.83,1.58,21.68,2.52,32.51.22,2.6.8,5.29,3.7,6.54a1.08,1.08,0,0,1,.49.91c-.05.26-.49.49-.81.65s-.47,0-.71,0c-4.47,0-8.93,0-13.4,0a5,5,0,0,1-1.6-.62,4.68,4.68,0,0,1,.89-1.22,5.34,5.34,0,0,0,2.5-5.13c-.53-7.89-1.12-15.78-1.72-23.67-.19-2.45-.47-4.9-.71-7.35l-.63-.17Z"/><path d="M396.12,114.52a35.89,35.89,0,0,1,16.11,3c9.11,4.08,14.32,11.18,15.88,21a35.36,35.36,0,0,1-1.23,17.27c-3.38,9.88-10.64,15.48-20.56,17.84a42.88,42.88,0,0,1-22.26-.52c-13.37-3.92-20.64-14.75-20.31-29.48.43-18.76,13.39-28.31,29.49-29.09C394.2,114.48,395.16,114.52,396.12,114.52Zm-21,31.84a31.08,31.08,0,0,0,3.85,14.87c3.77,6.82,9.6,10.46,17.38,10.38s13.7-3.67,17.18-10.67c5.27-10.61,5.25-21.47.32-32.14-3.14-6.8-8.69-10.77-16.36-11.17-8.31-.44-14.51,3.08-18.54,10.37C376.06,133.17,375.08,138.78,375.09,146.36Z"/><path d="M677.64,114.3c7.78.12,15.11,1.64,21.5,6.33s9.55,11.15,10.64,18.87a35.8,35.8,0,0,1-.8,14.25c-2.71,10.28-9.52,16.62-19.59,19.46a42.77,42.77,0,0,1-24.8-.39c-10.9-3.42-17.91-12.38-19.08-23.75-.85-8.23.24-16,5.11-22.83,4.73-6.65,11.56-9.88,19.4-11.2C672.53,114.62,675.1,114.54,677.64,114.3Zm.09,3.28c-7.4.06-13.15,3.19-16.83,9.61-4.81,8.39-5.4,17.4-3.25,26.68,1.32,5.7,3.87,10.72,8.71,14.21,10.34,7.43,24.51,3.12,29.62-9.08a36.67,36.67,0,0,0,.35-28C693,122.32,686.29,117.61,677.73,117.58Z"/><path d="M333.79,319.92v-7.66c-1.22.95-2.25,1.72-3.25,2.54-8.17,6.79-17.3,7.79-27,4.16-7.4-2.76-11.6-9.27-11.68-17.1-.11-11-.3-21.92-.48-32.88,0-2.35-.59-4.43-3-5.59-.4-.19-.6-.78-.89-1.18.47-.2.94-.58,1.4-.57,2.16.07,4.31.36,6.47.35,2.71,0,5.42-.27,8.14-.35a4.16,4.16,0,0,1,1.44.51c-.35.43-.62,1.05-1.07,1.25a5.21,5.21,0,0,0-3.16,5c-.08,10.48-.34,21,.06,31.43.34,9.05,7.25,15,16.32,15.18a19.46,19.46,0,0,0,10.38-2.33c4.22-2.46,6.59-6.2,6.54-11-.12-11.44-.53-22.87-.84-34.31,0-2-1.44-3.06-3.08-3.92-.47-.25-.78-.79-1.17-1.19a5.31,5.31,0,0,1,1.61-.61c4.87-.05,9.74,0,14.6,0a5.33,5.33,0,0,1,1.62.6,7.78,7.78,0,0,0-1.12,1.26c-.93,1.68-2.52,3.38-2.56,5.1-.34,14.32-.44,28.65-.48,43,0,2.88.34,5.9,4,6.81.26.07.41.55.62.84-.43.23-.86.67-1.29.68C342,319.94,338,319.92,333.79,319.92Z"/><path d="M180.38,245.89c2.75-3.57.31-5.36-1.41-7.38-4.38-5.1-8.7-10.24-13.15-15.28a34.77,34.77,0,0,0-4.21-3.43c-.15,1.44-.28,2.1-.29,2.77,0,5.12,0,10.24,0,15.37,0,2.68.69,4.86,3.4,6,.44.19.65.91,1,1.39a6.31,6.31,0,0,1-1.68.5q-6.81.06-13.63,0a6.36,6.36,0,0,1-1.7-.47c.37-.52.63-1.26,1.13-1.51a4.82,4.82,0,0,0,2.75-4.88c-.11-14-.15-28-.25-42a30.41,30.41,0,0,0-.3-3.82,4.67,4.67,0,0,0-3.44-3.91c-.36-.14-.59-.6-.88-.91.34-.25.7-.75,1-.72,9.06.78,18.25-1.38,27.21,1,6.58,1.74,11.58,5.37,13,12.58,1.12,5.72-.92,10.33-5.35,13.72-2.68,2.05-5.89,3.42-9.08,5.22a15.65,15.65,0,0,0,1,1.4c5.17,6,10.28,12.06,15.57,18,1.57,1.75,3.67,3,5.49,4.55a5.11,5.11,0,0,1,.81,1.27c-.31.19-.62.54-.93.54C191.29,245.9,186.21,245.89,180.38,245.89Zm-18.83-40.75h-.21v7.92c0,5.54.86,6.24,6.34,5.07.55-.12,1.1-.24,1.63-.4,5.58-1.65,11.51-6.73,9.63-16.9-1.24-6.78-6-10.82-13.18-10.65-3.2.07-4.1.88-4.19,4.16C161.47,197.93,161.55,201.54,161.55,205.14Z"/><path d="M636.4,245.67H619.51c2.22-4.13-1.21-6.09-3.23-8.54q-5.67-6.84-11.58-13.49a37.4,37.4,0,0,0-4-3.49l-.7.38a22.26,22.26,0,0,0-.26,2.43c0,4.73,0,9.45,0,14.18,0,3,.52,5.76,3.87,7,.37.13.54.8.8,1.23a5.74,5.74,0,0,1-1.67.52c-3.51-.08-7-.29-10.55-.33-1.64,0-3.3.26-4.95.4l-.36-.57c.43-.49.76-1.21,1.3-1.44a4.84,4.84,0,0,0,3.06-5q-.19-22.22-.49-44.43a5.13,5.13,0,0,0-3.49-5.22,2,2,0,0,1-1.17-1.46,13.05,13.05,0,0,1,1.74-.26c6.72,0,13.44-.14,20.15,0a23.18,23.18,0,0,1,14.1,4.66c7,5.51,7.66,15.64,1.08,21.61-2.31,2.1-5.36,3.38-8.1,5a20.25,20.25,0,0,1-2.61,1C620.51,228.43,626.85,238.06,636.4,245.67Zm-36.27-34.36h-.42c0,1.6,0,3.2,0,4.8s.57,2.11,2.09,2.23c7.69.63,17-4.23,15.94-15.78-.77-8-6-12.82-13.88-12.38-2.82.16-3.7,1-3.71,3.85C600.12,199.79,600.13,205.55,600.13,211.31Z"/><path d="M367.77,294.21a6.76,6.76,0,0,0-.48,1.51c0,5.76.09,11.52.14,17.28a5.15,5.15,0,0,0,3.33,5.07c.45.19.69.87,1,1.32a4.94,4.94,0,0,1-1.45.51q-7.18.06-14.36,0c-.52,0-1-.43-1.55-.67.41-.4.74-1,1.23-1.18a4.78,4.78,0,0,0,3-5q-.26-22.2-.48-44.42c0-2.71-1.16-4.57-3.83-5.41-.36-.12-.61-.57-.91-.87.33-.26.69-.78,1-.74,9.13,1.11,18.41-1.44,27.47,1,5.47,1.48,10.06,4.25,12.26,9.81,2.54,6.38.68,12.8-5.15,17-2.55,1.83-5.54,3.06-8.53,4.67a10.49,10.49,0,0,0,.87,1.32c5.27,6.13,10.5,12.3,15.88,18.33a53.23,53.23,0,0,0,5.1,4.31,4.45,4.45,0,0,1,.74,1.3,3.94,3.94,0,0,1-1.22.5c-4.85,0-9.7,0-14.72,0,.06-.68-.07-1.26.16-1.53,1.12-1.3.53-2.44-.33-3.44-5.29-6.21-10.6-12.42-16-18.56A16.54,16.54,0,0,0,367.77,294.21Zm3.29-1.83c9.92,0,16.13-8.07,13.82-17.89-1.56-6.62-5.9-10.25-12.31-10.29-4,0-5,1-5,4.93,0,6.4,0,12.81-.14,19.21C367.34,292.4,367.18,292.39,371.06,292.38Z"/><path d="M250.85,78.08c7.8,8.1,14,17.81,22.85,25.35H257.48c2.4-3.69-.6-5.52-2.4-7.68Q248.86,88.28,242.4,81a26.55,26.55,0,0,0-3.64-3c-.52.5-.72.61-.73.72-.05,6.07-.18,12.14-.09,18.22a5.18,5.18,0,0,0,3.61,4.92c.4.15.64.72.94,1.1-.45.22-.9.61-1.36.61q-7.29.07-14.6,0a4.09,4.09,0,0,1-1.39-.57c.36-.43.64-1.06,1.1-1.27,2.32-1,3.11-2.88,3.09-5.21q-.22-22-.49-43.93c0-2.6-1-4.65-3.68-5.58-.41-.14-.66-.7-1-1.06.37-.22.77-.67,1.1-.63,8.89,1.13,17.94-1.46,26.74,1a23.94,23.94,0,0,1,7.76,3.56,14,14,0,0,1,.38,22.82C257.49,74.82,254.26,76.16,250.85,78.08Zm-12.61-8.87h-.42c0,1.6,0,3.2,0,4.8,0,1.38.5,2,1.95,2.1,8.4.74,17.08-4.67,16.1-15.59-.72-8-6.44-13.31-14-12.55-2.82.28-3.62,1.13-3.63,4C238.23,57.69,238.24,63.45,238.24,69.21Z"/><path d="M467.94,104.28c-2.16.89-3.27-.13-4.42-1.39q-19-20.72-38-41.38c-.54-.59-1-1.21-1.72-2-.28.54-.52.79-.52,1,.13,11.2.22,22.4.47,33.6.08,3.38,1.46,6.19,4.82,7.68.4.17.6.78.9,1.18-.45.22-.9.61-1.35.62-4.46,0-8.93,0-13.39,0-.41,0-.8-.35-1.2-.53.26-.42.42-1,.8-1.23,3.55-1.76,4.34-4.9,4.35-8.43q.06-23.29.09-46.59V44.71a4.12,4.12,0,0,1,5,1.28Q442,66.24,460.39,86.35c.83.91,1.74,1.77,2.95,3,.06-1.26.13-2,.13-2.79,0-9.28,0-18.57,0-27.85a33.65,33.65,0,0,0-.63-6.18,6.66,6.66,0,0,0-4.46-5.5c-.42-.15-.72-.64-1.07-1,.42-.24.85-.69,1.27-.69,4.63-.06,9.26,0,13.88,0,.41,0,.81.34,1.21.52-.21.36-.33.94-.63,1.06-4.54,1.81-4.91,5.83-4.95,9.78-.13,15-.09,29.94-.12,44.9Z"/><path d="M274,305c0-.68.14-1.37.14-2.06,0-9.69.06-19.37,0-29.06a16.53,16.53,0,0,0-1.07-6.31c-.7-1.6-2.41-2.77-3.69-4.1-.43-.45-.92-.83-1.39-1.25a6.79,6.79,0,0,1,1.89-.56c2.55.06,5.1.33,7.66.34,1.91,0,3.82-.28,5.74-.34a1.65,1.65,0,0,1,1.05.67c.08.11-.24.78-.5.88-4.83,1.85-5,6.15-5,10.2-.17,14.89-.11,29.78-.14,44.67v2.49c-1.94.79-3.05,0-4.19-1.2q-19-20.73-38-41.39a23.6,23.6,0,0,1-1.66-2.27l-.74.44c0,.83-.12,1.65-.12,2.48q.09,14.06.22,28.1a28.16,28.16,0,0,0,.38,4.77c.53,2.87,1.81,5.27,4.66,6.56.41.19.66.76,1,1.15-.42.24-.85.69-1.27.7q-6.71.08-13.4,0c-.44,0-.86-.44-1.3-.68.25-.35.41-.88.75-1,3.71-1.72,4.47-5,4.48-8.58,0-13.61,0-27.22,0-40.83a48.12,48.12,0,0,1,.27-5.5c.11-.89.71-2.5,1-2.47a5.61,5.61,0,0,1,3.33,1.14c3.73,3.85,7.27,7.88,10.88,11.85l26.79,29.5c.58.65,1.11,1.35,1.67,2Z"/><path d="M758.35,115.87a15.2,15.2,0,0,1,1.93-.36c4.39,0,8.78,0,13.17,0a5.29,5.29,0,0,1,1.63.6,5.54,5.54,0,0,1-1.14,1.26c-3.72,2.11-4.08,5.75-4.11,9.37-.11,11,0,21.94-.08,32.9,0,4.08-.13,8.16-.29,12.23a14.36,14.36,0,0,1-.7,2.82c-1-.44-2.33-.61-3-1.35-5.7-6.06-11.29-12.23-16.92-18.36q-11-11.94-21.91-23.88a3.41,3.41,0,0,0-1.66-1.29,17.07,17.07,0,0,0-.17,1.74c0,9.76,0,19.53.1,29.29a24.69,24.69,0,0,0,.54,5,7.94,7.94,0,0,0,4.62,6.05c.41.17.64.77,1,1.17-.34.24-.68.7-1,.7-4.93,0-9.86,0-15.41,0,.64-1,.87-1.67,1.34-1.9,3.59-1.76,4.28-5,4.3-8.47.07-15.37.07-30.74.1-46.11v-2.45a3.94,3.94,0,0,1,4.91,1.2q18.42,20.42,37,40.71c.73.81,1.32,1.73,2,2.61l.67-.46c.06-.6.18-1.19.18-1.79,0-9.76,0-19.53-.06-29.29a29.45,29.45,0,0,0-.8-5.67,6.38,6.38,0,0,0-4.31-5A10.53,10.53,0,0,1,758.35,115.87Z"/><path d="M638,188.2a21.49,21.49,0,0,1,2.62-.31c8.25,0,16.5.05,24.74,0,4,0,7.93-.4,12.14-.63-.06.74-.24,1.82-.23,2.89,0,2.07.21,4.15.16,6.22a6.9,6.9,0,0,1-.81,2.13,8,8,0,0,1-2.49-1.22c-.8-.85-1-2.3-1.9-3-1.38-1.1-3-2.42-4.67-2.52-5.17-.32-10.38-.12-15.78-.12v22.27c5.72,0,11.38.17,17-.14,1.25-.07,2.37-1.91,3.61-2.85a14.6,14.6,0,0,1,2.09-1.15,6.9,6.9,0,0,1,.74,2c.07,3.44.08,6.88,0,10.32,0,.63-.6,1.25-.93,1.87-.61-.38-1.59-.62-1.77-1.14-1.38-3.92-4.16-5-8.08-4.81-4.14.24-8.31.06-12.66.06v24.11c6.61-.28,13.19-.1,19.61-1,2.63-.39,4.91-3.18,7.79-5.18,1.14.22,1.56,1.15.93,3-.86,2.47-1.46,5-2.15,7.49-12.48-1.79-24.88-.53-37.24-.92-.9,0-1.8-.11-2.69-.17-.06-.24-.11-.47-.17-.71.54-.29,1.06-.64,1.62-.88a4.9,4.9,0,0,0,3.32-5q-.29-22.33-.51-44.66a4.4,4.4,0,0,0-2.51-4c-.64-.35-1.27-.71-1.9-1.07Z"/><path d="M486.57,261.21V272.5c-1.7.78-2.7.27-3.42-1.52-1.51-3.74-4.27-5.56-8.43-5.38-4,.16-8,.07-12,0-1.43,0-2,.47-2,1.95.05,6.32,0,12.64.09,19,0,.65.94,1.82,1.45,1.83,4.87,0,9.74-.09,14.62-.23,2.09-.06,3.49-1.27,4.69-2.92a10.7,10.7,0,0,1,2.44-1.86l.62.54c0,.77,0,1.53,0,2.3,0,3.19.05,6.38,0,9.56a8,8,0,0,1-.71,2.19c-.75-.4-2-.64-2.17-1.23-1.33-3.71-4-4.83-7.7-4.7-4.3.16-8.61,0-13.14,0-.06,1.08-.15,1.93-.15,2.78,0,6.08.08,12.17-.05,18.25,0,2.12.47,3,2.78,2.88a104.25,104.25,0,0,1,11,0c5.46.3,10-1.16,12.9-6.08,2.08.24,2.67,1.17,2,3.07-.86,2.55-1.56,5.16-2.11,7-7.91-.15-15.39-.32-22.87-.42-4.8-.06-9.6,0-14.41,0-.82,0-1.65-.11-2.92-.21.62-.75.83-1.28,1.17-1.37,3.36-1,4-3.59,4-6.58q-.19-15.34-.46-30.71c-.07-4.24-.12-8.49-.51-12.7-.12-1.3-1.27-2.53-2.07-3.72a11.86,11.86,0,0,0-1.67-1.65,12.66,12.66,0,0,1,2.44-.52c9.12,0,18.25,0,27.37-.06C480.44,262,483.44,261.49,486.57,261.21Z"/><path d="M213.76,67.85c0,4.15,0,8.31,0,12.45,0,.47-.61,1.28-1,1.29-.57,0-1.54-.37-1.68-.79-1.45-4.66-5-5.3-9.14-5.07-3.35.18-6.72.1-10.08,0-1.49,0-2,.56-2,2q0,10,0,19.93c0,1.58.68,2.05,2.19,2,4.48-.07,9-.08,13.45,0a11.57,11.57,0,0,0,10.19-4.8c.32-.44.72-.83,1.09-1.27,1.75.38,2.54,1,1.84,3-.92,2.53-1.53,5.17-2.24,7.65-13.34-2.1-26.62-.26-40.5-1.25.93-.77,1.26-1.23,1.69-1.37,2.92-.93,3.83-3,3.78-5.92q-.31-19.8-.54-39.61c0-1.2-.07-2.4,0-3.6a4.79,4.79,0,0,0-3.06-4.95,2.68,2.68,0,0,1-1.23-1.24c13.16-1.27,26.34.63,39.32-1.5V56.31c-1.57.55-2.69.39-3.5-1.63-1.49-3.7-4.3-5.55-8.46-5.36-3.92.18-7.85.11-11.77,0-1.7,0-2.25.61-2.24,2.23,0,6.16,0,12.33,0,18.49,0,1.09.09,2.15,1.62,2.12,4.79-.1,9.59-.16,14.39-.29,2.18,0,3.66-1.27,4.89-3a9.75,9.75,0,0,1,2.29-1.7Z"/><path d="M354.93,58.27c-2.07.52-3.14.1-4.05-1.75-3.68-7.52-13.37-10-20.23-8.87-9.72,1.53-14.94,6.94-17.17,18-1.64,8.18-1.14,16.26,2.84,23.82,6.5,12.32,24.22,16,34.18,7,.95-.85,1.64-2,2.61-2.79a2.33,2.33,0,0,1,1.95-.35c.35.11.67,1.1.59,1.63-.2,1.25-.81,2.44-1,3.7-.35,3-1.85,4.37-5,4.84-9.36,1.39-18.6,1.83-27.72-1.26-13.94-4.74-22-17.24-20.45-31.57,1.53-13.72,12-24.06,26.18-26a57.71,57.71,0,0,1,25.07,2.49c.66.2,1.6.86,1.65,1.38C354.71,51.8,354.78,55,354.93,58.27Z"/><path d="M532.13,200.46c-2.32.74-3.19-.15-4.08-1.82-3.26-6.14-9-8.53-15.48-8.88-11.92-.65-19.87,5.93-21.91,17.9a41.28,41.28,0,0,0,.89,19.47c4.45,14.26,21.71,21.16,33.71,13.39a28.17,28.17,0,0,0,4.6-4.15c1.29-1.33,1.22-1.41,3.36-.34-.71,2.54-1.36,5.16-2.21,7.71a2.48,2.48,0,0,1-1.61,1.38c-10.54,2.21-21.06,2.82-31.4-1.07C484.48,239,477.3,227,478.85,212.14c1.33-12.69,11.87-23.13,25.39-25.08A55.81,55.81,0,0,1,530,189.48a2.59,2.59,0,0,1,1.51,1.72C531.84,194.28,532,197.38,532.13,200.46Z"/><path d="M353.26,200.38c-2.21.74-3.12.14-4-1.54-3.23-6.28-9-8.73-15.6-9.08-11.68-.62-19.05,5.2-21.68,17a37.57,37.57,0,0,0,1.26,21.95c5.43,14.26,23.78,19.73,35.06,10.45,1.1-.91,1.92-2.15,3-3.08.49-.42,1.52-.79,1.95-.55a2.22,2.22,0,0,1,.68,1.93,44.42,44.42,0,0,1-1.8,6.2,2.85,2.85,0,0,1-1.78,1.53c-10,2-19.94,2.66-29.83-.61-11.4-3.76-20.71-12.88-20.82-28-.11-16.05,10.48-26.85,25.07-29.4A53.88,53.88,0,0,1,351,189.44c.62.21,1.5.87,1.55,1.4C352.92,194,353.06,197.17,353.26,200.38Z"/><path d="M488.77,128.28c-2.12.71-3.1.28-4-1.47-3.18-6.32-9-8.71-15.56-9.15-14.27-1-20.84,8.46-22.37,20.47-.94,7.42-.34,14.69,3.29,21.44,6.66,12.38,24.11,16,34.16,7.05.95-.85,1.66-2,2.62-2.79a2.11,2.11,0,0,1,1.79-.44,1.91,1.91,0,0,1,.79,1.65,59.6,59.6,0,0,1-1.9,6.67,2.62,2.62,0,0,1-1.69,1.34c-10.64,2.22-21.24,2.75-31.65-1.18a29.53,29.53,0,0,1,6-56.84,56.85,56.85,0,0,1,26.49,2.37c.55.18,1.32.81,1.37,1.29C488.42,121.86,488.57,125,488.77,128.28Z"/><path d="M143.09,200.45c-2.1.61-3.11.16-4-1.57-3.2-6.32-9-8.76-15.58-9.11-12.44-.67-20.48,6.5-22.22,19.28-.93,6.76-.67,13.39,1.84,19.82,4.71,12.06,18.85,18.21,30.46,13,2.67-1.2,4.86-3.51,7.16-5.45.8-.68,1.38-1.83,2.48-.83.44.4.46,1.45.4,2.19-.4,5.57-3.12,8-9,8.52-9.64.85-19,.91-28-3.17a28.64,28.64,0,0,1-17-30c2-17.29,15.05-24.46,25.26-26a57.36,57.36,0,0,1,26.26,2.44c.51.16,1.23.71,1.27,1.12C142.78,193.89,142.91,197.15,143.09,200.45Z"/><path d="M545.51,114.52c.31.7.64,1.39.91,2.1,6.25,16,12.46,32,18.77,48,1.14,2.89,1.75,6.28,5.2,7.69.21.08.36.93.28,1a2.92,2.92,0,0,1-1.45.49c-2.8-.09-5.59-.34-8.38-.37-1.75,0-3.51.29-5.26.37a4.16,4.16,0,0,1-1.26-.42c.16-.4.2-1,.48-1.15,2.48-1.25,2.21-3.43,1.64-5.42a78.82,78.82,0,0,0-3.21-8.78,2.88,2.88,0,0,0-2.13-1.36c-5.53-.11-11.05-.09-16.58,0-.66,0-1.77.48-1.91,1a82.15,82.15,0,0,0-2.54,10.66c-.16,1.15,1.17,2.52,1.85,3.77a12.65,12.65,0,0,0,.86,1.21,4.4,4.4,0,0,1-1.4.54c-3.74,0-7.49,0-11.23,0a4.14,4.14,0,0,1-1.36-.59c.2-.39.3-.93.62-1.15,3.14-2.17,4.64-5.49,6-8.82,6-15,11.94-30,17.9-45,.49-1.24,1-2.45,1.56-3.68Zm5.83,38.3L543,131.19l-.74.07-7.92,21.56Z"/><path d="M567.53,245.67c.24-.63.29-1.18.53-1.28,2.63-1.2,2.45-3.43,1.83-5.54a80,80,0,0,0-3.22-8.77,2.88,2.88,0,0,0-2.14-1.34c-5.53-.11-11-.09-16.58,0-.66,0-1.76.48-1.91,1-1,3.28-1.9,6.59-2.59,9.94a3.85,3.85,0,0,0,2.14,4.63,1.61,1.61,0,0,1,.59,1.08c0,.13-.57.52-.88.52-4.29,0-8.58,0-13.23,0,.27-.76.3-1.42.62-1.64,3.24-2.19,4.78-5.57,6.15-9,6.17-15.35,12.24-30.73,18.35-46.1.34-.86.75-1.7,1.42-3.22.61,1.32,1,2,1.29,2.78q9.54,24.45,19.1,48.89c1,2.55,1.68,5.42,4.65,6.69.27.11.33.73.49,1.12a5.89,5.89,0,0,1-1.49.44c-4.62,0-9.25,0-13.88,0A9.48,9.48,0,0,1,567.53,245.67Zm-2.73-20.75c-2.85-7.4-5.57-14.5-8.3-21.61l-.76.06c-2.61,7.1-5.22,14.19-7.92,21.55Z"/><path d="M74.93,44.43c.76,1.91,1.54,3.81,2.29,5.73,5.83,15,11.62,29.92,17.49,44.86,1,2.63,1.75,5.55,4.62,7a1.07,1.07,0,0,1,.4,1c-.08.27-.53.47-.86.61a1.87,1.87,0,0,1-.71,0c-4.39,0-8.77,0-13.16,0a5.08,5.08,0,0,1-1.63-.58,7.67,7.67,0,0,1,1.18-1.17A3.43,3.43,0,0,0,86,97.68c-1-3.36-2.23-6.67-3.54-9.92a2.66,2.66,0,0,0-2-1.15c-5.52-.09-11-.1-16.57,0A2.67,2.67,0,0,0,61.83,88a85.49,85.49,0,0,0-2.5,9.46c-.38,1.87.08,3.67,2.17,4.57.33.14.51.64.76,1-.38.21-.75.59-1.12.6q-5.87.06-11.71,0a1.67,1.67,0,0,1-1.12-.6c-.12-.16.1-.81.35-1,4.27-3.13,5.75-8,7.59-12.53C62,75.27,67.56,61,73.2,46.74c.31-.79.69-1.54,1-2.32Zm5.75,38.25c-2.85-7.39-5.58-14.49-8.32-21.59l-.73.12c-2.6,7.07-5.21,14.14-7.91,21.47Z"/><path d="M358.44,103.64c.3-.82.33-1.47.66-1.71,3.67-2.75,5.16-6.87,6.76-10.85,5.81-14.46,11.51-29,17.25-43.44.44-1.09.89-2.17,1.62-4,.71,1.54,1.17,2.41,1.52,3.31q9.45,24.24,18.91,48.46c1,2.55,1.67,5.43,4.67,6.66.23.09.37.66.34,1s-.42.4-.69.5a1.86,1.86,0,0,1-.71,0c-4.47,0-8.94,0-13.41,0a4.72,4.72,0,0,1-1.56-.65,6.28,6.28,0,0,0,1-1.11c.58-1.13,1.73-2.48,1.49-3.45a102.62,102.62,0,0,0-3.6-10.88c-.18-.5-1.28-.92-2-.92-5.53-.08-11.06-.11-16.58,0A3,3,0,0,0,372,88.26a58.61,58.61,0,0,0-2.26,7.81c-.51,2.32-.64,4.68,2.06,6a1.09,1.09,0,0,1,.47.92,1,1,0,0,1-.81.62C367.22,103.65,363,103.64,358.44,103.64Zm32.49-21c-2.84-7.38-5.57-14.5-8.3-21.61L382,61c-2.63,7.13-5.26,14.25-8,21.64Z"/><path d="M381,186.62q2.4,6.09,4.79,12.17,7.63,19.54,15.27,39.08c1,2.51,1.75,5.21,4.54,6.5.25.12.24.8.42,1.51-2.44-.15-4.65-.39-6.86-.38-2.63,0-5.27.28-7.9.36a6.14,6.14,0,0,1-1.72-.44c.33-.44.56-1,1-1.29a3.44,3.44,0,0,0,1.58-4.17c-1.05-3.43-2.29-6.81-3.61-10.15a2.39,2.39,0,0,0-1.84-1.07c-5.6-.09-11.21-.11-16.82,0a2.73,2.73,0,0,0-2,1.47c-.93,2.79-1.63,5.67-2.36,8.53-.57,2.21-.19,4.11,1.89,5.44a1.8,1.8,0,0,1,.63,1.11c0,.13-.56.55-.86.55-4.21,0-8.41,0-12.95,0,.29-.82.31-1.49.65-1.74,3.37-2.43,4.87-6.1,6.33-9.72,6.08-15.13,12.07-30.29,18.09-45.44.32-.79.66-1.57,1-2.36Zm-11.23,38.23h17c-2.86-7.42-5.58-14.51-8.31-21.6l-.68,0C375.12,210.35,372.51,217.41,369.77,224.85Z"/><path d="M248.29,113.86c.69,1.53,1.13,2.42,1.5,3.34q9.6,24.57,19.19,49.13c.9,2.3,1.71,4.7,4.24,5.88.27.13.31.75.46,1.15a5,5,0,0,1-1.5.42c-3-.09-6.07-.3-9.1-.35-1.43,0-2.86.29-4.3.34a4.42,4.42,0,0,1-1.45-.48c.27-.41.44-1,.81-1.2a3.22,3.22,0,0,0,1.67-3.89c-1.05-3.59-2.32-7.14-3.65-10.64-.19-.5-1.27-.92-1.94-.93-5.53-.07-11.06-.09-16.58,0a2.74,2.74,0,0,0-2.09,1.4,73.74,73.74,0,0,0-2.43,8.51c-.49,2.2-.3,4.34,2.09,5.6.3.16.38.74.56,1.12a3.68,3.68,0,0,1-1.21.48c-3.75,0-7.49,0-11.24,0-.39,0-1-.28-1.11-.56a1.4,1.4,0,0,1,.43-1.22c4-3.06,5.44-7.64,7.19-12,5.79-14.39,11.45-28.82,17.17-43.23C247.31,116,247.67,115.25,248.29,113.86Zm6.17,39-8.33-21.69-.69.05-8,21.64Z"/><path d="M323,162.53c2-.89,2.58,0,3.21,1.34a13.51,13.51,0,0,0,16.75,6.9,10.22,10.22,0,0,0,7-9.44c.33-4.4-2.07-7.27-5.9-9-2.7-1.19-5.52-2.09-8.29-3.12-1.12-.42-2.25-.82-3.36-1.27-8.22-3.35-11.77-8.7-11.15-16.75a17.66,17.66,0,0,1,14.13-16.16,36,36,0,0,1,19.58,1.58c1.47.53,2.22,1.31,2.05,3-.16,1.5.06,3-.08,4.55a7.74,7.74,0,0,1-.86,2.16c-.88-.46-2.15-.69-2.57-1.42-3.48-5.91-10.3-8.85-16.6-6.81-4.32,1.4-7.11,4.39-7.72,8.92-.63,4.72,1.13,8.61,5.46,10.81a92.15,92.15,0,0,0,9.12,3.56c1.27.49,2.56.92,3.82,1.41,6.52,2.49,9.94,7.09,10.1,14.21.15,7.31-3.06,12.5-9.51,15.56-7.91,3.76-15.73,2.33-23.38-1.06a2.12,2.12,0,0,1-1.1-1.36C323.35,167.65,323.19,165.11,323,162.53Z"/><path d="M278.57,162.42c1.84-.67,2.6-.06,3.3,1.47a13.45,13.45,0,0,0,16.77,6.86,10.12,10.12,0,0,0,6.93-9.47c.26-4.39-2.07-7.28-5.91-9-2.62-1.15-5.38-2-8.07-3-1.13-.42-2.26-.79-3.38-1.24-8.54-3.44-11.83-8.53-11.22-17.39a17.45,17.45,0,0,1,13.87-15.57,35.17,35.17,0,0,1,20,1.68c1.29.48,2,1.14,1.85,2.62-.12,1.67.06,3.36-.07,5-.05.65-.66,1.84-.84,1.81a4.62,4.62,0,0,1-2.55-1.06c-1-1.09-1.55-2.67-2.63-3.67A14,14,0,0,0,292,118.36a9.94,9.94,0,0,0-7.08,8.61c-.56,4.72,1,8.64,5.36,10.86a94.81,94.81,0,0,0,9.12,3.58c1.27.48,2.57.87,3.82,1.38,7.06,2.88,10.06,7.18,10.1,14.42,0,7.46-3.42,12.88-10,15.68-7.69,3.26-15.18,2-22.52-1.23a2.93,2.93,0,0,1-1.33-2C279,167.33,278.83,164.94,278.57,162.42Z"/><path d="M516.82,260q6.61,1.47,13.23,3a2.14,2.14,0,0,1,1.86,2.58c-.12,1.52.08,3.06-.07,4.56a9.3,9.3,0,0,1-.9,2.37c-.88-.47-2.18-.71-2.57-1.44-2.64-4.9-6.89-7-12.17-7.28a11.32,11.32,0,0,0-11.93,8.38c-1.35,5.12,1.05,10.05,6.42,12.51,2.89,1.33,6,2.23,9,3.32,1,.35,2,.67,2.93,1.06,6.33,2.55,9.83,7,10,14.07s-2.82,12.4-9.19,15.52c-8,3.9-15.86,2.57-23.6-.86a2.4,2.4,0,0,1-1.21-1.54,40.66,40.66,0,0,1-.5-5.73c0-.62.55-1.26.85-1.89.68.4,1.7.63,2,1.21,2.12,4.55,5.82,6.92,10.55,7.85,8,1.57,15.11-5.62,13.08-13.16a8.45,8.45,0,0,0-4.89-5.6c-2.82-1.29-5.79-2.28-8.7-3.39-1.56-.59-3.16-1.11-4.71-1.76-6-2.49-9.64-6.81-10-13.41s1.9-12.28,7.52-16.19a20.17,20.17,0,0,1,13-3.49Z"/><path d="M440.09,268.12a13.72,13.72,0,0,1,0,2.4,4.26,4.26,0,0,1-.83,1.84c-.89-.19-2.16-.44-2.5-1.09-2.79-5.43-7.48-7.45-13.22-7.53a11.26,11.26,0,0,0-11.06,8.6,10.53,10.53,0,0,0,6,12.1c2.58,1.24,5.36,2.06,8.06,3.05,1.27.47,2.58.85,3.84,1.35,7.38,2.94,10.7,7.68,10.66,15.16A16.5,16.5,0,0,1,430,319.4c-7.51,2.82-14.78,1.5-21.88-1.59-.52-.22-1.18-.79-1.24-1.28-.3-2.21-.46-4.45-.55-6.68a1.46,1.46,0,0,1,.8-1.18,2.28,2.28,0,0,1,1.7.41,5.82,5.82,0,0,1,.89,1.68,13.53,13.53,0,0,0,17.8,5.57,10.17,10.17,0,0,0,5.65-9.37c.06-4-2.09-6.67-5.58-8.22-2.77-1.24-5.66-2.19-8.49-3.27-1.57-.59-3.14-1.18-4.7-1.79-13.47-5.2-12-22.44-3.28-28.94,5.41-4,11.49-4.58,17.82-3.94,2.75.28,5.45,1.16,8.18,1.69,2.36.47,3.45,1.74,3,4.19A8.65,8.65,0,0,0,440.09,268.12Z"/><path d="M242.42,191.69c-5,0-9.67-.17-14.28.07a5.54,5.54,0,0,0-5.14,4.4c-.5,1.85-1.49,2-3.13,1.46V187.24a528.18,528.18,0,0,0,54.27.08v10.26c-1.72.71-2.78.44-3.37-1.53-.88-3-3.15-4.35-6.15-4.42-3.53-.09-7.05,0-10.57-.06-1.52,0-1.89.59-1.9,2-.1,14.25-.29,28.5-.38,42.75,0,3.27.75,6.21,4.25,7.62.41.16.71.76.88,1.23,0,.11-.6.71-.94.71-5.89,0-11.78,0-18.32,0,.67-.94.91-1.69,1.37-1.87,3.42-1.35,4.28-4.21,4.23-7.39-.21-13.28-.54-26.56-.82-39.84C242.39,195.2,242.42,193.61,242.42,191.69Z"/><path d="M600.45,173.58H580.59a12.78,12.78,0,0,1,2-1.93A6,6,0,0,0,586,166q-.19-18.34-.43-36.69c0-2.64-.14-5.28-.11-7.92,0-1.44-.52-2-2-1.94-3.76.07-7.52,0-11.28.06A6.17,6.17,0,0,0,566,124c-.38,1.12-.8,2.36-2.21,1.74-.57-.25-1-1.45-1-2.25-.12-2.85,0-5.71,0-8.22,18.26.9,36.18.81,54.35.09,0,2.87,0,6-.05,9.23a1.62,1.62,0,0,1-1.08,1.18c-.58,0-1.61-.33-1.72-.73-1.46-5.18-5.39-5.71-9.85-5.51-2.93.13-5.88,0-9.06,0-.17,6.32-.42,12.38-.47,18.43-.08,8.73,0,17.45,0,26.18,0,3.44.72,6.34,4.31,7.78C599.62,172.08,599.88,172.81,600.45,173.58Z"/><path d="M452.31,234.07l2.59,1.13c-1.09,3.54-2.12,7-3.27,10.46-.12.37-1,.71-1.47.69-6.05-.26-12.1-.78-18.16-.85-6.95-.08-13.9.23-20.86.34a4.79,4.79,0,0,1-1.43-.47c.37-.38.68-1,1.12-1.11,3.18-.95,4.47-3.25,4.48-6.33q.06-20.42,0-40.83c0-3.27-.91-6.18-4.27-7.7-.4-.18-.63-.76-.94-1.15.45-.22.9-.63,1.35-.64q7.9-.06,15.81,0a3.46,3.46,0,0,1,1.22.51c-.28.41-.46,1-.85,1.21-2.7,1.28-3.41,3.54-3.43,6.31q-.18,21.72-.48,43.45c0,1.78.61,2.4,2.28,2.53,6.32.48,12.63.56,18.84-.93C448.35,239.84,449.69,238.55,452.31,234.07Z"/><path d="M199.57,187.74h17c-.16.53-.17,1.11-.37,1.18-3.34,1.19-3.22,4.07-3.26,6.76-.13,8.72-.19,17.44-.24,26.15,0,5.36,0,10.72,0,16.08,0,2.68.45,5.12,3.27,6.38.3.14.4.72.59,1.1a5,5,0,0,1-1.46.48c-3.11-.09-6.22-.3-9.33-.35-1.43,0-2.86.3-4.29.34a4.18,4.18,0,0,1-1.41-.54c.29-.4.5-.95.89-1.16a5.19,5.19,0,0,0,2.93-4.87q-.1-16.41-.31-32.83c0-3.28-.2-6.55-.22-9.83s0-6.33-3.59-7.86C199.68,188.72,199.7,188.33,199.57,187.74Z"/><path d="M279.55,45.34c4.23,0,8.45,0,12.68,0a6.09,6.09,0,0,1,1.68.54,11.71,11.71,0,0,0-1.06,1.29c-.77,1.3-2.12,2.62-2.15,4-.3,15-.42,29.92-.53,44.88,0,2.48.58,4.78,3.17,6,.31.15.44.7.66,1.06-.4.19-.8.55-1.19.54-2.32-.08-4.63-.35-6.94-.35s-4.79.27-7.19.35c-.38,0-.78-.35-1.18-.54.22-.35.37-.91.68-1,2.71-1.07,3.31-3.39,3.35-5.85.1-6.09.13-12.17,0-18.26-.15-7.75-.47-15.5-.72-23.25-.1-3.07.51-6.46-3.45-7.86a.88.88,0,0,1-.3-.79,1.31,1.31,0,0,1,.8-.66,8.55,8.55,0,0,1,1.68,0Z"/><path d="M294.06,187.88c-.23.51-.3,1.05-.54,1.14-2.7,1-2.93,3.23-2.95,5.69-.1,14.15-.29,28.31-.42,42.46,0,2.87.22,5.64,3.3,7.12.29.14.35.75.51,1.14a4.88,4.88,0,0,1-1.48.43c-3.27-.08-6.54-.28-9.81-.33-1.35,0-2.7.29-4.06.33-.37,0-.75-.38-1.12-.59.24-.35.4-.88.72-1,2.89-1.21,3.37-3.76,3.34-6.36-.16-11.59-.45-23.17-.67-34.76-.05-2.64,0-5.28-.07-7.92s-.39-5.15-3.41-6.2c-.21-.08-.3-.51-.64-1.13Z"/><path d="M496.45,115.64c2.14,0,3.89,0,5.63,0,3.11,0,6.22-.13,9.33-.12a6.15,6.15,0,0,1,1.71.5c-.33.44-.57,1-1,1.31-2,1.24-2.16,3.27-2.23,5.26-.12,3,0,5.92-.07,8.88-.1,10.72-.23,21.44-.29,32.15a15.93,15.93,0,0,0,.48,5c.41,1.25,1.6,2.25,2.47,3.34.34.44.75.84,1.13,1.25a6.35,6.35,0,0,1-1.87.56c-3.51,0-7-.2-10.53-.25-1,0-2.07.23-3.1.26-.32,0-.94-.31-.93-.46,0-.39.2-1,.49-1.12,3-1.43,3.36-4,3.31-6.87q-.34-21.12-.72-42.23c-.05-2.51-.29-5-3.21-6.14C496.8,116.86,496.74,116.32,496.45,115.64Z"/><path d="M634,153.79c0,3.84-.06,7.69,0,11.52.06,2.84.21,5.71,3.54,6.94.25.09.56.78.47.89a1.67,1.67,0,0,1-1.07.63c-1.43-.05-2.87-.35-4.3-.33-3.27.05-6.54.26-9.81.33a5.07,5.07,0,0,1-1.65-.54c.37-.41.66-1,1.13-1.21,2.56-1.25,3.11-3.56,3.09-6q-.23-18.36-.58-36.71a49.2,49.2,0,0,0-.44-7.88c-.27-1.48-1.49-2.78-2.33-4.15a9.17,9.17,0,0,0-.95-1.13,4.14,4.14,0,0,1,1.38-.6q6.82-.06,13.65,0a4.43,4.43,0,0,1,1.44.53c-.22.37-.34.92-.66,1.07-2.3,1.07-2.58,3.1-2.58,5.24q0,15.72,0,31.43Z"/><path d="M72.43,194c-.66,8.28-1.25,16.16-1.93,24a41.25,41.25,0,0,1-4.24,16.09c-2.64,5-6.63,8.09-12.33,8.84-3.25.42-3.79.12-5.13-3.4,2.41,0,4.75.14,7.08,0,4.06-.3,6.47-2.76,7.16-6.6.85-4.7,1.45-9.46,1.91-14.22.74-7.63,1.28-15.28,1.89-22.92a13.48,13.48,0,0,0-.08-1.66,25.51,25.51,0,0,1-2.84-.17c-.44-.07-.83-.49-1.23-.74.39-.29.82-.88,1.16-.83,3.08.49,3.32-1.27,3.69-3.76A109.3,109.3,0,0,1,71,172.06c1.79-5.65,5.68-8.12,10.63-8.08,3.61,0,3.88.31,3.83,4,0,.47,0,1-.06,1.6a23,23,0,0,0-3-2c-3.39-1.55-6.19-.34-7,3.31-.9,4.29-1.42,8.66-2,13-.34,2.66-.45,5.36-.69,8.47,1.81,0,3.3-.06,4.78,0,.39,0,.73.58,1.1.89-.36.24-.71.66-1.07.67C76,194,74.38,194,72.43,194Z"/><path d="M60.89,204.82a23.21,23.21,0,0,1-7.9,17.8,14.56,14.56,0,0,1-5.39,3c-5.31,1.54-9.66-.9-11.31-6.37-2.63-8.76-.14-16.46,5.92-22.93A15.35,15.35,0,0,1,49.45,192c6.22-1.46,10.9,2.86,11.43,9.91C61,202.9,60.89,203.86,60.89,204.82Zm-20.74,7-.6.25c1,2.72,1.61,5.67,3.09,8.09,2.22,3.63,6.4,3.62,9,.26a17.85,17.85,0,0,0,2.5-4.6c1.93-5.32,3.29-10.71.88-16.28-1.12-2.58-2.81-4.54-5.8-4.71-2.81-.16-4.33,1.8-5.52,3.95A29.17,29.17,0,0,0,40.15,211.83Z"/><path d="M470.29,222.21c.06,1.09.06,1.88.14,2.65.13,1.4-.4,2-1.89,2-4.79-.05-9.59-.06-14.39,0-1.92,0-1.93-1.14-1.95-2.52s.22-2.23,1.95-2.2C459.42,222.27,464.69,222.21,470.29,222.21Z"/><path d="M375.09,146.36c0-7.58,1-13.19,3.83-18.36,4-7.29,10.23-10.81,18.54-10.37,7.67.4,13.22,4.37,16.36,11.17,4.93,10.67,4.95,21.53-.32,32.14-3.48,7-9.42,10.59-17.18,10.67s-13.61-3.56-17.38-10.38A31.08,31.08,0,0,1,375.09,146.36Z" fill="#fff"/><path d="M677.73,117.58c8.56,0,15.31,4.74,18.6,13.38a36.67,36.67,0,0,1-.35,28c-5.11,12.2-19.28,16.51-29.62,9.08-4.84-3.49-7.39-8.51-8.71-14.21-2.15-9.28-1.56-18.29,3.25-26.68C664.58,120.77,670.33,117.64,677.73,117.58Z" fill="#fff"/><path d="M161.55,205.14c0-3.6-.08-7.21,0-10.8.09-3.28,1-4.09,4.19-4.16,7.14-.17,11.94,3.87,13.18,10.65,1.88,10.17-4.05,15.25-9.63,16.9-.53.16-1.08.28-1.63.4-5.48,1.17-6.36.47-6.34-5.07v-7.92Z" fill="#fff"/><path d="M600.13,211.31c0-5.76,0-11.52,0-17.28,0-2.8.89-3.69,3.71-3.85,7.87-.44,13.11,4.36,13.88,12.38,1.1,11.55-8.25,16.41-15.94,15.78-1.52-.12-2.15-.72-2.09-2.23s0-3.2,0-4.8Z" fill="#fff"/><path d="M371.06,292.38c-3.88,0-3.72,0-3.62-4,.17-6.4.1-12.81.14-19.21,0-4,1-4.95,5-4.93,6.41,0,10.75,3.67,12.31,10.29C387.19,284.31,381,292.34,371.06,292.38Z" fill="#fff"/><path d="M238.24,69.21c0-5.76,0-11.52,0-17.28,0-2.83.81-3.68,3.63-4,7.54-.76,13.26,4.55,14,12.55,1,10.92-7.7,16.33-16.1,15.59-1.45-.13-2-.72-1.95-2.1,0-1.6,0-3.2,0-4.8Z" fill="#fff"/><path d="M551.34,152.82h-17l7.92-21.56.74-.07Z" fill="#fff"/><path d="M564.8,224.92h-17c2.7-7.36,5.31-14.45,7.92-21.55l.76-.06C559.23,210.42,562,217.52,564.8,224.92Z" fill="#fff"/><path d="M80.68,82.68h-17c2.7-7.33,5.31-14.4,7.91-21.47l.73-.12C75.1,68.19,77.83,75.29,80.68,82.68Z" fill="#fff"/><path d="M390.93,82.66H374c2.72-7.39,5.35-14.51,8-21.64l.66,0C385.36,68.16,388.09,75.28,390.93,82.66Z" fill="#fff"/><path d="M369.77,224.85c2.74-7.44,5.35-14.5,8-21.57l.68,0c2.73,7.09,5.45,14.18,8.31,21.6Z" fill="#fff"/><path d="M254.46,152.83h-17l8-21.64.69-.05Z" fill="#fff"/><path d="M40.15,211.83a29.17,29.17,0,0,1,3.51-13c1.19-2.15,2.71-4.11,5.52-3.95,3,.17,4.68,2.13,5.8,4.71,2.41,5.57,1.05,11-.88,16.28a17.85,17.85,0,0,1-2.5,4.6c-2.56,3.36-6.74,3.37-9-.26-1.48-2.42-2.09-5.37-3.09-8.09Z" fill="#fff"/></g></g></svg>