<svg xmlns="http://www.w3.org/2000/svg" xmlns:xlink="http://www.w3.org/1999/xlink" viewBox="0 0 69.49 63.36"><defs><linearGradient id="linear-gradient" y1="31.8" x2="69.49" y2="31.8" gradientUnits="userSpaceOnUse"><stop offset="0" stop-color="#f5f5f5"/><stop offset="1" stop-color="#979797"/></linearGradient><linearGradient id="linear-gradient-2" x1="14.27" y1="29.91" x2="58.91" y2="29.91" gradientUnits="userSpaceOnUse"><stop offset="0" stop-color="#fff"/><stop offset="1" stop-color="#b6b6b6"/></linearGradient></defs><g id="Layer_2" data-name="Layer 2"><g id="Layer_1-2" data-name="Layer 1"><g id="Layer_2-2" data-name="Layer 2"><g id="Layer_1-2-2" data-name="Layer 1-2"><path d="M68.62,1.13,33.37,4.41,16.89,5.78c-5.41.35-10.76.65-16.09.93L6.66.85C7,6,7.07,11.13,7.23,16.27L7.69,31.7,8,62.56.8,55.36l17,.17,8.51.08h4.25l4.26.13,17,.5,4.26.12,4.26.2L68.9,57l-5.53,5.53c.25-4.82.5-9.64.94-14.55s.78-9.86,1.28-14.94l1.5-15.56.76-8.07Q68.26,5.32,68.62,1.13Zm.56-.57.31,62v.59H68.9L.8,63.36H0v-.8L.19.85V.23H.8Z" fill="url(#linear-gradient)"/><path d="M58.91,29.91c-2.81,1.95-5.76,4.18-8.94,6.57s-6.63,4.88-10.17,7.25Q34.92,47,30,50.22c-3.28,2.13-6.6,4.21-9.91,6.29l-5.27,3.3-.17-6.44c-.11-3.91-.23-7.82-.27-11.73s-.08-7.82-.1-11.73,0-7.82.09-11.73.16-7.82.27-11.73L14.82,0l5.27,3.3C23.41,5.38,26.72,7.46,30,9.59s6.55,4.29,9.79,6.49c3.55,2.37,7,4.86,10.18,7.26S56.1,28,58.91,29.91Zm0,0c-4-2-7.79-3.64-11.39-5.15s-6.92-2.94-10.14-4.48Q32.09,17.72,26.86,15c-3.49-1.78-6.95-3.61-10.4-5.44l5.45-3.15c.11,3.91.22,7.82.27,11.73s.07,7.82.09,11.73,0,7.82-.1,11.73S22,49.46,21.9,53.37l-5.44-3.14c3.46-1.83,6.92-3.66,10.41-5.44s7-3.53,10.51-5.24c3.23-1.54,6.55-3,10.15-4.48S54.94,31.87,58.91,29.91Z" fill="url(#linear-gradient-2)"/></g></g></g></g></svg>