<svg xmlns="http://www.w3.org/2000/svg" viewBox="0 0 142.25 105.52"><g id="Layer_2" data-name="Layer 2"><g id="Layer_3" data-name="Layer 3"><path d="M122.57,0H19.68A19.68,19.68,0,0,0,0,19.68V85.85a19.68,19.68,0,0,0,19.68,19.67H122.57a19.68,19.68,0,0,0,19.68-19.67V19.68A19.68,19.68,0,0,0,122.57,0Zm1.12,28.38-.52.65a1.5,1.5,0,0,0-1-.36c-.36,0-.58.15-.58.41s.3.38.69.54l.59.24a1.25,1.25,0,0,1,.9,1.24c0,.76-.63,1.41-1.72,1.41a2.5,2.5,0,0,1-1.69-.66l.59-.7a1.84,1.84,0,0,0,1.12.47c.44,0,.65-.17.65-.44s-.26-.38-.66-.54l-.59-.25a1.33,1.33,0,0,1-.92-1.25,1.47,1.47,0,0,1,1.62-1.36A2.14,2.14,0,0,1,123.69,28.38Zm-38.32.35v-.86h3.54v.86H87.65v3.7h-1v-3.7ZM18.53,30.64l-.59-.25A1.33,1.33,0,0,1,17,29.14a1.47,1.47,0,0,1,1.62-1.36,2.13,2.13,0,0,1,1.47.6l-.52.65a1.5,1.5,0,0,0-.95-.36c-.36,0-.58.15-.58.41s.3.38.69.54l.59.24a1.25,1.25,0,0,1,.9,1.24c0,.76-.63,1.41-1.72,1.41a2.5,2.5,0,0,1-1.69-.66l.6-.7a1.8,1.8,0,0,0,1.12.47c.43,0,.64-.17.64-.44S18.93,30.8,18.53,30.64Zm-.05,7.55a4.34,4.34,0,1,1-4.34,4.33A4.34,4.34,0,0,1,18.48,38.19Zm.58,15.15a4.34,4.34,0,1,1-4.34,4.34A4.34,4.34,0,0,1,19.06,53.34Zm.58,15.16a4.34,4.34,0,1,1-4.34,4.34A4.34,4.34,0,0,1,19.64,68.5Zm.59,23.84A4.34,4.34,0,1,1,24.56,88,4.34,4.34,0,0,1,20.23,92.34ZM36.68,29.21l-.37,1.07L35.66,32h-.57l-.65-1.75-.36-1.07h0c.05.44.13,1.1.13,1.54v1.68h-.92V27.87h1.12l.74,2c.09.27.17.57.27.85h0c.1-.28.17-.58.26-.85l.72-2h1.13v4.56h-.94V30.75c0-.44.08-1.1.13-1.54Zm-.85,9a4.34,4.34,0,1,1-4.34,4.33A4.33,4.33,0,0,1,35.83,38.19Zm.58,15.15a4.34,4.34,0,1,1-4.33,4.34A4.34,4.34,0,0,1,36.41,53.34ZM37,68.5a4.34,4.34,0,1,1-4.34,4.34A4.34,4.34,0,0,1,37,68.5Zm.58,23.84A4.34,4.34,0,1,1,41.92,88,4.34,4.34,0,0,1,37.58,92.34ZM50.39,28.73v-.86h3.54v.86H52.67v3.7h-1v-3.7Zm2.8,9.46a4.34,4.34,0,1,1-4.34,4.33A4.34,4.34,0,0,1,53.19,38.19Zm.58,15.15a4.34,4.34,0,1,1-4.34,4.34A4.34,4.34,0,0,1,53.77,53.34Zm.58,15.16A4.34,4.34,0,1,1,50,72.84,4.34,4.34,0,0,1,54.35,68.5Zm.59,23.84A4.34,4.34,0,1,1,59.27,88,4.34,4.34,0,0,1,54.94,92.34Zm2.93-70.88H16a4.29,4.29,0,0,1,0-8.58H57.87a4.29,4.29,0,0,1,0,8.58ZM70.54,38.19a4.34,4.34,0,1,1-4.34,4.33A4.33,4.33,0,0,1,70.54,38.19ZM67.79,27.87h1.06L69.17,30l.18,1.44h0c.09-.48.18-1,.27-1.44l.49-2.13H71L71.51,30c.09.46.18.95.27,1.44h0L72,30l.32-2.13h1l-.81,4.56H71.19l-.45-2.07c-.07-.36-.13-.72-.18-1.06h0c0,.34-.11.7-.18,1.06l-.44,2.07H68.64Zm3.33,25.47a4.34,4.34,0,1,1-4.33,4.34A4.34,4.34,0,0,1,71.12,53.34Zm.59,15.16a4.34,4.34,0,1,1-4.34,4.34A4.34,4.34,0,0,1,71.71,68.5Zm.58,23.84A4.34,4.34,0,1,1,76.63,88,4.34,4.34,0,0,1,72.29,92.34ZM69.8,21.46a4.29,4.29,0,1,1,0-8.58H81.49a4.29,4.29,0,0,1,0,8.58ZM87.9,38.19a4.34,4.34,0,1,1-4.34,4.33A4.34,4.34,0,0,1,87.9,38.19Zm.58,15.15a4.34,4.34,0,1,1-4.34,4.34A4.34,4.34,0,0,1,88.48,53.34Zm.58,15.16a4.34,4.34,0,1,1-4.34,4.34A4.34,4.34,0,0,1,89.06,68.5Zm.59,23.84A4.34,4.34,0,1,1,94,88,4.34,4.34,0,0,1,89.65,92.34Zm9.38-81a2.92,2.92,0,0,0-2,1.13l-1.39-1.39a4.7,4.7,0,0,1,3.72-1.75,3.41,3.41,0,0,1,3.68,3.53c0,1.87-1.75,3.87-3.56,5.75a17.47,17.47,0,0,1,1.86-.13h2.23v2.16H95.78V19.16c2.83-2.67,4.82-4.57,4.82-6.16A1.48,1.48,0,0,0,99,11.33Zm6.8,18.46v.86h-1.58v1.78h-1V27.87h2.88v.86h-1.85v1.06Zm-.58,8.4a4.34,4.34,0,1,1-4.34,4.33A4.33,4.33,0,0,1,105.25,38.19Zm.59,15.15a4.34,4.34,0,1,1-4.34,4.34A4.34,4.34,0,0,1,105.84,53.34Zm.58,15.16a4.34,4.34,0,1,1-4.34,4.34A4.34,4.34,0,0,1,106.42,68.5ZM107,92.34A4.34,4.34,0,1,1,111.34,88,4.35,4.35,0,0,1,107,92.34Zm2-71.5c-2.39,0-4-2-4-5.81s1.59-5.71,4-5.71,4,1.94,4,5.71S111.37,20.84,109,20.84Zm8.51-9.51a2.92,2.92,0,0,0-2,1.13l-1.39-1.39a4.7,4.7,0,0,1,3.72-1.75,3.41,3.41,0,0,1,3.68,3.53c0,1.87-1.75,3.87-3.56,5.75a17.47,17.47,0,0,1,1.86-.13h2.23v2.16h-7.81V19.16c2.83-2.67,4.82-4.57,4.82-6.16A1.48,1.48,0,0,0,117.5,11.33Zm5.11,26.86a4.34,4.34,0,1,1-4.34,4.33A4.34,4.34,0,0,1,122.61,38.19Zm.58,15.15a4.34,4.34,0,1,1-4.34,4.34A4.34,4.34,0,0,1,123.19,53.34Zm.58,23.84a4.34,4.34,0,1,1,4.34-4.34A4.34,4.34,0,0,1,123.77,77.18Zm7.36-56.55h-7.08V18.56h2.43V12.13H124.4V10.54a7.51,7.51,0,0,0,2.76-1h1.89v9h2.08Z" fill="#999"/><path d="M109,11.3c-.87,0-1.55.7-1.55,3.73s.68,3.82,1.55,3.82,1.54-.79,1.54-3.82S109.85,11.3,109,11.3Z" fill="#999"/></g></g></svg>