<svg  xmlns="http://www.w3.org/2000/svg" xmlns:xlink="http://www.w3.org/1999/xlink" viewBox="0 0 303.6 39"><defs><linearGradient id="linear-gradient" x1="46.8" y1="23.47" x2="303.6" y2="23.47" gradientUnits="userSpaceOnUse"><stop offset="0" stop-color="#5e007f"/><stop offset="0.5" stop-color="#a400d4"/><stop offset="1" stop-color="#1b00d4"/></linearGradient><linearGradient id="linear-gradient-14" x1="-0.27" y1="19.43" x2="34.73" y2="19.43" xlink:href="#linear-gradient"/><linearGradient id="linear-gradient-15" x1="18.3" y1="20.05" x2="30.21" y2="20.05" xlink:href="#linear-gradient"/><linearGradient id="linear-gradient-16" x1="6.96" y1="20.15" x2="14.79" y2="20.15" xlink:href="#linear-gradient"/></defs><g id="Layer_2" data-name="Layer 2"><g id="Layer_1-2" data-name="Layer 1"><path d="M46.8,14.18h1.52l.19,3h.09c1.77-2,4-3.51,6.16-3.51a5,5,0,0,1,5.37,4c2.21-2.44,4.37-4,6.61-4,3.88,0,5.82,2.44,5.82,7.47V33.65H70.77V21.4c0-4.13-1.38-6.09-4.36-6.09-1.83,0-3.68,1.21-5.83,3.65V33.65H58.79V21.4c0-4.13-1.38-6.09-4.36-6.09-1.76,0-3.69,1.21-5.83,3.65V33.65H46.8Z" transform="translate(0 -3.46)" fill="#fff"/><path d="M78.08,24c0-6.35,4.13-10.26,8.49-10.26,4.62,0,7.45,3.29,7.45,9a8,8,0,0,1-.1,1.46h-14c.07,4.91,3,8.42,7.33,8.42a8.76,8.76,0,0,0,5.23-1.72l.74,1.36a10.62,10.62,0,0,1-6.14,1.91C82.11,34.13,78.08,30.31,78.08,24Zm14.26-1.27c0-5-2.26-7.44-5.75-7.44-3.29,0-6.27,2.79-6.67,7.44Z" transform="translate(0 -3.46)" fill="#fff"/><path d="M97.68,24c0-6.28,4-10.26,8.64-10.26,2.33,0,3.92.89,5.87,2.39l-.1-3.57v-8h1.79V33.65h-1.52l-.19-2.52h-.09a9.18,9.18,0,0,1-6.35,3C100.85,34.13,97.68,30.52,97.68,24Zm14.41,5.38V17.79c-2-1.83-3.76-2.51-5.68-2.51-3.87,0-6.85,3.78-6.85,8.66,0,5.18,2.3,8.6,6.43,8.6C108.14,32.54,110.05,31.42,112.09,29.33Z" transform="translate(0 -3.46)" fill="#fff"/><path d="M120.66,7.89a1.63,1.63,0,0,1,3.26,0,1.63,1.63,0,0,1-3.26,0Zm.69,6.29h1.8V33.65h-1.8Z" transform="translate(0 -3.46)" fill="#fff"/><path d="M129.24,28.8c0-4.32,3.9-6.38,12.56-7.34.06-3-.76-6.19-4.59-6.19a10.69,10.69,0,0,0-6.2,2.28l-.83-1.33a13.11,13.11,0,0,1,7.24-2.53c4.62,0,6.17,3.35,6.17,7.52V33.65h-1.51l-.2-2.53h-.09c-2,1.6-4.35,3-6.9,3C131.8,34.13,129.24,32.46,129.24,28.8Zm12.56.65V22.82c-8,.93-10.72,2.78-10.72,5.89,0,2.79,1.88,3.87,4.12,3.87S139.39,31.5,141.8,29.45Z" transform="translate(0 -3.46)" fill="#fff"/><path d="M158.34,26.67V14.18h1.79V26.43c0,4.13,1.31,6.09,4.44,6.09,2.32,0,4-1.22,6.28-4V14.18h1.79V33.65h-1.52l-.19-3.26h-.09c-1.92,2.24-3.93,3.74-6.61,3.74C160.21,34.13,158.34,31.69,158.34,26.67Z" transform="translate(0 -3.46)" fill="#fff"/><path d="M180.1,14.18h1.51l.2,2.45h.09c1.9-1.53,4.21-2.94,6.6-2.94,5.23,0,7.8,3.91,7.8,9.94,0,6.6-4,10.5-8.58,10.5a10.15,10.15,0,0,1-5.86-2.39l0,3.59v7.13H180.1Zm14.31,9.45c0-4.78-1.7-8.35-6.19-8.35-1.93,0-4,1.14-6.33,3.21V30a9.43,9.43,0,0,0,5.73,2.5C191.58,32.54,194.41,28.91,194.41,23.63Z" transform="translate(0 -3.46)" fill="#fff"/><path d="M202.11,31V4.48h1.79v26.8c0,.87.36,1.27.84,1.27a3.07,3.07,0,0,0,.73-.08l.3,1.46a3.87,3.87,0,0,1-1.29.2C202.92,34.13,202.11,33.17,202.11,31Z" transform="translate(0 -3.46)" fill="#fff"/><path d="M210.08,24c0-6.51,4.06-10.26,8.74-10.26s8.74,3.75,8.74,10.26-4.06,10.18-8.74,10.18S210.08,30.39,210.08,24Zm15.6,0c0-5.12-2.93-8.68-6.86-8.68S212,18.83,212,24s2.93,8.6,6.86,8.6S225.68,29.07,225.68,24Z" transform="translate(0 -3.46)" fill="#fff"/><path d="M231.4,28.8c0-4.32,3.9-6.38,12.56-7.34.06-3-.76-6.19-4.59-6.19a10.63,10.63,0,0,0-6.2,2.28l-.83-1.33a13.11,13.11,0,0,1,7.24-2.53c4.62,0,6.17,3.35,6.17,7.52V33.65h-1.51l-.2-2.53H244c-2,1.6-4.35,3-6.91,3C234,34.13,231.4,32.46,231.4,28.8Zm12.56.65V22.82c-8,.93-10.73,2.78-10.73,5.89,0,2.79,1.89,3.87,4.13,3.87S241.55,31.5,244,29.45Z" transform="translate(0 -3.46)" fill="#fff"/><path d="M251.08,24c0-6.28,4-10.26,8.63-10.26,2.34,0,3.93.89,5.88,2.39l-.1-3.57v-8h1.79V33.65h-1.52l-.19-2.52h-.09a9.18,9.18,0,0,1-6.35,3C254.25,34.13,251.08,30.52,251.08,24Zm14.41,5.38V17.79c-2.05-1.83-3.76-2.51-5.68-2.51-3.87,0-6.85,3.78-6.85,8.66,0,5.18,2.3,8.6,6.43,8.6C261.54,32.54,263.44,31.42,265.49,29.33Z" transform="translate(0 -3.46)" fill="#fff"/><path d="M273.12,24c0-6.35,4.12-10.26,8.49-10.26,4.61,0,7.45,3.29,7.45,9a9,9,0,0,1-.1,1.46H275c.06,4.91,2.94,8.42,7.33,8.42a8.78,8.78,0,0,0,5.23-1.72l.73,1.36a10.61,10.61,0,0,1-6.13,1.91C277.15,34.13,273.12,30.31,273.12,24Zm14.25-1.27c0-5-2.25-7.44-5.75-7.44-3.29,0-6.27,2.79-6.67,7.44Z" transform="translate(0 -3.46)" fill="#fff"/><path d="M294.33,14.18h1.52l.19,3.63h.09c1.32-2.39,3.23-4.12,5.54-4.12a4,4,0,0,1,1.93.41l-.4,1.62a4.31,4.31,0,0,0-1.76-.32c-1.75,0-3.83,1.32-5.31,5V33.65h-1.8Z" transform="translate(0 -3.46)" fill="#fff"/><path d="M46.8,14.18h1.52l.19,3h.09c1.77-2,4-3.51,6.16-3.51a5,5,0,0,1,5.37,4c2.21-2.44,4.37-4,6.61-4,3.88,0,5.82,2.44,5.82,7.47V33.65H70.77V21.4c0-4.13-1.38-6.09-4.36-6.09-1.83,0-3.68,1.21-5.83,3.65V33.65H58.79V21.4c0-4.13-1.38-6.09-4.36-6.09-1.76,0-3.69,1.21-5.83,3.65V33.65H46.8Z" transform="translate(0 -3.46)" fill="url(#linear-gradient)"/><path d="M78.08,24c0-6.35,4.13-10.26,8.49-10.26,4.62,0,7.45,3.29,7.45,9a8,8,0,0,1-.1,1.46h-14c.07,4.91,3,8.42,7.33,8.42a8.76,8.76,0,0,0,5.23-1.72l.74,1.36a10.62,10.62,0,0,1-6.14,1.91C82.11,34.13,78.08,30.31,78.08,24Zm14.26-1.27c0-5-2.26-7.44-5.75-7.44-3.29,0-6.27,2.79-6.67,7.44Z" transform="translate(0 -3.46)" fill="url(#linear-gradient)"/><path d="M97.68,24c0-6.28,4-10.26,8.64-10.26,2.33,0,3.92.89,5.87,2.39l-.1-3.57v-8h1.79V33.65h-1.52l-.19-2.52h-.09a9.18,9.18,0,0,1-6.35,3C100.85,34.13,97.68,30.52,97.68,24Zm14.41,5.38V17.79c-2-1.83-3.76-2.51-5.68-2.51-3.87,0-6.85,3.78-6.85,8.66,0,5.18,2.3,8.6,6.43,8.6C108.14,32.54,110.05,31.42,112.09,29.33Z" transform="translate(0 -3.46)" fill="url(#linear-gradient)"/><path d="M120.66,7.89a1.63,1.63,0,0,1,3.26,0,1.63,1.63,0,0,1-3.26,0Zm.69,6.29h1.8V33.65h-1.8Z" transform="translate(0 -3.46)" fill="url(#linear-gradient)"/><path d="M129.24,28.8c0-4.32,3.9-6.38,12.56-7.34.06-3-.76-6.19-4.59-6.19a10.69,10.69,0,0,0-6.2,2.28l-.83-1.33a13.11,13.11,0,0,1,7.24-2.53c4.62,0,6.17,3.35,6.17,7.52V33.65h-1.51l-.2-2.53h-.09c-2,1.6-4.35,3-6.9,3C131.8,34.13,129.24,32.46,129.24,28.8Zm12.56.65V22.82c-8,.93-10.72,2.78-10.72,5.89,0,2.79,1.88,3.87,4.12,3.87S139.39,31.5,141.8,29.45Z" transform="translate(0 -3.46)" fill="url(#linear-gradient)"/><path d="M158.34,26.67V14.18h1.79V26.43c0,4.13,1.31,6.09,4.44,6.09,2.32,0,4-1.22,6.28-4V14.18h1.79V33.65h-1.52l-.19-3.26h-.09c-1.92,2.24-3.93,3.74-6.61,3.74C160.21,34.13,158.34,31.69,158.34,26.67Z" transform="translate(0 -3.46)" fill="url(#linear-gradient)"/><path d="M180.1,14.18h1.51l.2,2.45h.09c1.9-1.53,4.21-2.94,6.6-2.94,5.23,0,7.8,3.91,7.8,9.94,0,6.6-4,10.5-8.58,10.5a10.15,10.15,0,0,1-5.86-2.39l0,3.59v7.13H180.1Zm14.31,9.45c0-4.78-1.7-8.35-6.19-8.35-1.93,0-4,1.14-6.33,3.21V30a9.43,9.43,0,0,0,5.73,2.5C191.58,32.54,194.41,28.91,194.41,23.63Z" transform="translate(0 -3.46)" fill="url(#linear-gradient)"/><path d="M202.11,31V4.48h1.79v26.8c0,.87.36,1.27.84,1.27a3.07,3.07,0,0,0,.73-.08l.3,1.46a3.87,3.87,0,0,1-1.29.2C202.92,34.13,202.11,33.17,202.11,31Z" transform="translate(0 -3.46)" fill="url(#linear-gradient)"/><path d="M210.08,24c0-6.51,4.06-10.26,8.74-10.26s8.74,3.75,8.74,10.26-4.06,10.18-8.74,10.18S210.08,30.39,210.08,24Zm15.6,0c0-5.12-2.93-8.68-6.86-8.68S212,18.83,212,24s2.93,8.6,6.86,8.6S225.68,29.07,225.68,24Z" transform="translate(0 -3.46)" fill="url(#linear-gradient)"/><path d="M231.4,28.8c0-4.32,3.9-6.38,12.56-7.34.06-3-.76-6.19-4.59-6.19a10.63,10.63,0,0,0-6.2,2.28l-.83-1.33a13.11,13.11,0,0,1,7.24-2.53c4.62,0,6.17,3.35,6.17,7.52V33.65h-1.51l-.2-2.53H244c-2,1.6-4.35,3-6.91,3C234,34.13,231.4,32.46,231.4,28.8Zm12.56.65V22.82c-8,.93-10.73,2.78-10.73,5.89,0,2.79,1.89,3.87,4.13,3.87S241.55,31.5,244,29.45Z" transform="translate(0 -3.46)" fill="url(#linear-gradient)"/><path d="M251.08,24c0-6.28,4-10.26,8.63-10.26,2.34,0,3.93.89,5.88,2.39l-.1-3.57v-8h1.79V33.65h-1.52l-.19-2.52h-.09a9.18,9.18,0,0,1-6.35,3C254.25,34.13,251.08,30.52,251.08,24Zm14.41,5.38V17.79c-2.05-1.83-3.76-2.51-5.68-2.51-3.87,0-6.85,3.78-6.85,8.66,0,5.18,2.3,8.6,6.43,8.6C261.54,32.54,263.44,31.42,265.49,29.33Z" transform="translate(0 -3.46)" fill="url(#linear-gradient)"/><path d="M273.12,24c0-6.35,4.12-10.26,8.49-10.26,4.61,0,7.45,3.29,7.45,9a9,9,0,0,1-.1,1.46H275c.06,4.91,2.94,8.42,7.33,8.42a8.78,8.78,0,0,0,5.23-1.72l.73,1.36a10.61,10.61,0,0,1-6.13,1.91C277.15,34.13,273.12,30.31,273.12,24Zm14.25-1.27c0-5-2.25-7.44-5.75-7.44-3.29,0-6.27,2.79-6.67,7.44Z" transform="translate(0 -3.46)" fill="url(#linear-gradient)"/><path d="M294.33,14.18h1.52l.19,3.63h.09c1.32-2.39,3.23-4.12,5.54-4.12a4,4,0,0,1,1.93.41l-.4,1.62a4.31,4.31,0,0,0-1.76-.32c-1.75,0-3.83,1.32-5.31,5V33.65h-1.8Z" transform="translate(0 -3.46)" fill="url(#linear-gradient)"/><path d="M33.13,4.89c-2.88.23-5.65.42-8.36.58s-5.37.32-8,.41-5.21.17-7.8.23S3.83,6.11,1.23,6L2.42,4.79C2.31,7.2,2.13,9.62,2,12s-.25,4.83-.28,7.25c-.08,4.83.08,9.66.34,14.5L1.23,33c2.67-.14,5.34-.3,8-.4s5.34-.16,8-.22l8-.15c2.67,0,5.34-.05,8,0l-1.57,1.58c.05-4.65.25-9.29.51-14.06l.45-7.27Zm.21-.21.51,6.94.44,7.23c.27,4.89.46,9.92.52,14.94l0,1.53-1.6,0c-2.66.07-5.33,0-8,0l-8-.15c-2.66-.06-5.33-.11-8-.21s-5.33-.27-8-.4l-.86,0,0-.78c.27-4.84.42-9.67.34-14.5C.73,16.87.61,14.45.47,12S.16,7.2.05,4.79L0,3.67l1.23-.06c2.74-.14,5.5-.17,8.25-.14s5.5.1,8.21.22,5.39.25,8,.42S30.88,4.46,33.34,4.68Z" transform="translate(0 -3.46)" fill="url(#linear-gradient-14)"/><path d="M18.16,12.63c3.56,2.83,7.54,5.07,11.1,7.9l.15-1.18a58.69,58.69,0,0,0-7.23,5.38,25.63,25.63,0,0,0-3.95,5h1.29a6.1,6.1,0,0,1-.2-2.72c.06-1.54.23-3.08.38-4.61a85.43,85.43,0,0,0,.46-12.49c-.05-1-1.55-1-1.5,0A88.09,88.09,0,0,1,18.14,23c-.14,1.51-.31,3-.34,4.54a6.59,6.59,0,0,0,.43,2.95.75.75,0,0,0,1.29,0,23.67,23.67,0,0,1,3.72-4.72,54.34,54.34,0,0,1,6.93-5.15.77.77,0,0,0,.15-1.18c-3.56-2.83-7.55-5.07-11.1-7.9-.75-.59-1.82.46-1.06,1.06Z" transform="translate(0 -3.46)" fill="url(#linear-gradient-15)"/><path d="M13.41,10.47c-.23,6.42-.09,12.84-.31,19.26l.75-.75c-2.21.23-4.43-.23-6.63,0l.53.22c.22.25.11.69.21.31A2.54,2.54,0,0,0,8,29c0-.53,0-1.06.08-1.59.1-1.62.21-3.23.32-4.85.21-3.13.4-6.26.73-9.38,0-.12,0-.6,0-.42a.66.66,0,0,1,0-.15s0,0,0-.05L9,13l.4,0a48.92,48.92,0,0,1,5.42-.19.75.75,0,0,0,0-1.5,43.59,43.59,0,0,0-5.93.26c-.9.12-1.1.39-1.2,1.19-.21,1.65-.31,3.3-.43,4.95q-.27,3.54-.5,7.08c-.1,1.55-.28,3.13-.27,4.68,0,1.16.91,1,1.82,1,1.85,0,3.72.26,5.57.06a.78.78,0,0,0,.75-.75c.22-6.42.08-12.84.31-19.26,0-1-1.47-1-1.5,0Z" transform="translate(0 -3.46)" fill="url(#linear-gradient-16)"/></g></g></svg>