<svg xmlns="http://www.w3.org/2000/svg" viewBox="0 0 305.25 292.63"><g id="Layer_2" data-name="Layer 2"><g id="Layer_9" data-name="Layer 9"><g id="container"><rect x="6.25" y="5" width="294" height="201" rx="34" fill="#ccc" stroke="#666" stroke-miterlimit="10" stroke-width="10"/></g></g><g id="Layer_3" data-name="Layer 3"><path d="M124,168.84C121,200.41,99.7,226,76.5,226s-44.63-25.59-47.88-57.16,18-57.17,47.5-57.17S127,137.26,124,168.84Z" fill="#999"/><path d="M115.89,209.13C108.11,224.07,94.32,234,78.6,234c-16.28,0-30.49-10.65-38.1-26.47C16.4,218.3,0,239.54,0,264c0,35.35,36.35,28,78.6,28s74.4,7.35,74.4-28C153,240.71,138.12,220.33,115.89,209.13Z" fill="#999"/><text transform="translate(151.58 158.98)" font-size="168.53" fill="#c00" font-family="BerlinSansFBDemi-Bold, Berlin Sans FB Demi" font-weight="700">R</text></g></g></svg>